<svg width="227" height="56" viewBox="0 0 227 56" fill="none" xmlns="http://www.w3.org/2000/svg">
<g opacity="0.8" clip-path="url(#clip0_1358_88356)">
<path d="M6.99637 19.2474C6.60032 20.782 6.39679 22.3655 6.39106 23.9566C6.39106 24.0685 6.39106 24.1777 6.39106 24.287C6.40362 26.2101 6.20042 28.1279 5.78575 30C4.95043 29.6851 4.09089 29.0476 3.27009 27.9436C1.11036 25.0388 1.82825 20.381 4.49161 19.2847C5.49884 18.8708 6.34143 18.9582 7 19.2294C6.99824 19.2353 6.99703 19.2413 6.99637 19.2474Z" fill="#A16552"/>
<path d="M6.99637 19.2474C6.60032 20.782 6.39679 22.3655 6.39106 23.9566C6.39106 24.0685 6.39106 24.1777 6.39106 24.287C6.40362 26.2101 6.20042 28.1279 5.78575 30C4.95043 29.6851 4.09089 29.0476 3.27009 27.9436C1.11036 25.0388 1.82825 20.381 4.49161 19.2847C5.49884 18.8708 6.34143 18.9582 7 19.2294C6.99824 19.2353 6.99703 19.2413 6.99637 19.2474Z" fill="#F5DCB4"/>
<path d="M47.9852 27.9433C47.3297 29.0449 46.6413 29.6825 45.9731 30C45.6419 28.128 45.4794 26.2105 45.489 24.2876C45.489 24.1783 45.489 24.0691 45.489 23.9572C45.4846 22.3595 45.3201 20.7696 45 19.2294C45.5267 18.9582 46.2007 18.8708 47.0063 19.2847C49.1365 20.3786 49.7117 25.037 47.9852 27.9433Z" fill="#A16552"/>
<path d="M47.9852 27.9433C47.3297 29.0449 46.6413 29.6825 45.9731 30C45.6419 28.128 45.4794 26.2105 45.489 24.2876C45.489 24.1783 45.489 24.0691 45.489 23.9572C45.4846 22.3595 45.3201 20.7696 45 19.2294C45.5267 18.9582 46.2007 18.8708 47.0063 19.2847C49.1365 20.3786 49.7117 25.037 47.9852 27.9433Z" fill="#F5DCB4"/>
<path d="M38.8402 30.2709C38.4513 30.9043 38.2023 31.6216 38.1113 32.3701C38.0204 33.1185 38.09 33.879 38.3148 34.5953C38.6662 35.6859 38.9805 36.9207 38.9805 37.8392C38.9781 44.5598 32.9464 50 25.503 50C18.0596 50 12.0243 44.5598 12.0243 37.8366C12.0243 36.9181 12.3385 35.6859 12.6899 34.5927C12.9151 33.8767 12.9848 33.1166 12.8941 32.3683C12.8034 31.62 12.5545 30.9028 12.1658 30.2697C11.4074 29.0173 11.003 27.5629 11 26.0769C11 21.6172 14.5982 18 19.0359 18C20.4704 17.9963 21.8815 18.3842 23.1318 19.126C23.8526 19.5586 24.6677 19.786 25.497 19.786C26.3263 19.786 27.1413 19.5586 27.8622 19.126C29.1121 18.3844 30.5228 17.9969 31.9569 18.0013C36.3946 18.0013 40 21.6184 40 26.0781C40.0034 27.1926 39.7775 28.2947 39.3379 29.3081C39.1936 29.641 39.0273 29.9627 38.8402 30.2709Z" fill="#A16552"/>
<path d="M38.8402 30.2709C38.4513 30.9043 38.2023 31.6216 38.1113 32.3701C38.0204 33.1185 38.09 33.879 38.3148 34.5953C38.6662 35.6859 38.9805 36.9207 38.9805 37.8392C38.9781 44.5598 32.9464 50 25.503 50C18.0596 50 12.0243 44.5598 12.0243 37.8366C12.0243 36.9181 12.3385 35.6859 12.6899 34.5927C12.9151 33.8767 12.9848 33.1166 12.8941 32.3683C12.8034 31.62 12.5545 30.9028 12.1658 30.2697C11.4074 29.0173 11.003 27.5629 11 26.0769C11 21.6172 14.5982 18 19.0359 18C20.4704 17.9963 21.8815 18.3842 23.1318 19.126C23.8526 19.5586 24.6677 19.786 25.497 19.786C26.3263 19.786 27.1413 19.5586 27.8622 19.126C29.1121 18.3844 30.5228 17.9969 31.9569 18.0013C36.3946 18.0013 40 21.6184 40 26.0781C40.0034 27.1926 39.7775 28.2947 39.3379 29.3081C39.1936 29.641 39.0273 29.9627 38.8402 30.2709Z" fill="#F5DCB4"/>
<path d="M17.8626 40C17.74 39.9997 17.6187 40.0233 17.5068 40.0691C17.395 40.1149 17.2953 40.1819 17.2143 40.2656C17.1333 40.3493 17.073 40.4477 17.0373 40.5544C17.0016 40.661 16.9914 40.7733 17.0073 40.8838C17.541 44.3329 21.1436 47 25.5 47C29.8564 47 33.4616 44.3329 33.9927 40.8838C34.0086 40.7734 33.9985 40.6612 33.9628 40.5547C33.9272 40.4481 33.867 40.3497 33.7861 40.2661C33.7053 40.1824 33.6057 40.1154 33.4941 40.0695C33.3824 40.0236 33.2613 39.9999 33.1387 40H17.8626Z" fill="#4E3F3F"/>
<path d="M21 45.6376C22.4998 46.528 24.2321 47 26 47C27.7679 47 29.5002 46.528 31 45.6376C30.3725 43.5713 28.3668 44.0474 25.9959 44.0474C23.6251 44.0474 21.6275 43.5713 21 45.6376Z" fill="#E6646E"/>
<path d="M47.7218 18.7118C46.0545 18.0652 44.7319 18.406 43.8017 18.9411C43.5746 18.2726 43.3131 17.6164 43.0182 16.9749C42.8025 16.5054 42.5698 16.0422 42.3199 15.5852C39.7688 10.9198 35.4789 7.04762 30.5559 5.41103L30.4593 2.7619L27.2726 4.67419L26.889 4.63158C26.6533 4.61028 26.4201 4.59399 26.1819 4.58396L25.7168 2.57895L25.5802 2C25.421 2 25.2655 2 25.1139 2.01754C22.149 2.25815 20.6735 4.95113 20.4428 5.41228C15.5211 7.04887 11.2337 10.9261 8.68254 15.5852C8.43182 16.0414 8.19906 16.5046 7.98427 16.9749C7.68967 17.6167 7.42774 18.2729 7.1995 18.9411L7.08041 18.8747C6.15774 18.3797 4.87653 18.094 3.28066 18.7118C-0.229502 20.0702 -1.16847 25.8421 1.671 29.4386C2.82935 30.9023 4.05289 31.7043 5.22128 32.0614C5.20623 32.1266 5.19119 32.193 5.1774 32.2594C4.96579 33.228 4.85945 34.2166 4.86023 35.208C4.86023 42.0789 9.9299 47.99 17.1934 50.5877C18.8988 51.1973 20.6676 51.6122 22.4662 51.8246C23.3999 51.9352 24.3391 51.9938 25.2793 52H25.5025C36.9017 52 46.1422 44.4812 46.1422 35.208C46.1428 34.2174 46.0365 33.2297 45.825 32.2619C45.81 32.1955 45.7962 32.1291 45.7799 32.0639C46.9546 31.7068 48.1731 30.9048 49.3302 29.4398C52.1709 25.8421 51.2244 20.0689 47.7218 18.7118ZM6.82717 20.1629C6.41705 21.6592 6.20629 23.203 6.20036 24.7544C6.20036 24.8634 6.20036 24.9699 6.20036 25.0764C6.21336 26.9515 6.00294 28.8213 5.57354 30.6466C4.70854 30.3396 3.81846 29.718 2.9685 28.6416C0.732032 25.8095 1.47543 21.2682 4.23342 20.1992C5.27643 19.7957 6.14896 19.881 6.83093 20.1454C6.82912 20.1511 6.82786 20.157 6.82717 20.1629ZM39.9618 29.7506C39.811 30.0803 39.6372 30.399 39.4416 30.7043C39.0352 31.3316 38.7748 32.0421 38.6798 32.7835C38.5848 33.5248 38.6574 34.278 38.8925 34.9875C39.2598 36.0677 39.5882 37.2907 39.5882 38.2005C39.5857 44.8571 33.2812 50.2456 25.5012 50.2456C17.7212 50.2456 11.4129 44.8571 11.4129 38.198C11.4129 37.2882 11.7414 36.0677 12.1087 34.985C12.344 34.2758 12.4169 33.5228 12.3221 32.7817C12.2273 32.0406 11.9671 31.3302 11.5609 30.703C10.7681 29.4626 10.3455 28.022 10.3423 26.5501C10.3423 22.1328 14.1032 18.5501 18.7417 18.5501C20.2411 18.5464 21.7159 18.9306 23.0228 19.6654C23.7762 20.0939 24.6281 20.3191 25.495 20.3191C26.3618 20.3191 27.2137 20.0939 27.9671 19.6654C29.2736 18.9309 30.7481 18.547 32.247 18.5514C36.8854 18.5514 40.6538 22.1341 40.6538 26.5514C40.6574 27.6553 40.4213 28.7468 39.9618 29.7506ZM48.0352 28.6429C47.1865 29.7168 46.2952 30.3383 45.4301 30.6479C45.0013 28.8229 44.7909 26.9535 44.8033 25.0789C44.8033 24.9724 44.8033 24.8659 44.8033 24.7569C44.7976 23.1993 44.5847 21.6494 44.1703 20.1479C44.8522 19.8835 45.7248 19.7982 46.7678 20.2018C49.5258 21.2682 50.2704 25.8095 48.0352 28.6429Z" fill="#A16552"/>
<path d="M22.1029 33.6291L22.0862 33.6659C21.9348 33.9983 22.0808 34.3908 22.4123 34.5426L24.0206 35.2792C24.3521 35.4311 24.7437 35.2847 24.8951 34.9523L24.9118 34.9156C25.0633 34.5832 24.9173 34.1906 24.5858 34.0388L22.9774 33.3022C22.6459 33.1504 22.2544 33.2967 22.1029 33.6291Z" fill="#4E3F3F"/>
<path d="M26.3233 34.9184L26.3401 34.9552C26.4915 35.2876 26.883 35.434 27.2145 35.2821L28.8229 34.5455C29.1544 34.3937 29.3004 34.0012 29.1489 33.6688L29.1322 33.632C28.9808 33.2996 28.5893 33.1533 28.2577 33.3051L26.6494 34.0417C26.3179 34.1935 26.1719 34.5861 26.3233 34.9184Z" fill="#4E3F3F"/>
<path d="M18.5006 29C17.1198 29 16 28.2331 16 27.2857V26.7143C16 25.7679 17.1198 25 18.5006 25C19.8815 25 21 25.7679 21 26.7143V27.2857C21 28.2331 19.8815 29 18.5006 29Z" fill="#4E3F3F"/>
<path d="M19 25V27.0951C19.0117 27.3388 19.1222 27.5689 19.3085 27.7374C19.4947 27.9059 19.7424 28 20 28C20.2576 28 20.5053 27.9059 20.6915 27.7374C20.8778 27.5689 20.9883 27.3388 21 27.0951V26.7997C21 25.8004 20.105 25 19 25Z" fill="#5D5360"/>
<path d="M18.5 27C19.3284 27 20 26.5523 20 26C20 25.4477 19.3284 25 18.5 25C17.6716 25 17 25.4477 17 26C17 26.5523 17.6716 27 18.5 27Z" fill="white"/>
<path d="M32.9995 29C31.8948 29 31 28.2331 31 27.2857V26.7143C31 25.7679 31.8948 25 32.9995 25C34.1042 25 35 25.7679 35 26.7143V27.2857C35 28.2331 34.1021 29 32.9995 29Z" fill="#4E3F3F"/>
<path d="M33 25V27.1012C33.0143 27.3441 33.1258 27.5726 33.3118 27.7397C33.4978 27.9069 33.744 28 34 28C34.256 28 34.5022 27.9069 34.6882 27.7397C34.8741 27.5726 34.9857 27.3441 35 27.1012V26.805C35 25.8028 34.1023 25 33 25Z" fill="#5D5360"/>
<path d="M33 27C33.5523 27 34 26.5523 34 26C34 25.4477 33.5523 25 33 25C32.4477 25 32 25.4477 32 26C32 26.5523 32.4477 27 33 27Z" fill="white"/>
<path opacity="0.35" d="M26 2.58372C25.4537 2.53089 24.2583 3.38234 22.831 4.8601C22.4749 5.22859 22.1022 5.63733 21.7219 6.08003C18.918 9.34997 15.6667 14.4901 14.5525 19.771C12.684 28.6376 11.9248 38.9253 15.223 44.6313C18.018 49.4658 22.7157 52 22.7157 52C20.8971 51.7869 19.1086 51.3705 17.3842 50.7587C10.0361 48.1541 4.91123 42.2191 4.91123 35.3258C4.91104 34.3316 5.01898 33.3403 5.23319 32.3691C5.24714 32.3024 5.26235 32.2358 5.27756 32.1704C4.0911 31.8119 2.85901 31.007 1.68777 29.5381C-1.18331 25.9285 -0.227553 20.1357 3.31534 18.7724C4.92897 18.1524 6.22444 18.4391 7.15738 18.9359L7.2778 19.0026C7.50858 18.332 7.77343 17.6733 8.07131 17.0293C8.28933 16.5581 8.52468 16.0932 8.77735 15.6345C11.3569 10.9548 15.692 7.0673 20.6685 5.42479C20.9018 4.96197 22.3937 2.25924 25.3916 2.01777C25.5449 2.00519 25.7021 1.9989 25.8631 2.00016L26 2.58372Z" fill="#4E3F3F"/>
<path d="M69.8187 39.6379C69.209 39.876 68.1145 39.9946 66.5354 39.9938C64.9563 39.993 63.6396 39.8471 62.5852 39.5561C61.5284 39.2651 61 38.8931 61 38.4401C61 37.9219 61.9502 34.6124 63.8505 28.5119C65.7508 22.4114 66.8399 18.8982 67.1178 17.9724C67.2249 17.6922 68.0831 17.4599 69.6924 17.2756C71.4155 17.0861 73.1477 16.9942 74.8809 17.0003C76.7289 17.0003 77.7506 17.3243 77.9459 17.9724C81.982 31.5349 84 38.424 84 38.6398C84 38.8555 83.8721 39.0713 83.6163 39.287C83.018 39.7632 81.8328 40.0008 80.0608 40C76.2806 40 74.348 39.5454 74.263 38.6361L74.0386 36.5282H70.9589L70.7995 38.3422C70.7554 38.968 70.4284 39.3999 69.8187 39.6379ZM73.357 30.3731L72.8776 24.5453H72.1727L71.6283 30.3731H73.357Z" fill="#A16552"/>
<path d="M86 45.1407V22.6211C86 22.126 86.6191 21.6186 87.8573 21.0991C89.137 20.5716 90.4985 20.3072 91.8703 20.3198C92.5342 20.3198 93.0534 20.4038 93.4292 20.5678C93.805 20.7318 94.0373 20.8985 94.1262 21.0639C94.2151 21.2292 94.3801 21.9367 94.6238 23.1876H94.8892C94.9323 22.9762 95.1312 22.6459 95.4858 22.1969C95.8023 21.7859 96.1642 21.4172 96.5637 21.0991C96.9276 20.8154 97.4527 20.5615 98.1391 20.3374C98.9207 20.0996 99.731 19.9863 100.544 20.0013C101.417 19.9895 102.278 20.2153 103.047 20.6573C103.799 21.0937 104.357 21.601 104.723 22.1793C105.125 22.8534 105.417 23.596 105.585 24.3749C105.763 25.0703 105.885 25.7808 105.949 26.4986C105.983 27.0299 106 27.7979 106 28.8026C106 29.8073 105.967 30.8012 105.9 31.7843C105.831 32.7882 105.709 33.7873 105.535 34.7767C105.391 35.682 105.134 36.5629 104.774 37.3965C104.448 38.1204 104.023 38.7886 103.513 39.3793C102.497 40.5602 101.005 41.1503 99.0354 41.1493C98.3967 41.1617 97.7614 41.0478 97.1616 40.8132C96.62 40.5892 96.2167 40.3235 95.9518 40.0163C95.3982 39.3793 95.0775 38.8128 94.9895 38.3168L94.9565 37.9631H94.6911L95.1558 41.1493V45.1502C95.1558 45.4104 94.521 45.6169 93.2515 45.7696C91.9524 45.9253 90.6461 46.0022 89.3388 46C88.0008 46 87.1121 45.9354 86.6728 45.8061C86.2209 45.6665 86 45.4497 86 45.1407ZM96.7135 26.2682C96.5137 25.4659 96.215 25.0647 95.8172 25.0647C95.4194 25.0647 95.1321 25.301 94.9552 25.7735V35.0492C94.9552 35.6645 95.2535 35.9717 95.8502 35.9708C96.6246 35.9708 97.0118 34.1411 97.0118 30.4818C97.0118 28.476 96.9124 27.0714 96.7135 26.2682Z" fill="#A16552"/>
<path d="M117.796 32.1194C117.796 33.5676 118.462 34.2917 119.793 34.2917C120.566 34.2917 121.575 34.0191 122.82 33.4739C124.066 32.9287 124.721 32.6561 124.785 32.6561C125.196 32.6561 125.733 33.2903 126.395 34.5588C127.057 35.8273 127.39 36.7619 127.394 37.3625C127.394 38.2314 126.535 38.8883 124.817 39.333C123.17 39.7684 121.477 39.9925 119.777 40C118.134 40 116.76 39.8667 115.655 39.6C114.551 39.3334 113.649 38.9926 112.951 38.5777C111.672 37.8146 110.628 36.6926 109.938 35.3409C109.667 34.7603 109.46 34.1499 109.322 33.5212C109.105 32.5243 108.997 31.5055 109 30.4837C109 26.4328 110.02 23.6394 112.059 22.1034C113.068 21.3256 114.218 20.769 115.441 20.4677C116.686 20.1559 118.157 20 119.853 20C125.284 20 128 21.9594 128 25.8782C128 30.0398 124.952 32.1211 118.855 32.1219L117.796 32.1194ZM117.732 27.2443V29.4486C118.027 29.4547 118.32 29.3884 118.586 29.2552C118.851 29.122 119.083 28.9255 119.262 28.6819C119.666 28.1503 119.877 27.4887 119.858 26.8123C119.858 25.4774 119.526 24.8095 118.86 24.8086C118.108 24.8078 117.732 25.6197 117.732 27.2443Z" fill="#A16552"/>
<path d="M148.349 38.3212C147.686 38.8043 146.764 39.2046 145.583 39.5221C144.402 39.8397 142.881 39.9989 141.019 39.9997C139.237 40.0072 137.457 39.8528 135.703 39.5385C134.025 39.2319 132.821 38.8921 132.093 38.5191C131.364 38.146 131 37.7835 131 37.4315C131.009 36.1359 131.187 34.8469 131.53 33.5969C131.882 32.2687 132.302 31.6046 132.789 31.6046C132.873 31.6046 133.789 31.9011 135.537 32.4942C137.285 33.0873 138.598 33.3835 139.478 33.3826C140.362 33.3826 140.936 33.2894 141.201 33.1029C141.33 33.0129 141.435 32.8917 141.504 32.7506C141.573 32.6095 141.606 32.4532 141.598 32.2964C141.598 31.9452 141.355 31.6323 140.869 31.3576C140.292 31.0469 139.68 30.8042 139.047 30.6342C138.236 30.3938 137.444 30.0908 136.68 29.7282C135.857 29.3497 135.064 28.9094 134.309 28.4113C133.54 27.8849 132.915 27.178 132.487 26.3535C131.989 25.4163 131.738 24.3687 131.758 23.3089C131.758 18.4363 134.683 16 140.534 16C142.719 16 144.607 16.1369 146.198 16.4108C147.788 16.6847 148.908 16.9922 149.558 17.3332C150.21 17.6693 150.536 18.0053 150.536 18.3414C150.536 19.4822 150.265 20.7113 149.724 22.0286C149.184 23.3459 148.659 24.0041 148.151 24.0033C148.062 24.0033 147.776 23.9046 147.29 23.7071C145.833 23.0712 144.624 22.7528 143.664 22.7519C142.704 22.7511 142.053 22.8389 141.71 23.0153C141.554 23.0839 141.421 23.1974 141.33 23.3413C141.238 23.4852 141.192 23.6529 141.197 23.8231C141.197 24.1852 141.439 24.4813 141.925 24.7115C142.505 24.9775 143.109 25.1885 143.73 25.3416C144.536 25.5606 145.323 25.8473 146.081 26.1985C146.912 26.5722 147.705 27.0241 148.449 27.5481C149.178 28.0639 149.786 28.7936 150.271 29.737C150.756 30.6804 150.999 31.778 151 33.0298C151.013 34.2992 150.657 35.5453 149.973 36.6175C149.544 37.2817 148.993 37.8597 148.349 38.3212Z" fill="#A16552"/>
<path d="M177.951 39.2554C177.665 39.7518 176.18 40 173.494 40C170.808 40 169.41 39.7518 169.3 39.2554L168.183 33.6085H167.722L166.669 39.2554C166.603 39.7518 164.684 40 160.913 40C159.861 40 159.165 39.943 158.825 39.829C158.671 39.7849 158.529 39.7112 158.407 39.6124C158.285 39.5137 158.187 39.3921 158.117 39.2554C154.04 29.8039 152.001 24.8296 152 24.3324C151.999 23.8352 152.794 23.3233 154.384 22.7969C155.855 22.2889 157.406 22.021 158.972 22.0048C160.858 22.0048 161.834 22.4798 161.9 23.4298L163.018 31.9305H163.412L163.808 25.0746C163.83 24.5584 164.388 24.1032 165.485 23.7089C166.544 23.3215 167.67 23.1202 168.807 23.1151C169.925 23.1151 170.764 23.2442 171.325 23.5023C171.886 23.7604 172.176 24.0771 172.196 24.4523L172.557 31.934H172.92L174.004 23.9547C174.069 23.4583 174.809 23.0086 176.223 22.6057C177.638 22.2027 178.882 22.0008 179.956 22C181.031 22 181.876 22.1449 182.489 22.4347C183.496 22.8891 184 23.4271 184 24.0486C184 24.1103 183.008 26.6335 181.024 31.6181C179.04 36.6028 178.015 39.1485 177.951 39.2554Z" fill="#A16552"/>
<path d="M190.511 40C188.486 40 186.895 39.5208 185.738 38.5625C185.27 38.1606 184.864 37.5696 184.519 36.7896C184.174 36.0097 184.001 35.0974 184.001 34.0529C183.979 33.085 184.24 32.1318 184.753 31.311C185.21 30.5714 185.836 29.9507 186.578 29.4998C187.363 29.0453 188.205 28.6967 189.081 28.4629C190.641 28.0702 192.245 27.8792 193.854 27.8946H194.957C194.957 26.9806 194.645 26.3342 194.022 25.9553C193.754 25.7991 193.348 25.7211 192.803 25.7211C192.258 25.7211 191.601 25.8657 190.834 26.155C190.171 26.3962 189.53 26.693 188.918 27.0421C188.407 27.3424 188.062 27.4926 187.883 27.4926C187.482 27.4926 186.936 26.9631 186.247 25.9041C185.558 24.8451 185.213 23.8808 185.213 23.0112C185.213 22.7219 185.624 22.343 186.448 21.8745C187.272 21.406 188.434 20.9768 189.936 20.5868C191.368 20.2063 192.843 20.0098 194.324 20.0018C195.563 19.9838 196.8 20.1014 198.013 20.3525C198.89 20.5326 199.742 20.8193 200.55 21.2063C201.193 21.5307 201.762 21.9863 202.219 22.544C202.613 23.0097 202.959 23.5135 203.254 24.048C203.516 24.5968 203.688 25.1841 203.765 25.7876C203.934 26.7926 204.013 27.8111 203.998 28.8303V38.8966C203.998 39.1424 203.402 39.3374 202.21 39.4816C201.036 39.626 199.855 39.6987 198.672 39.6992C197.503 39.6992 196.746 39.6659 196.402 39.5993C196.057 39.5315 195.851 39.4547 195.785 39.3651C195.697 39.2222 195.64 39.0627 195.617 38.8966L195.35 36.997H195.083C194.524 38.999 192.999 40 190.511 40ZM194.982 34.4484V30.5366C194.706 30.532 194.432 30.5968 194.187 30.7251C193.941 30.8535 193.732 31.0412 193.577 31.2713C193.223 31.7566 193.036 32.3435 193.043 32.9444C193.043 34.4156 193.377 35.1512 194.045 35.1512C194.292 35.1654 194.536 35.0879 194.729 34.9336C194.805 34.8766 194.867 34.8035 194.911 34.7196C194.955 34.6357 194.98 34.5431 194.984 34.4484H194.982Z" fill="#A16552"/>
<path d="M207 45.1407V22.6211C207 22.1259 207.619 21.6186 208.857 21.0991C210.137 20.5716 211.499 20.3072 212.872 20.3198C213.534 20.3198 214.053 20.4038 214.43 20.5678C214.808 20.7318 215.037 20.8985 215.126 21.0638C215.215 21.2292 215.38 21.9367 215.624 23.1876H215.889C215.934 22.9762 216.133 22.6459 216.486 22.1969C216.803 21.7862 217.165 21.4176 217.564 21.0991C217.929 20.8154 218.454 20.5615 219.139 20.3374C219.921 20.0997 220.731 19.9864 221.544 20.0013C222.417 19.9893 223.279 20.2151 224.048 20.6573C224.8 21.0937 225.358 21.601 225.723 22.1793C226.126 22.8528 226.418 23.5956 226.585 24.3748C226.764 25.0701 226.886 25.7807 226.95 26.4986C226.983 27.0299 227 27.7979 227 28.8026C227 29.8073 226.967 30.8012 226.901 31.7842C226.831 32.7882 226.709 33.7873 226.535 34.7767C226.392 35.6823 226.136 36.5633 225.774 37.3965C225.448 38.12 225.023 38.7882 224.514 39.3793C223.499 40.5602 222.006 41.1502 220.037 41.1493C219.398 41.162 218.763 41.048 218.163 40.8132C217.621 40.5892 217.218 40.3235 216.952 40.0163C216.399 39.3793 216.078 38.8128 215.989 38.3168L215.956 37.963H215.691L216.156 41.1493V45.1502C216.156 45.4104 215.521 45.6169 214.251 45.7696C212.952 45.9253 211.645 46.0022 210.338 46C208.999 46 208.111 45.9354 207.672 45.8061C207.221 45.6666 207 45.4497 207 45.1407ZM217.713 26.2682C217.515 25.4659 217.218 25.0647 216.825 25.0647C216.431 25.0647 216.144 25.301 215.962 25.7735V35.0492C215.962 35.6645 216.26 35.9717 216.858 35.9708C217.631 35.9708 218.017 34.1411 218.018 30.4818C218.014 28.476 217.912 27.0714 217.713 26.2682Z" fill="#A16552"/>
</g>
<defs>
<clipPath id="clip0_1358_88356">
<rect width="226" height="56" fill="white" transform="translate(0.5)"/>
</clipPath>
</defs>
</svg>
