<svg width="172" height="40" viewBox="0 0 172 40" fill="none" xmlns="http://www.w3.org/2000/svg">
<g opacity="0.8" clip-path="url(#clip0_1358_90010)">
<path d="M8.31522 19.044C8.31526 18.8207 8.35942 18.5995 8.44516 18.3933C8.53089 18.1871 8.65652 17.9998 8.81483 17.8423C8.97314 17.6848 9.161 17.56 9.36764 17.4753C9.57428 17.3906 9.79563 17.3475 10.019 17.3485L12.8436 17.3577C13.294 17.3577 13.7259 17.5367 14.0443 17.8551C14.3628 18.1736 14.5417 18.6055 14.5417 19.0559V29.7372C14.8599 29.643 15.267 29.5424 15.715 29.4369C16.0254 29.3639 16.302 29.1881 16.5 28.9382C16.6981 28.6882 16.8058 28.3787 16.8059 28.0599V14.8114C16.8059 14.361 16.9848 13.929 17.3033 13.6105C17.6217 13.292 18.0536 13.113 18.504 13.1129H21.3372C21.7876 13.113 22.2196 13.292 22.538 13.6105C22.8565 13.929 23.0354 14.361 23.0354 14.8114V27.1081C23.0354 27.1081 23.7442 26.8213 24.4342 26.5299C24.6906 26.4214 24.9094 26.2399 25.0633 26.0079C25.2172 25.7759 25.2993 25.5037 25.2995 25.2254V10.5659C25.2995 10.1155 25.4784 9.68367 25.7968 9.36522C26.1152 9.04676 26.547 8.86781 26.9974 8.86773H29.8276C30.2777 8.86816 30.7092 9.04727 31.0273 9.36568C31.3454 9.6841 31.5241 10.1158 31.5241 10.5659V22.6374C33.9778 20.8592 36.4645 18.7203 38.4379 16.1485C38.7242 15.7752 38.9137 15.3368 38.9894 14.8725C39.0651 14.4082 39.0247 13.9323 38.8718 13.4874C37.9583 10.8593 36.5062 8.45085 34.6085 6.41614C32.7108 4.38144 30.4092 2.76529 27.8511 1.67113C25.2929 0.576973 22.5345 0.0288894 19.7524 0.061959C16.9702 0.0950286 14.2256 0.708521 11.6942 1.86318C9.16277 3.01784 6.90025 4.68823 5.05143 6.76747C3.20262 8.84671 1.80821 11.289 0.957441 13.9381C0.106674 16.5871 -0.181714 19.3846 0.110727 22.1516C0.403168 24.9185 1.27 27.5939 2.65575 30.0066C2.89718 30.4228 3.25238 30.7614 3.67962 30.9828C4.10685 31.2041 4.58838 31.2989 5.06763 31.256C5.60301 31.2089 6.26961 31.1423 7.06214 31.0493C7.40706 31.0101 7.72551 30.8453 7.95683 30.5865C8.18814 30.3276 8.31618 29.9927 8.31654 29.6456V19.044" fill="white"/>
<path d="M8.25586 36.1741C11.2391 38.3444 14.7646 39.6471 18.4423 39.9381C22.12 40.2291 25.8065 39.497 29.0939 37.8229C32.3813 36.1487 35.1416 33.5978 37.0692 30.4523C38.9968 27.3068 40.0167 23.6893 40.0161 20.0001C40.0161 19.5386 39.9946 19.0843 39.964 18.6313C32.6575 29.5286 19.1667 34.623 8.25586 36.1741Z" fill="#F0B90B"/>
<path opacity="0.8" d="M51.1203 33.4311H48.3214L47.8269 34.8355H46.3533L48.9247 27.9322H50.517L53.0786 34.8355H51.6049L51.1203 33.4311ZM50.7445 32.3729L49.7159 29.4256L48.6873 32.3729H50.7445ZM60.2489 29.2872C60.6875 29.2809 61.1191 29.3974 61.4951 29.6234C61.8725 29.8567 62.1733 30.1954 62.3605 30.5976C62.5775 31.0667 62.6841 31.5793 62.672 32.096C62.6841 32.6127 62.5775 33.1253 62.3605 33.5943C62.1733 33.9966 61.8725 34.3352 61.4951 34.5685C61.1191 34.7945 60.6875 34.911 60.2489 34.9048C59.8303 34.9166 59.418 34.8004 59.067 34.5718C58.7468 34.3587 58.5026 34.0493 58.3698 33.6883V37.4465H56.9753V29.3564H58.3698V30.4938C58.5015 30.133 58.746 29.8243 59.067 29.6135C59.4193 29.3886 59.8311 29.2748 60.2489 29.2872ZM59.8137 30.5037C59.6195 30.4976 59.4261 30.5326 59.2462 30.6064C59.0664 30.6803 58.9043 30.7913 58.7703 30.9322C58.4848 31.2504 58.3371 31.669 58.3599 32.096C58.3492 32.3058 58.3799 32.5157 58.4503 32.7137C58.5208 32.9117 58.6295 33.0939 58.7703 33.2498C58.9043 33.3907 59.0664 33.5018 59.2462 33.5756C59.4261 33.6495 59.6195 33.6845 59.8137 33.6784C60.0083 33.6867 60.2024 33.6536 60.3832 33.5811C60.5639 33.5086 60.7272 33.3985 60.8621 33.2581C61.1405 32.9371 61.2825 32.5201 61.2577 32.096C61.2819 31.6704 61.1401 31.2521 60.8621 30.9289C60.728 30.7872 60.565 30.6758 60.3841 30.6025C60.2032 30.5291 60.0087 30.4954 59.8137 30.5037ZM65.55 30.4048C65.7453 30.0646 66.0245 29.7803 66.361 29.5789C66.7019 29.3766 67.0921 29.2722 67.4885 29.2773V30.7707H67.083C66.061 30.7707 65.55 31.2454 65.55 32.1949V34.8355H64.1555V29.3564H65.55V30.4048ZM71.2863 29.2872C71.7863 29.2791 72.2806 29.3946 72.7253 29.6234C73.1471 29.8442 73.4958 30.1826 73.7292 30.5976C73.9814 31.0559 74.1077 31.573 74.0951 32.096C74.1081 32.6175 73.9818 33.133 73.7292 33.5894C73.4939 34.0029 73.1457 34.3408 72.7253 34.5636C72.2816 34.7955 71.7869 34.9128 71.2863 34.9048C70.7857 34.9128 70.291 34.7955 69.8473 34.5636C69.4269 34.3408 69.0787 34.0029 68.8434 33.5894C68.5908 33.133 68.4645 32.6175 68.4775 32.096C68.4649 31.573 68.5912 31.0559 68.8434 30.5976C69.0768 30.1826 69.4255 29.8442 69.8473 29.6234C70.292 29.3946 70.7863 29.2791 71.2863 29.2872ZM71.2863 30.4938C71.1021 30.4904 70.9191 30.5251 70.7489 30.5957C70.5787 30.6663 70.425 30.7714 70.2973 30.9042C70.1539 31.0659 70.0442 31.2546 69.9745 31.4593C69.9049 31.6639 69.8768 31.8803 69.8918 32.096C69.877 32.3113 69.9052 32.5275 69.9749 32.7318C70.0445 32.9361 70.1541 33.1246 70.2973 33.2861C70.425 33.4189 70.5787 33.524 70.7489 33.5946C70.9191 33.6652 71.1021 33.6999 71.2863 33.6965C71.4705 33.6999 71.6535 33.6652 71.8237 33.5946C71.9939 33.524 72.1476 33.4189 72.2753 33.2861C72.4185 33.1246 72.5281 32.9361 72.5978 32.7318C72.6674 32.5275 72.6956 32.3113 72.6808 32.096C72.6958 31.8803 72.6677 31.6639 72.5981 31.4593C72.5285 31.2546 72.4187 31.0659 72.2753 30.9042C72.1476 30.7714 71.9939 30.6663 71.8237 30.5957C71.6535 30.5251 71.4705 30.4904 71.2863 30.4938ZM77.7248 29.2872C78.1426 29.2748 78.5544 29.3886 78.9067 29.6135C79.2287 29.8257 79.476 30.1336 79.6138 30.4938V27.5168H80.9984V34.8355H79.6138V33.6883C79.4745 34.049 79.2269 34.3576 78.905 34.5718C78.5546 34.8001 78.1429 34.9162 77.7248 34.9048C77.2862 34.911 76.8546 34.7945 76.4786 34.5685C76.1012 34.3352 75.8004 33.9966 75.6132 33.5943C75.3962 33.1253 75.2896 32.6127 75.3017 32.096C75.2896 31.5793 75.3962 31.0667 75.6132 30.5976C75.8004 30.1954 76.1012 29.8567 76.4786 29.6234C76.8546 29.3974 77.2862 29.2809 77.7248 29.2872ZM78.16 30.5037C77.965 30.4954 77.7705 30.5291 77.5896 30.6025C77.4087 30.6758 77.2457 30.7872 77.1116 30.9289C76.8336 31.2521 76.6918 31.6704 76.716 32.096C76.6912 32.5201 76.8332 32.9371 77.1116 33.2581C77.2465 33.3985 77.4098 33.5086 77.5905 33.5811C77.7713 33.6536 77.9654 33.6867 78.16 33.6784C78.3541 33.684 78.5472 33.6487 78.7268 33.5745C78.9063 33.5004 79.0681 33.3892 79.2017 33.2482C79.3425 33.0922 79.4513 32.9101 79.5217 32.7121C79.5921 32.5141 79.6229 32.3042 79.6122 32.0943C79.634 31.6685 79.4865 31.2513 79.2017 30.9339C79.0681 30.7929 78.9063 30.6817 78.7268 30.6075C78.5472 30.5334 78.3541 30.498 78.16 30.5037ZM88.0006 29.3564V34.8355H86.6061V33.7278C86.4689 34.0874 86.2169 34.3916 85.8891 34.5932C85.5421 34.805 85.1417 34.9131 84.7352 34.9048C84.4529 34.9174 84.1711 34.8682 83.9097 34.7606C83.6484 34.653 83.4137 34.4895 83.2221 34.2817C82.8211 33.7935 82.6197 33.1716 82.6583 32.541V29.3564H84.0429V32.3828C84.02 32.7514 84.1405 33.1147 84.3792 33.3965C84.4962 33.5184 84.6379 33.6139 84.7949 33.6764C84.9518 33.739 85.1203 33.7672 85.2891 33.7592C85.4673 33.7675 85.6453 33.7374 85.8108 33.6709C85.9763 33.6043 86.1256 33.5029 86.2484 33.3734C86.5041 33.0632 86.6315 32.6669 86.6045 32.2657V29.358L88.0006 29.3564ZM92.2237 29.2872C92.8614 29.2647 93.4865 29.4678 93.9891 29.8608C94.4671 30.2544 94.7825 30.8111 94.8743 31.4234H93.4007C93.3529 31.1529 93.2089 30.9087 92.9952 30.7361C92.7654 30.5618 92.4822 30.4726 92.1941 30.4839C92.0193 30.4805 91.8459 30.5155 91.6861 30.5864C91.5263 30.6573 91.3841 30.7624 91.2693 30.8943C90.9999 31.2345 90.8676 31.6632 90.8984 32.096C90.8672 32.5286 90.9989 32.9572 91.2677 33.2976C91.3826 33.4297 91.5251 33.535 91.6852 33.6059C91.8453 33.6768 92.019 33.7117 92.1941 33.7081C92.4822 33.7193 92.7654 33.6302 92.9952 33.4559C93.2089 33.2832 93.3529 33.0391 93.4007 32.7685H94.8743C94.7825 33.3809 94.4671 33.9375 93.9891 34.3311C93.4865 34.7241 92.8614 34.9272 92.2237 34.9048C91.7277 34.914 91.2375 34.7966 90.7995 34.5636C90.3884 34.3403 90.0515 34.0017 89.8303 33.5894C89.5903 33.1289 89.4712 32.6151 89.4842 32.096C89.4716 31.5753 89.5907 31.06 89.8303 30.5976C90.0496 30.1839 90.387 29.8448 90.7995 29.6234C91.2385 29.3936 91.7283 29.2779 92.2237 29.2872ZM99.2853 33.6388V34.8355H98.5534C98.0443 34.8701 97.541 34.7111 97.1441 34.3905C96.8177 34.0938 96.6545 33.5993 96.6545 32.907V30.5333H95.893V29.3564H96.6545V28.0015H98.049V29.3564H99.2754V30.5333H98.049V32.9267C98.0283 33.1249 98.085 33.3233 98.2073 33.4806C98.3578 33.601 98.5495 33.6578 98.7413 33.6388H99.2853ZM105.961 29.2872C106.461 29.2791 106.955 29.3946 107.4 29.6234C107.822 29.8442 108.171 30.1826 108.404 30.5976C108.656 31.0559 108.783 31.573 108.77 32.096C108.783 32.6175 108.657 33.133 108.404 33.5894C108.169 34.0029 107.821 34.3408 107.4 34.5636C106.956 34.7955 106.462 34.9128 105.961 34.9048C105.46 34.9131 104.965 34.7958 104.52 34.5636C104.101 34.3406 103.753 34.0027 103.518 33.5894C103.266 33.133 103.139 32.6175 103.152 32.096C103.14 31.573 103.266 31.0559 103.518 30.5976C103.751 30.1829 104.099 29.8445 104.52 29.6234C104.966 29.3944 105.461 29.2788 105.961 29.2872ZM105.961 30.4938C105.777 30.4904 105.594 30.5251 105.424 30.5957C105.254 30.6663 105.1 30.7714 104.972 30.9042C104.829 31.0659 104.719 31.2546 104.649 31.4593C104.58 31.6639 104.552 31.8803 104.567 32.096C104.552 32.3113 104.58 32.5275 104.65 32.7318C104.719 32.9361 104.829 33.1246 104.972 33.2861C105.1 33.4189 105.254 33.524 105.424 33.5946C105.594 33.6652 105.777 33.6999 105.961 33.6965C106.145 33.6999 106.328 33.6652 106.499 33.5946C106.669 33.524 106.822 33.4189 106.95 33.2861C107.093 33.1246 107.203 32.9361 107.273 32.7318C107.342 32.5275 107.37 32.3113 107.356 32.096C107.371 31.8803 107.343 31.6639 107.273 31.4593C107.203 31.2546 107.094 31.0659 106.95 30.9042C106.822 30.7714 106.669 30.6663 106.499 30.5957C106.328 30.5251 106.145 30.4904 105.961 30.4938ZM112.963 28.4069C112.664 28.3545 112.357 28.4182 112.103 28.585C112.01 28.6873 111.94 28.808 111.898 28.9393C111.855 29.0705 111.841 29.2093 111.856 29.3465V29.3564H112.963V30.5333H111.856V34.8355H110.461V30.5333H109.759V29.3564H110.461V29.2278C110.443 28.9513 110.484 28.6742 110.58 28.4143C110.677 28.1545 110.826 27.9178 111.02 27.7196C111.483 27.3356 112.077 27.146 112.677 27.1905C112.802 27.1905 112.897 27.1938 112.963 27.2004V28.4069ZM118.581 29.1883V30.652H120.945V31.9278H118.581V33.4806H121.241V34.8355H116.89V27.8432H121.241V29.1883H118.581ZM125.821 33.3817V34.8355H125.059C124.514 34.8691 123.976 34.6981 123.551 34.3559C123.191 34.0361 123.012 33.507 123.012 32.7685V30.741H122.27V29.3168H123.012V27.9619H124.703V29.3168H125.811V30.741H124.703V32.7982C124.685 32.9613 124.732 33.1249 124.835 33.2531C124.963 33.3514 125.124 33.3974 125.285 33.3817H125.821ZM130.766 29.2575C131.048 29.2447 131.33 29.2949 131.591 29.4044C131.852 29.5138 132.085 29.6799 132.274 29.8905C132.67 30.3809 132.87 31.0014 132.834 31.6311V34.8355H131.143V31.8289C131.162 31.5135 131.057 31.2032 130.851 30.9635C130.752 30.8594 130.631 30.7777 130.497 30.7239C130.363 30.6702 130.219 30.6457 130.075 30.652C129.923 30.6447 129.772 30.6701 129.631 30.7264C129.491 30.7827 129.364 30.8686 129.259 30.9784C129.043 31.2382 128.935 31.571 128.957 31.9081V34.8355H127.266V27.5168H128.957V30.3256C129.111 30.0012 129.357 29.7293 129.664 29.5443C129.998 29.3479 130.379 29.2486 130.766 29.2575ZM139.687 31.9278C139.685 32.0807 139.668 32.2331 139.637 32.3828H135.81C135.796 32.7107 135.91 33.0311 136.126 33.2778C136.324 33.4618 136.588 33.5596 136.858 33.5498C137.081 33.5584 137.3 33.4922 137.481 33.3619C137.642 33.2424 137.757 33.0714 137.807 32.8773H139.597C139.528 33.2591 139.365 33.6176 139.123 33.9207C138.874 34.2311 138.555 34.4785 138.193 34.6427C137.799 34.8219 137.37 34.912 136.937 34.9064C136.436 34.916 135.941 34.7986 135.498 34.5652C135.081 34.3392 134.739 33.9967 134.514 33.5795C134.268 33.1172 134.146 32.5995 134.158 32.0762C134.145 31.5517 134.265 31.0326 134.509 30.5679C134.734 30.152 135.076 29.8114 135.493 29.5888C135.938 29.3558 136.435 29.2384 136.937 29.2476C137.439 29.2369 137.935 29.3525 138.381 29.5839C138.787 29.7989 139.122 30.1269 139.345 30.5284C139.579 30.9573 139.696 31.4396 139.687 31.9278ZM137.976 31.6707C137.99 31.5216 137.971 31.3711 137.921 31.2301C137.87 31.089 137.789 30.9609 137.684 30.8548C137.479 30.672 137.212 30.5746 136.937 30.5828C136.654 30.5731 136.378 30.6722 136.166 30.8597C135.948 31.0739 135.824 31.3653 135.819 31.6707H137.976ZM142.752 30.3553C142.956 30.0264 143.236 29.7516 143.568 29.5542C143.895 29.358 144.27 29.2554 144.651 29.2575V31.0674H144.167C143.797 31.0447 143.43 31.1455 143.123 31.3542C142.99 31.4756 142.887 31.6265 142.823 31.7948C142.758 31.9631 142.734 32.1441 142.752 32.3234V34.8355H141.061V29.3168H142.752V30.3553ZM147.866 29.2476C148.469 29.2167 149.064 29.4027 149.542 29.7718C149.962 30.1237 150.241 30.6153 150.328 31.1564H148.746C148.709 30.948 148.598 30.7601 148.433 30.6273C148.258 30.4945 148.043 30.4263 147.824 30.4344C147.669 30.4235 147.515 30.4673 147.389 30.5581C147.339 30.6013 147.3 30.6555 147.274 30.7163C147.249 30.7772 147.237 30.8432 147.241 30.9092C147.241 30.9936 147.268 31.0759 147.316 31.1448C147.365 31.2138 147.433 31.2662 147.513 31.2949C147.789 31.4099 148.076 31.4961 148.37 31.552C148.722 31.6304 149.069 31.7312 149.409 31.8537C149.681 31.9576 149.923 32.1296 150.111 32.3531C150.32 32.6165 150.425 32.9471 150.407 33.2828C150.412 33.5831 150.322 33.8773 150.15 34.1234C149.962 34.3807 149.705 34.5795 149.409 34.6971C149.044 34.8433 148.654 34.914 148.261 34.9048C147.627 34.9366 146.999 34.7632 146.471 34.4103C146.246 34.2419 146.057 34.0299 145.916 33.7869C145.775 33.5439 145.685 33.2748 145.65 32.996H147.282C147.29 33.1032 147.32 33.2075 147.373 33.3015C147.425 33.3954 147.497 33.4769 147.584 33.5399C147.784 33.6726 148.021 33.7384 148.261 33.7278C148.418 33.7391 148.573 33.6915 148.696 33.5943C148.745 33.5502 148.784 33.4959 148.81 33.4353C148.835 33.3746 148.847 33.309 148.845 33.2432C148.848 33.155 148.824 33.0679 148.775 32.9942C148.726 32.9206 148.655 32.8641 148.573 32.8328C148.286 32.7178 147.99 32.6295 147.688 32.569C147.345 32.5017 147.008 32.4092 146.679 32.2921C146.414 32.1927 146.18 32.0276 145.996 31.8125C145.793 31.5561 145.691 31.2341 145.71 30.9075C145.703 30.6771 145.751 30.4484 145.849 30.2398C145.947 30.0311 146.092 29.8483 146.273 29.7059C146.735 29.3733 147.298 29.2113 147.866 29.2476ZM154.334 29.2476C154.981 29.226 155.615 29.4345 156.124 29.8361C156.615 30.2454 156.939 30.8208 157.034 31.4531H155.244C155.203 31.236 155.088 31.04 154.917 30.8993C154.739 30.7629 154.519 30.693 154.294 30.7015C154.153 30.6989 154.014 30.7293 153.887 30.7902C153.76 30.8512 153.649 30.941 153.562 31.0526C153.352 31.3501 153.251 31.711 153.276 32.0745C153.25 32.4386 153.352 32.8001 153.562 33.0982C153.648 33.21 153.759 33.3001 153.886 33.3614C154.014 33.4227 154.153 33.4533 154.294 33.4509C154.519 33.4594 154.739 33.3895 154.917 33.2531C155.088 33.1123 155.203 32.9164 155.244 32.6993H157.034C156.938 33.331 156.615 33.9057 156.124 34.3147C155.616 34.7168 154.981 34.9259 154.334 34.9048C153.833 34.9143 153.338 34.7969 152.895 34.5636C152.478 34.338 152.136 33.9961 151.911 33.5795C151.665 33.1172 151.543 32.5995 151.555 32.0762C151.541 31.5517 151.662 31.0326 151.906 30.5679C152.13 30.152 152.473 29.8114 152.89 29.5888C153.335 29.3558 153.831 29.2384 154.334 29.2476ZM160.505 29.2476C160.888 29.237 161.265 29.3366 161.593 29.5344C161.892 29.7202 162.126 29.9928 162.266 30.3157V29.3168H163.947V34.8355H162.266V33.8366C162.126 34.1596 161.892 34.4322 161.593 34.618C161.265 34.8158 160.888 34.9154 160.505 34.9048C160.074 34.9113 159.649 34.7928 159.284 34.5636C158.913 34.3227 158.618 33.9815 158.433 33.5795C158.216 33.1086 158.11 32.5945 158.122 32.0762C158.109 31.5562 158.215 31.0403 158.433 30.5679C158.619 30.168 158.914 29.8286 159.284 29.5888C159.649 29.3595 160.074 29.241 160.505 29.2476ZM161.049 30.7311C160.886 30.7244 160.724 30.7527 160.573 30.8141C160.422 30.8756 160.286 30.9687 160.174 31.0872C159.94 31.3616 159.821 31.7161 159.843 32.0762C159.821 32.4363 159.94 32.7907 160.174 33.0652C160.286 33.1837 160.422 33.2768 160.573 33.3382C160.724 33.3997 160.886 33.428 161.049 33.4212C161.213 33.4265 161.376 33.3965 161.527 33.3334C161.678 33.2702 161.813 33.1754 161.924 33.0553C162.161 32.7858 162.284 32.4345 162.266 32.0762C162.285 31.7161 162.163 31.3627 161.924 31.0921C161.813 30.9733 161.677 30.8797 161.526 30.8174C161.375 30.7552 161.212 30.7258 161.049 30.7311ZM169.11 29.2575C169.392 29.2447 169.674 29.2949 169.935 29.4044C170.196 29.5138 170.429 29.6799 170.618 29.8905C171.014 30.3809 171.214 31.0014 171.178 31.6311V34.8355H169.487V31.8289C169.506 31.5135 169.401 31.2032 169.195 30.9635C169.096 30.8594 168.975 30.7777 168.841 30.7239C168.707 30.6702 168.563 30.6457 168.419 30.652C168.268 30.6447 168.116 30.6701 167.975 30.7264C167.835 30.7827 167.708 30.8686 167.603 30.9784C167.387 31.2382 167.279 31.571 167.301 31.9081V34.8355H165.609V29.3168H167.3V30.3256C167.453 30.0012 167.699 29.7293 168.007 29.5443C168.341 29.3476 168.723 29.2483 169.11 29.2575Z" fill="white"/>
<path d="M56.5706 13.0085C57.5272 13.181 58.3903 13.6904 59.0036 14.4446C59.6111 15.1912 59.9349 16.1287 59.9174 17.0912C59.9471 17.7174 59.8355 18.3422 59.5911 18.9195C59.3466 19.4967 58.9755 20.0116 58.5051 20.4261C57.5636 21.2411 56.1988 21.6485 54.4106 21.6485H47.2185V4.89068H54.2682C55.9605 4.89068 57.262 5.26255 58.1728 6.00629C59.0836 6.75003 59.5385 7.79399 59.5377 9.13817C59.5769 10.0627 59.2867 10.9711 58.7188 11.7017C58.1713 12.3679 57.414 12.8287 56.5706 13.0085ZM50.5653 11.9166H53.5785C54.2621 11.9651 54.9404 11.7672 55.4906 11.3588C55.7129 11.1581 55.887 10.9097 56.0001 10.6323C56.1131 10.3549 56.1621 10.0556 56.1434 9.75663C56.1616 9.45684 56.1137 9.15671 56.0029 8.87753C55.8921 8.59836 55.7213 8.34698 55.5025 8.14124C55.0752 7.76146 54.4185 7.57157 53.5324 7.57157H50.5653V11.9166ZM53.746 18.9189C54.4732 18.9667 55.1945 18.7612 55.7873 18.3373C56.0292 18.1288 56.2195 17.867 56.343 17.5725C56.4666 17.278 56.5201 16.9589 56.4994 16.6402C56.5181 16.317 56.4624 15.9938 56.3367 15.6955C56.211 15.3971 56.0185 15.1316 55.7741 14.9193C55.1827 14.4814 54.4553 14.2669 53.7209 14.314H50.5653V18.9189H53.746ZM66.801 8.33245C68.3992 8.33245 69.681 8.73597 70.6463 9.543C71.6198 10.3642 72.261 11.5117 72.4502 12.7711H69.3183C69.2164 12.1817 68.9147 11.6452 68.4638 11.252C67.9754 10.8566 67.3589 10.6539 66.7311 10.6823C66.2535 10.6526 65.7812 10.7959 65.4005 11.0859C65.2437 11.2199 65.1195 11.3879 65.0372 11.577C64.955 11.7662 64.9169 11.9716 64.9258 12.1777C64.9196 12.3432 64.9505 12.5079 65.0162 12.6599C65.0819 12.8118 65.1808 12.9472 65.3056 13.056C65.5841 13.2916 65.9069 13.4691 66.255 13.5782C66.6348 13.7048 67.1808 13.8551 67.8928 14.0292C68.7203 14.2012 69.5335 14.4353 70.3258 14.7294C70.9532 14.9757 71.5086 15.3757 71.9412 15.8925C72.4191 16.5032 72.6594 17.2663 72.6177 18.0406C72.6305 18.5676 72.5176 19.0901 72.2883 19.5648C72.059 20.0395 71.7198 20.4528 71.299 20.7703C70.4208 21.4657 69.2379 21.8134 67.7504 21.8134C66.0414 21.8134 64.6726 21.4301 63.644 20.6635C63.1266 20.2696 62.6939 19.7755 62.3717 19.2107C62.0496 18.6458 61.8445 18.0218 61.7689 17.376H64.9733C65.0011 17.6767 65.0915 17.9682 65.2387 18.2318C65.3858 18.4955 65.5865 18.7255 65.8278 18.907C66.3893 19.3005 67.0655 19.4967 67.7504 19.4648C68.2226 19.4974 68.6894 19.3489 69.0559 19.0494C69.2045 18.9126 69.3218 18.7452 69.3997 18.5588C69.4775 18.3724 69.5141 18.1713 69.5069 17.9694C69.5129 17.7959 69.481 17.6232 69.4133 17.4633C69.3457 17.3034 69.244 17.1602 69.1153 17.0437C68.8334 16.7945 68.5016 16.6084 68.1421 16.4977C67.7544 16.3712 67.2049 16.2208 66.4937 16.0468C65.6844 15.8746 64.8875 15.6486 64.1082 15.3703C63.5005 15.1419 62.9612 14.762 62.5416 14.2665C62.0774 13.6727 61.8454 12.9302 61.8889 12.1777C61.8751 11.6451 61.986 11.1167 62.2126 10.6345C62.4393 10.1523 62.7755 9.7298 63.1944 9.40059C64.0638 8.6885 65.266 8.33245 66.801 8.33245ZM81.019 8.33245C82.5493 8.27857 84.0496 8.76605 85.256 9.70916C86.4031 10.6539 87.1599 11.9899 87.3804 13.4595H83.8423C83.7275 12.8106 83.3818 12.2252 82.8692 11.8111C82.3177 11.3928 81.6381 11.1789 80.9465 11.2059C80.5271 11.1977 80.1109 11.2818 79.7275 11.452C79.344 11.6222 79.0025 11.8744 78.7272 12.1909C78.1338 12.8476 77.8371 13.8089 77.8371 15.0749C77.8371 16.3408 78.1338 17.3021 78.7272 17.9589C79.0025 18.2754 79.344 18.5276 79.7275 18.6978C80.1109 18.868 80.5271 18.952 80.9465 18.9439C81.6381 18.9709 82.3177 18.757 82.8692 18.3386C83.3818 17.9246 83.7275 17.3392 83.8423 16.6903H87.3791C87.1586 18.1599 86.4018 19.4959 85.2547 20.4406C84.0481 21.382 82.5484 21.8681 81.019 21.8134C79.8287 21.836 78.6523 21.5546 77.601 20.9958C76.6142 20.46 75.8056 19.6473 75.2748 18.6578C74.6989 17.5526 74.413 16.3194 74.4441 15.0736C74.414 13.8241 74.6998 12.5872 75.2748 11.4775C75.801 10.4846 76.6108 9.67073 77.601 9.13949C78.6545 8.58778 79.83 8.31024 81.019 8.33245ZM101.266 17.0687C101.273 17.8998 101.051 18.7167 100.625 19.4305C100.17 20.1767 99.511 20.7777 98.7263 21.1633C97.7728 21.623 96.7224 21.846 95.6644 21.8134C94.5738 21.8321 93.4911 21.626 92.4837 21.2081C91.5936 20.838 90.8193 20.2354 90.2419 19.4635C89.6741 18.6874 89.3405 17.7648 89.2806 16.805H92.841C92.9031 17.4502 93.1935 18.0521 93.66 18.5022C93.9102 18.7327 94.2038 18.9113 94.5237 19.0274C94.8436 19.1436 95.1833 19.195 95.5233 19.1786C95.8141 19.1981 96.1059 19.1588 96.3812 19.0629C96.6565 18.9671 96.9096 18.8167 97.1255 18.6208C97.3113 18.4321 97.4567 18.2073 97.5526 17.9604C97.6485 17.7134 97.693 17.4495 97.6833 17.1848C97.7008 16.7122 97.5398 16.2504 97.2323 15.8912C96.9158 15.5395 96.5272 15.2601 96.0929 15.0723C95.634 14.8665 95.0011 14.6292 94.194 14.3602C93.3153 14.0794 92.4585 13.7343 91.6305 13.3276C90.9537 12.9768 90.3715 12.4679 89.9333 11.8441C89.4371 11.0934 89.1919 10.2046 89.2331 9.30564C89.2056 8.65555 89.3321 8.00816 89.6023 7.41624C89.8725 6.82432 90.2787 6.30461 90.7879 5.89948C91.8243 5.06871 93.1971 4.65332 94.9061 4.65332C96.6784 4.65332 98.0907 5.08057 99.143 5.93508C99.6599 6.35132 100.086 6.86944 100.394 7.45723C100.702 8.04502 100.886 8.68991 100.934 9.35179H97.3259C97.2492 8.78545 96.9818 8.26216 96.5677 7.86827C96.1036 7.4614 95.4986 7.25262 94.8824 7.28673C94.3413 7.26128 93.8095 7.43432 93.387 7.77333C93.1916 7.95084 93.0388 8.17014 92.94 8.4149C92.8411 8.65965 92.7987 8.92356 92.816 9.18696C92.8008 9.63558 92.9579 10.073 93.2551 10.4094C93.5683 10.7484 93.9481 11.0192 94.3707 11.2045C94.9712 11.4667 95.5852 11.6965 96.2103 11.8929C97.1045 12.198 97.9802 12.5546 98.8332 12.961C99.5227 13.308 100.114 13.8221 100.554 14.4564C101.06 15.2298 101.309 16.143 101.266 17.0661V17.0687ZM109.645 8.33245C111.175 8.27857 112.676 8.76605 113.882 9.70916C115.029 10.6539 115.786 11.9899 116.006 13.4595H112.47C112.355 12.8106 112.009 12.2252 111.496 11.8111C110.945 11.3928 110.265 11.1789 109.574 11.2059C109.154 11.1977 108.738 11.2818 108.355 11.452C107.971 11.6222 107.63 11.8744 107.354 12.1909C106.761 12.8476 106.464 13.8089 106.464 15.0749C106.464 16.3408 106.761 17.3021 107.354 17.9589C107.63 18.2754 107.971 18.5276 108.355 18.6978C108.738 18.868 109.154 18.952 109.574 18.9439C110.265 18.9709 110.945 18.757 111.496 18.3386C112.009 17.9246 112.355 17.3392 112.47 16.6903H116.006C115.785 18.159 115.029 19.4939 113.882 20.438C112.675 21.3806 111.175 21.8676 109.645 21.8134C108.455 21.836 107.278 21.5546 106.227 20.9958C105.24 20.46 104.432 19.6473 103.901 18.6578C103.325 17.5526 103.039 16.3194 103.07 15.0736C103.04 13.8241 103.326 12.5872 103.901 11.4775C104.427 10.4846 105.237 9.67073 106.227 9.13949C107.281 8.58778 108.456 8.31024 109.645 8.33245ZM123.531 8.33245C124.537 8.30402 125.529 8.57678 126.379 9.11575C127.155 9.61869 127.746 10.3601 128.064 11.2283V8.49861H131.388V21.6485H128.064V18.8951C127.745 19.7655 127.154 20.5101 126.379 21.0195C125.532 21.5654 124.539 21.8421 123.531 21.8134C122.478 21.8283 121.442 21.5488 120.54 21.0063C119.634 20.4465 118.912 19.6337 118.463 18.6683C117.942 17.5426 117.686 16.3123 117.715 15.0723C117.686 13.8322 117.942 12.6019 118.463 11.4762C118.912 10.5108 119.634 9.69798 120.54 9.13817C121.442 8.59617 122.478 8.31711 123.531 8.33245ZM124.575 11.252C124.107 11.2324 123.64 11.3135 123.206 11.4898C122.772 11.6661 122.381 11.9335 122.059 12.274C121.426 12.9553 121.11 13.8894 121.11 15.0762C121.11 16.263 121.426 17.1927 122.059 17.8652C122.383 18.2023 122.775 18.4666 123.209 18.6405C123.642 18.8145 124.108 18.894 124.575 18.874C125.042 18.8883 125.507 18.8038 125.938 18.6258C126.37 18.4479 126.76 18.1806 127.081 17.8415C127.762 17.0866 128.117 16.0921 128.066 15.0762C128.119 14.0528 127.765 13.0499 127.081 12.2872C126.76 11.9476 126.371 11.6799 125.939 11.5014C125.507 11.323 125.042 11.238 124.575 11.252ZM142.259 8.30871C142.936 8.27836 143.613 8.39647 144.24 8.65477C144.867 8.91307 145.431 9.30533 145.89 9.8041C146.792 10.801 147.242 12.2015 147.242 14.0054V21.6485H143.919V14.3852C143.919 13.3408 143.65 12.5298 143.112 11.9522C142.827 11.6586 142.482 11.4294 142.101 11.2799C141.72 11.1305 141.312 11.0643 140.903 11.0859C140.479 11.0673 140.056 11.1403 139.663 11.3001C139.27 11.4598 138.915 11.7025 138.624 12.0116C138.055 12.6287 137.77 13.5149 137.77 14.6701V21.6485H134.426V8.49861H137.773V11.132C138.102 10.2689 138.707 9.53879 139.493 9.05509C140.326 8.54781 141.286 8.28886 142.26 8.30871H142.259Z" fill="white"/>
</g>
<defs>
<clipPath id="clip0_1358_90010">
<rect width="171.177" height="40" fill="white"/>
</clipPath>
</defs>
</svg>
