<svg width="251" height="44" viewBox="0 0 251 44" fill="none" xmlns="http://www.w3.org/2000/svg">
<path d="M36.8417 25.9179C36.0916 26.3799 35.2164 26.4639 34.5495 26.0859C33.716 25.5818 33.2159 24.4476 33.2159 22.8934V18.1467C33.2159 15.8784 32.3407 14.2401 30.8404 13.82C28.2981 13.0639 26.381 16.2144 25.6725 17.3906L21.1715 24.6577V15.7103C21.1298 13.652 20.463 12.4339 19.2127 12.0558C18.3792 11.8038 17.1289 11.9298 15.9203 13.7781L5.87634 29.9925C4.5427 27.4301 3.83421 24.5737 3.83421 21.6752C3.83421 11.8878 11.6277 3.94858 21.1715 3.94858C30.7153 3.94858 38.5088 11.8878 38.5088 21.6752V21.7172V21.7592C38.5921 23.6495 38.0087 25.1617 36.8417 25.9179ZM42.343 21.6752V21.6332V21.5912C42.3013 9.70344 32.7991 0 21.1715 0C9.50217 0 0 9.70344 0 21.6752C0 33.605 9.50217 43.3504 21.1715 43.3504C26.5477 43.3504 31.6322 41.2921 35.5498 37.5536C36.3416 36.7975 36.3833 35.5793 35.6331 34.7812C34.9246 33.9831 33.716 33.941 32.9242 34.6551C32.9242 34.6551 32.9242 34.6551 32.8825 34.6972C29.7151 37.7216 25.4641 39.4439 21.0881 39.4439C15.962 39.4439 11.3776 37.1755 8.21021 33.563L17.2539 18.9448V25.7078C17.2539 28.9423 18.5042 29.9925 19.5461 30.2865C20.588 30.5805 22.1717 30.3705 23.8804 27.6401L28.8399 19.5329C29.0066 19.2809 29.1316 19.0288 29.2983 18.8608V22.9774C29.2983 26.0019 30.507 28.4382 32.5908 29.6144C34.4662 30.7066 36.8417 30.5805 38.8005 29.3624C41.2177 27.7661 42.5097 24.9937 42.343 21.6752ZM71.8497 14.2821C72.3498 14.5762 72.8083 15.2903 72.8083 15.9204C72.8083 16.9285 71.9747 17.7686 71.0162 17.7686C70.7661 17.7686 70.5578 17.6846 70.3494 17.6426C69.2241 16.8025 67.8071 16.2564 66.3068 16.2564C62.7643 16.2564 60.3471 19.1548 60.3471 22.7674C60.3471 26.3799 62.806 29.2363 66.3068 29.2363C68.0572 29.2363 69.6409 28.5222 70.8078 27.3881C71.0995 27.178 71.4746 27.052 71.8497 27.052C72.8083 27.052 73.5584 27.8081 73.5584 28.7743C73.5584 29.4044 73.1834 29.9504 72.7249 30.2445C71.0162 31.7147 68.724 32.6809 66.3485 32.6809C60.9306 32.6809 56.5129 28.1862 56.5129 22.6414C56.5129 17.0965 60.9306 12.6019 66.3485 12.6019C68.3489 12.5599 70.266 13.19 71.8497 14.2821ZM81.7686 18.4827C85.4778 18.4827 88.5619 21.6332 88.5619 25.5398C88.5619 29.4044 85.4361 32.7229 81.7686 32.7229C77.8928 32.7229 74.6837 29.4464 74.6837 25.5398C74.6837 21.6332 77.8928 18.4827 81.7686 18.4827ZM81.727 29.2363C83.3523 29.2363 84.7277 27.6821 84.7277 25.5818C84.7277 23.4815 83.3523 22.1373 81.727 22.1373C79.9766 22.1373 78.5179 23.4395 78.5179 25.5818C78.5179 27.6401 79.9766 29.2363 81.727 29.2363ZM90.8957 30.5385V20.6251C90.8957 19.5329 91.7292 18.6508 92.8128 18.6508C93.8547 18.6508 94.7299 19.5329 94.7299 20.6251V30.5385C94.7299 31.6307 93.8547 32.5128 92.8128 32.5128C91.7709 32.5128 90.8957 31.5887 90.8957 30.5385ZM90.604 14.9122C90.604 13.61 91.6042 12.6019 92.8128 12.6019C94.0631 12.6019 95.0633 13.652 95.0633 14.9122C95.0633 16.1724 94.0631 17.1805 92.8128 17.1805C91.5625 17.1385 90.604 16.1304 90.604 14.9122ZM102.065 25.1617V30.5385C102.065 31.6307 101.19 32.5128 100.148 32.5128C99.1059 32.5128 98.2307 31.6307 98.2307 30.5385V20.163C98.2307 19.3229 98.8976 18.6508 99.7311 18.6508C100.565 18.6508 101.19 19.3649 101.19 20.163C102.732 18.6928 104.107 18.4827 105.399 18.4827C109.233 18.4827 110.942 21.3812 110.942 24.6997V30.5385C110.942 31.6307 110.067 32.5128 109.025 32.5128C107.983 32.5128 107.108 31.6307 107.108 30.5385V25.1617C107.108 23.4815 106.899 22.0533 104.482 22.0533C102.773 22.0533 102.065 23.4815 102.065 25.1617ZM123.361 27.22C122.903 27.22 122.611 27.01 122.361 26.716L117.902 21.8432V30.5385C117.902 31.6307 117.027 32.5128 115.985 32.5128C114.943 32.5128 114.068 31.6307 114.068 30.5385V13.316C114.193 13.0219 114.484 12.8119 114.776 12.8119C115.11 12.8119 115.401 13.106 115.61 13.316L122.736 21.3812C122.945 21.6332 123.195 21.7592 123.361 21.7592C123.486 21.7592 123.778 21.6332 123.987 21.3812L131.113 13.316C131.322 13.106 131.572 12.8119 131.947 12.8119C132.28 12.8119 132.572 13.0219 132.655 13.316V30.5385C132.655 31.6307 131.822 32.5128 130.738 32.5128C129.696 32.5128 128.821 31.6307 128.821 30.5385V21.8432L124.362 26.716C124.028 27.01 123.737 27.22 123.361 27.22ZM141.782 29.2363C143.491 29.2363 144.95 27.6821 144.95 25.5818C144.95 23.4815 143.449 22.0953 141.782 22.0953C140.115 22.0953 138.74 23.5235 138.74 25.5818C138.74 27.5981 140.074 29.2363 141.782 29.2363ZM145.867 31.0006L145.783 30.5385C145.033 32.0088 142.658 32.6809 141.157 32.6809C137.573 32.6809 134.906 29.4044 134.906 25.4978C134.906 21.6332 137.615 18.4407 141.366 18.4407C141.991 18.4407 144.158 18.6088 145.825 20.5831L145.908 20.121C145.908 19.2809 146.533 18.6088 147.367 18.6088C148.2 18.6088 148.867 19.3229 148.867 20.121V30.9586C148.867 31.7987 148.2 32.4708 147.367 32.4708C146.492 32.5128 145.867 31.7987 145.867 31.0006ZM159.411 22.0533H158.995C156.577 22.1793 156.119 23.5655 156.119 25.1617V30.5385C156.119 31.6307 155.244 32.5128 154.202 32.5128C153.16 32.5128 152.285 31.6307 152.285 30.5385V20.163C152.285 19.3229 152.952 18.6508 153.785 18.6508C154.619 18.6508 155.244 19.3649 155.244 20.163C156.661 18.8188 157.828 18.5247 158.995 18.4827H159.37C160.287 18.4827 161.12 19.2809 161.12 20.289C161.162 21.2132 160.328 22.0533 159.411 22.0533ZM174.206 29.6144C174.373 29.9084 174.498 30.2025 174.498 30.5385C174.498 31.5467 173.581 32.4708 172.581 32.4708C171.914 32.4708 171.331 31.9668 170.872 31.3787L166.455 26.2119V30.4965C166.455 31.5887 165.579 32.4708 164.538 32.4708C163.496 32.4708 162.62 31.5887 162.62 30.4965V14.7442C162.62 13.652 163.454 12.7699 164.538 12.7699C165.621 12.7699 166.455 13.652 166.455 14.7442V24.5736L170.872 19.6589C171.331 19.1549 171.873 18.6088 172.539 18.6088C173.498 18.6088 174.373 19.4909 174.373 20.4991C174.373 20.7931 174.29 21.1291 174.123 21.3812L170.622 25.2458L174.206 29.6144ZM181.708 22.0953C180.666 22.0953 178.957 22.6414 178.957 24.2796H184.5C184.459 22.6414 182.708 22.0953 181.708 22.0953ZM186.709 26.758H178.957C178.957 29.0683 181.166 29.4464 182.125 29.4464C182.833 29.4464 183.834 29.3204 184.625 28.9423C184.875 28.7743 185.251 28.6483 185.626 28.6483C186.459 28.6483 187.168 29.3624 187.168 30.2445C187.168 30.8326 186.793 31.3367 186.334 31.6307C185.167 32.5128 183.625 32.7229 182.167 32.7229C178.291 32.7229 175.082 30.6226 175.082 25.7078C175.082 21.8432 177.04 18.4827 181.625 18.4827C185.334 18.4827 188.126 20.9191 188.21 25.2458C188.21 26.0439 187.543 26.758 186.709 26.758ZM197.378 32.6809H196.336C193.419 32.6809 191.71 31.3787 191.71 26.8V22.0533H190.71C189.793 22.0533 189.001 21.2132 189.001 20.289C189.001 19.2809 189.835 18.4827 190.71 18.4827H191.71V14.8282C191.71 13.736 192.544 12.8539 193.627 12.8539C194.669 12.8539 195.545 13.736 195.545 14.8282V18.4827H197.128C198.045 18.4827 198.837 19.2809 198.837 20.289C198.837 21.2132 198.003 22.0533 197.128 22.0533H195.545V26.0439C195.545 28.6903 195.67 29.2363 196.837 29.2363H197.378C198.295 29.2363 199.087 29.9925 199.087 30.9586C199.087 31.8827 198.295 32.6809 197.378 32.6809ZM215.924 14.2821C216.424 14.5762 216.883 15.2903 216.883 15.9204C216.883 16.9285 216.049 17.7686 215.091 17.7686C214.841 17.7686 214.632 17.6846 214.424 17.6426C213.299 16.8025 211.882 16.2564 210.381 16.2564C206.839 16.2564 204.422 19.1548 204.422 22.7674C204.422 26.3799 206.881 29.2363 210.381 29.2363C212.132 29.2363 213.715 28.5222 214.882 27.3881C215.174 27.178 215.549 27.052 215.924 27.052C216.883 27.052 217.633 27.8081 217.633 28.7743C217.633 29.4044 217.258 29.9504 216.799 30.2445C215.091 31.7147 212.799 32.6809 210.423 32.6809C205.005 32.6809 200.587 28.1862 200.587 22.6414C200.587 17.0965 205.005 12.6019 210.423 12.6019C212.423 12.5599 214.382 13.19 215.924 14.2821ZM225.635 29.2363C227.343 29.2363 228.802 27.6821 228.802 25.5818C228.802 23.4815 227.302 22.0953 225.635 22.0953C223.926 22.0953 222.592 23.5235 222.592 25.5818C222.592 27.5981 223.968 29.2363 225.635 29.2363ZM229.719 31.0006L229.636 30.5385C228.886 32.0088 226.51 32.6809 225.01 32.6809C221.425 32.6809 218.758 29.4044 218.758 25.4978C218.758 21.6332 221.467 18.4407 225.218 18.4407C225.843 18.4407 228.01 18.6088 229.677 20.5831L229.761 20.121C229.761 19.2809 230.386 18.6088 231.219 18.6088C232.053 18.6088 232.72 19.3229 232.72 20.121V30.9586C232.72 31.7987 232.053 32.4708 231.219 32.4708C230.344 32.5128 229.719 31.7987 229.719 31.0006ZM243.18 29.2363C244.889 29.2363 246.223 27.5981 246.223 25.5818C246.223 23.4815 244.848 22.0953 243.18 22.0953C241.472 22.0953 240.013 23.4815 240.013 25.5818C240.013 27.6821 241.472 29.2363 243.18 29.2363ZM240.013 31.5467V36.4614C240.013 37.5536 239.138 38.4357 238.096 38.4357C237.054 38.4357 236.179 37.5536 236.179 36.4614V20.163C236.179 19.3229 236.846 18.6508 237.679 18.6508C238.513 18.6508 239.138 19.3649 239.138 20.331C240.555 18.8608 242.305 18.4827 243.639 18.4827C247.348 18.4827 250.099 21.6332 250.099 25.5398C250.099 29.4044 247.473 32.7229 243.847 32.7229C242.722 32.6809 241.055 32.3448 240.013 31.5467Z" fill="white"/>
</svg>
