<svg width="213" height="56" viewBox="0 0 213 56" fill="none" xmlns="http://www.w3.org/2000/svg">
<path d="M87.9203 21.9867C87.3549 19.728 85.9059 18.1046 83.0434 18.1046C78.8379 18.1046 77.1062 21.8102 77.1062 25.5511C77.1062 29.292 78.8732 32.9977 83.0434 32.9977C86.0826 32.9977 87.7436 30.739 88.0263 27.8804H91.3837C91.1009 32.5742 87.779 35.7857 83.0434 35.7857C77.1769 35.7857 73.6782 31.1272 73.6782 25.5511C73.6782 19.9751 77.1769 15.3166 83.0434 15.3166C87.4609 15.3519 90.9242 17.787 91.3483 21.9867H87.9203ZM93.4334 28.2333C93.4334 23.8924 96.0486 20.7868 100.572 20.7868C105.096 20.7868 107.711 23.8924 107.711 28.2333C107.711 32.5742 105.096 35.7151 100.572 35.7151C96.0486 35.7151 93.4334 32.5742 93.4334 28.2333ZM104.601 28.2333C104.601 25.7982 103.364 23.2572 100.572 23.2572C97.7802 23.2572 96.5433 25.7982 96.5433 28.2333C96.5433 30.6684 97.7802 33.2447 100.572 33.2447C103.364 33.2447 104.601 30.7037 104.601 28.2333ZM110.397 15.7754H113.507V18.7399H110.397V15.7754ZM110.397 21.175H113.507V35.3269H110.397V21.175ZM116.935 21.175H119.903V23.2572L119.974 23.3278C120.893 21.7749 122.554 20.7868 124.391 20.8221C127.466 20.8221 129.41 22.4808 129.41 25.6217V35.3269H126.3V26.4334C126.229 24.21 125.381 23.2572 123.543 23.2572C121.458 23.2572 120.115 24.8806 120.115 26.9628V35.3269H117.005V21.175H116.935ZM150.19 35.3269H147.999L147.469 33.0329C145.631 35.1151 143.97 35.7857 141.567 35.7857C135.7 35.7857 132.202 31.1272 132.202 25.5511C132.202 19.9751 135.7 15.3166 141.567 15.3166C145.843 15.3166 149.448 17.5752 149.942 21.9867H146.585C146.267 19.4104 144.005 18.1046 141.531 18.1046C137.326 18.1046 135.594 21.8102 135.594 25.5511C135.594 29.292 137.361 32.9977 141.531 32.9977C145.03 33.0682 146.974 30.9507 147.009 27.6333H141.814V25.0218H150.154L150.19 35.3269ZM155.915 29.045C155.915 31.2684 157.116 33.2447 159.732 33.2447C161.534 33.2447 162.629 32.4683 163.195 30.8802H166.164C165.492 33.9858 162.842 35.7151 159.732 35.7151C155.279 35.7151 152.805 32.6094 152.805 28.2686C152.805 24.2453 155.455 20.7868 159.661 20.7868C164.114 20.7868 166.87 24.81 166.34 29.045H155.915ZM163.195 26.9981C163.089 25.0218 161.746 23.2572 159.626 23.2572C157.47 23.2572 155.986 24.8806 155.88 26.9981H163.195ZM178.285 25.904C178.038 24.1748 176.766 23.2572 175.034 23.2572C173.408 23.2572 171.146 24.1042 171.146 28.4097C171.146 30.7743 172.171 33.2447 174.893 33.2447C176.695 33.2447 177.967 32.0448 178.25 29.9979H181.36C180.794 33.6682 178.533 35.6798 174.857 35.6798C170.404 35.6798 167.966 32.5389 167.966 28.3745C167.966 24.1042 170.298 20.7515 174.963 20.7515C178.25 20.7515 181.042 22.4102 181.36 25.8688H178.285V25.904ZM184.046 15.7754H187.156V26.8922L192.81 21.175H196.662L191.22 26.3628L197.157 35.3269H193.34L188.993 28.445L187.12 30.2449V35.3269H184.01V15.7754H184.046ZM198.005 28.2333C198.005 23.8924 200.62 20.7868 205.144 20.7868C209.703 20.7868 212.282 23.8924 212.282 28.2333C212.282 32.5742 209.667 35.7151 205.144 35.7151C200.62 35.7151 198.005 32.5742 198.005 28.2333ZM209.208 28.2333C209.208 25.7982 207.971 23.2572 205.179 23.2572C202.387 23.2572 201.15 25.7982 201.15 28.2333C201.15 30.6684 202.387 33.2447 205.179 33.2447C207.971 33.2447 209.208 30.7037 209.208 28.2333Z" fill="white"/>
<path d="M56.3263 27.8804C56.3617 39.209 49.6117 49.4436 39.151 53.8197C28.6903 58.1959 16.6393 55.8666 8.58172 47.8907C0.524159 39.9148 -1.91432 27.8804 2.36185 17.3988C6.63801 6.91723 16.8513 0.0706579 28.1602 7.4797e-05C43.6745 -0.0352168 56.2556 12.4227 56.3263 27.8804Z" fill="#8DC63F"/>
<path d="M54.2412 27.8803C54.2766 38.3619 48.0214 47.8201 38.3382 51.8786C28.6549 55.9371 17.5228 53.7491 10.066 46.4084C2.60923 39.0325 0.347457 27.9156 4.30556 18.2458C8.26366 8.54058 17.6995 2.22339 28.1602 2.1528C42.5083 2.08222 54.1706 13.5873 54.2412 27.8803Z" fill="#F9E988"/>
<path d="M28.7961 3.81154C30.4571 3.52921 32.1181 3.52921 33.7791 3.81154C35.4401 4.05858 37.0657 4.62325 38.55 5.39966C40.0343 6.21137 41.3066 7.30541 42.5788 8.32886C43.8511 9.35232 45.1233 10.4111 46.3249 11.5757C47.5618 12.705 48.622 14.0108 49.5055 15.4225C50.4243 16.8341 51.1665 18.3517 51.7319 19.9045C52.8275 23.0807 53.1809 26.504 52.6508 29.7508H52.4741C51.944 26.504 51.2018 23.4336 50.0356 20.5044C49.5055 19.0222 48.834 17.5752 48.1272 16.1989C47.3497 14.8225 46.5369 13.4461 45.6181 12.1756C44.6992 10.8699 43.533 9.70524 42.2254 8.75237C40.9178 7.79949 39.3982 7.19954 37.9493 6.63487C36.5003 6.07021 35.016 5.47025 33.4964 5.01146C31.9768 4.58796 30.4218 4.23504 28.7961 3.91742V3.81154Z" fill="white"/>
<path d="M41.448 18.7398C39.575 18.2105 37.6313 17.4341 35.6522 16.6576C35.5462 16.1636 35.0868 15.5636 34.2033 14.7872C32.931 13.6579 30.4926 13.6932 28.4075 14.1872C26.1104 13.6579 23.8133 13.4461 21.6222 13.9755C3.70469 18.9163 13.8473 30.9154 7.27405 43.0204C8.19289 44.9968 18.3002 56.5724 32.8957 53.4667C32.8957 53.4667 27.9127 41.5029 39.1862 35.7504C48.3394 31.0919 54.9126 22.4102 41.448 18.7398Z" fill="#8BC53F"/>
<path d="M28.4075 14.1873C29.7151 14.2932 34.4506 15.8107 35.6522 16.6577C34.6273 13.7285 31.2347 13.3403 28.4075 14.1873Z" fill="#009345"/>
<path d="M43.6744 26.6098C43.6744 27.5627 42.5082 28.0568 41.8367 27.3862C41.1653 26.7157 41.6247 25.5511 42.5789 25.5158C43.1797 25.5511 43.6744 26.0099 43.6744 26.6098ZM29.6444 21.6337C29.6444 23.6453 28.4075 25.4805 26.5344 26.2569C24.6614 27.0333 22.5056 26.6098 21.0567 25.1629C19.6078 23.7159 19.1837 21.5631 19.9612 19.6927C20.7386 17.8222 22.5763 16.587 24.5907 16.587C25.9336 16.587 27.2059 17.1164 28.1247 18.034C29.1143 19.0221 29.6444 20.2926 29.6444 21.6337Z" fill="white"/>
<path d="M28.1601 21.669C28.1601 23.0807 27.3119 24.3865 25.969 24.9159C24.6614 25.4452 23.1418 25.1629 22.1169 24.1394C21.092 23.116 20.8093 21.6337 21.3394 20.2927C21.8695 18.9869 23.1771 18.1046 24.5907 18.1046C26.5698 18.1399 28.1601 19.728 28.1601 21.669Z" fill="#58595B"/>
<path d="M47.7386 28.8332C43.6745 31.6918 39.0449 33.8446 32.507 33.8446C29.4324 33.8446 28.8316 30.5978 26.7818 32.1859C25.7216 32.9976 22.0463 34.8328 19.113 34.7269C16.1798 34.5857 11.4442 32.8564 10.1366 26.6451C9.60651 32.8917 9.35913 37.4796 6.99133 42.7381C11.6562 50.2199 22.7884 55.9724 32.8957 53.502C31.8002 45.9143 38.4441 38.5031 42.1548 34.7269C43.6038 33.2446 46.325 30.9154 47.7386 28.8332Z" fill="#8BC53F"/>
<path d="M47.562 29.0097C46.2898 30.1744 44.8055 31.0214 43.2859 31.7625C41.7309 32.5036 40.1406 33.0683 38.4796 33.5271C36.8186 33.9506 35.0869 34.2682 33.3553 34.127C31.5883 33.9858 29.8213 33.3859 28.655 32.0801L28.7257 32.0095C30.1393 32.9271 31.8003 33.2447 33.426 33.3153C35.0869 33.3506 36.7479 33.2447 38.3736 32.9271C39.9992 32.5742 41.6249 32.0801 43.1798 31.4449C44.7348 30.8096 46.2544 30.0685 47.5974 29.0097H47.562Z" fill="#58595B"/>
</svg>
