<svg width="500" height="500" viewBox="0 0 500 500" fill="none" xmlns="http://www.w3.org/2000/svg">
<path d="M0 382.4H500V382.65H0V382.4Z" fill="#00604E"/>
<path d="M414.42 391.92H447.54V392.17H414.42V391.92Z" fill="#00604E"/>
<path d="M320.17 389.21H328.86V389.46H320.17V389.21Z" fill="#00604E"/>
<path d="M394.23 401.21H413.42V401.46H394.23V401.21Z" fill="#00604E"/>
<path d="M50.1 399.53H93.29V399.78H50.1V399.53Z" fill="#00604E"/>
<path d="M102.2 399.53H108.53V399.78H102.2V399.53Z" fill="#00604E"/>
<path d="M129.11 395.31H222.79V395.56H129.11V395.31Z" fill="#00604E"/>
<path d="M250 427.56C142.918 427.56 56.1101 422.492 56.1101 416.24C56.1101 409.988 142.918 404.92 250 404.92C357.083 404.92 443.89 409.988 443.89 416.24C443.89 422.492 357.083 427.56 250 427.56Z" fill="#01F0C4" fill-opacity="0.1"/>
<path d="M157.37 417.35C147.39 417.35 139.3 416.853 139.3 416.24C139.3 415.627 147.39 415.13 157.37 415.13C167.35 415.13 175.44 415.627 175.44 416.24C175.44 416.853 167.35 417.35 157.37 417.35Z" fill="#00604E"/>
<path d="M280.12 389.99H122.15C106.774 389.99 94.3101 377.526 94.3101 362.15L94.3101 272.87C94.3101 257.495 106.774 245.03 122.15 245.03L280.12 245.03C295.496 245.03 307.96 257.495 307.96 272.87V362.15C307.96 377.526 295.496 389.99 280.12 389.99Z" fill="#263238"/>
<path d="M149.7 416.24H164.65L195.03 344.26H172.15L149.7 416.24Z" fill="#263238"/>
<path d="M89.8101 310.17H90.8101V317.51H89.8101V310.17Z" fill="#01C09D"/>
<path opacity="0.2" d="M89.8101 310.17H90.8101V317.51H89.8101V310.17Z" fill="black"/>
<path d="M89.8101 278.88H90.8101V305.16H89.8101V278.88Z" fill="#01C09D"/>
<path opacity="0.2" d="M89.8101 278.88H90.8101V305.16H89.8101V278.88Z" fill="black"/>
<path d="M216.86 240.53H230.42V241.53H216.86V240.53Z" fill="#01C09D"/>
<path opacity="0.2" d="M216.86 240.53H230.42V241.53H216.86V240.53Z" fill="black"/>
<path d="M108.56 344.26L149.73 416.24L180.11 344.26H108.56Z" fill="#01C09D"/>
<path opacity="0.2" d="M108.551 344.26L149.721 416.24L180.101 344.26H108.551Z" fill="black"/>
<path d="M267.55 389.99H122.15C106.774 389.99 94.3101 377.526 94.3101 362.15L94.3101 272.87C94.3101 257.495 106.774 245.03 122.15 245.03L267.55 245.03C282.926 245.03 295.39 257.495 295.39 272.87V362.15C295.39 377.526 282.926 389.99 267.55 389.99Z" fill="#01C09D"/>
<path opacity="0.2" d="M267.55 389.99H122.15C106.774 389.99 94.3101 377.526 94.3101 362.15L94.3101 272.87C94.3101 257.495 106.774 245.03 122.15 245.03L267.55 245.03C282.926 245.03 295.39 257.495 295.39 272.87V362.15C295.39 377.526 282.926 389.99 267.55 389.99Z" fill="black"/>
<path opacity="0.7" d="M217.25 389.99H243.85L215.71 245.03H189.1L217.25 389.99Z" fill="#01C09D"/>
<path opacity="0.7" d="M193.22 389.99H208.35L180.2 245.03H165.08L193.22 389.99Z" fill="#01C09D"/>
<path d="M130.38 291.8H204.3C206.298 291.728 208.19 290.884 209.578 289.445C210.966 288.006 211.742 286.085 211.742 284.085C211.742 282.086 210.966 280.164 209.578 278.725C208.19 277.287 206.298 276.442 204.3 276.37H130.38C129.343 276.333 128.31 276.505 127.341 276.876C126.373 277.247 125.489 277.809 124.742 278.529C123.996 279.249 123.402 280.112 122.997 281.067C122.591 282.021 122.382 283.048 122.382 284.085C122.382 285.122 122.591 286.149 122.997 287.104C123.402 288.058 123.996 288.921 124.742 289.641C125.489 290.362 126.373 290.924 127.341 291.295C128.31 291.666 129.343 291.838 130.38 291.8Z" fill="white"/>
<path d="M229.63 291.8H263.11C265.108 291.728 267 290.884 268.388 289.445C269.777 288.006 270.552 286.085 270.552 284.085C270.552 282.086 269.777 280.164 268.388 278.725C267 277.287 265.108 276.442 263.11 276.37H229.63C228.594 276.333 227.56 276.505 226.592 276.876C225.623 277.247 224.739 277.809 223.993 278.529C223.246 279.249 222.652 280.112 222.247 281.067C221.841 282.021 221.632 283.048 221.632 284.085C221.632 285.122 221.841 286.149 222.247 287.104C222.652 288.058 223.246 288.921 223.993 289.641C224.739 290.362 225.623 290.924 226.592 291.295C227.56 291.666 228.594 291.838 229.63 291.8Z" fill="white"/>
<path d="M130.38 324.32H255.26C257.258 324.248 259.15 323.404 260.538 321.965C261.926 320.526 262.702 318.605 262.702 316.605C262.702 314.606 261.926 312.684 260.538 311.245C259.15 309.806 257.258 308.962 255.26 308.89H130.38C129.343 308.853 128.31 309.025 127.341 309.396C126.373 309.767 125.489 310.329 124.742 311.049C123.996 311.769 123.402 312.632 122.997 313.587C122.591 314.542 122.382 315.568 122.382 316.605C122.382 317.642 122.591 318.669 122.997 319.624C123.402 320.578 123.996 321.441 124.742 322.161C125.489 322.882 126.373 323.444 127.341 323.815C128.31 324.186 129.343 324.358 130.38 324.32Z" fill="white"/>
<path d="M130.38 356.83H188.23C190.228 356.758 192.12 355.914 193.509 354.475C194.897 353.036 195.672 351.114 195.672 349.115C195.672 347.116 194.897 345.194 193.509 343.755C192.12 342.316 190.228 341.472 188.23 341.4H130.38C129.344 341.363 128.31 341.535 127.342 341.906C126.373 342.276 125.489 342.839 124.743 343.559C123.996 344.279 123.402 345.142 122.997 346.097C122.591 347.051 122.382 348.078 122.382 349.115C122.382 350.152 122.591 351.179 122.997 352.133C123.402 353.088 123.996 353.951 124.743 354.671C125.489 355.391 126.373 355.954 127.342 356.325C128.31 356.695 129.344 356.867 130.38 356.83Z" fill="white"/>
<path opacity="0.1" d="M259.28 245C259.28 245 270.34 304.8 270.34 330.06C270.34 355.97 261.2 389.96 261.2 389.96H290.41L292.34 357.15C294.159 326.466 291.121 295.687 283.34 265.95L277.86 244.95L259.28 245Z" fill="black"/>
<path d="M274.51 416.24C274.51 417.42 290.91 418.38 311.14 418.38C331.37 418.38 347.77 417.38 347.77 416.24C347.77 415.1 331.37 414.1 311.14 414.1C290.91 414.1 274.51 415.06 274.51 416.24Z" fill="#00604E"/>
<path d="M287.07 167.73C290.17 168.22 293.07 168.47 296.07 168.73C299.07 168.99 302.07 168.98 305.07 168.96C311.179 168.959 317.268 168.288 323.23 166.96C325.125 166.443 326.896 165.553 328.44 164.34C329.739 163.341 330.962 162.248 332.1 161.07C334.201 158.856 336.139 156.493 337.9 154C341.349 149.176 344.421 144.095 347.09 138.8L343.34 136.55C341.66 138.82 339.93 141.13 338.15 143.34C336.37 145.55 334.6 147.77 332.72 149.86C330.92 151.924 328.997 153.878 326.96 155.71C326.02 156.554 325.017 157.327 323.96 158.02C323.192 158.564 322.331 158.963 321.42 159.2C318.752 159.647 316.061 159.951 313.36 160.11C310.61 160.23 307.84 160.3 305.05 160.26C302.26 160.22 299.46 160.07 296.67 159.87C293.88 159.67 291.03 159.38 288.4 159.06L287.07 167.73Z" fill="#FFA89C"/>
<path d="M278.07 159.61C285.68 155 296 158.35 296 158.35L290.78 176.35C290.78 176.35 282.54 174.03 279.31 170.52C275.93 166.89 273.48 162.38 278.07 159.61Z" fill="#263238"/>
<path d="M342.7 138.42L340.86 132.22L349.57 133.3C349.004 135.762 347.923 138.075 346.4 140.09L342.7 138.42Z" fill="#FFA89C"/>
<path d="M341.49 124.99L348.74 126.29L349.57 133.3L340.86 132.22L341.49 124.99Z" fill="#FFA89C"/>
<path d="M242.54 102.75C234.84 102.91 237 109.34 237 109.34C237 109.34 228.61 104.04 225.94 110.23C223.27 116.42 229.29 118.38 232.81 119.31C230.6 120.58 230.48 124.7 233.58 126.05C236.68 127.4 241.87 123.69 245.79 123.74L249.65 119.17C244.41 115.77 250.25 102.59 242.54 102.75Z" fill="#263238"/>
<path d="M243.74 126.92C240.38 127.51 237.94 127.09 238.6 123.38C239.021 121.32 239.954 119.4 241.314 117.797C242.674 116.194 244.417 114.96 246.38 114.21C250.62 112.65 251.57 119.65 251.57 119.65L243.74 126.92Z" fill="#01C09D"/>
<path d="M342 386.07L350.58 385.08L348.87 365.16L340.29 366.14L342 386.07Z" fill="#FFA89C"/>
<path d="M285.17 409.42L293.79 409.03L295.65 388.93L287.02 389.33L285.17 409.42Z" fill="#FFA89C"/>
<path d="M294.12 406.42H284.42C284.253 406.418 284.091 406.477 283.964 406.585C283.838 406.694 283.754 406.845 283.73 407.01L282.63 414.69C282.609 414.883 282.629 415.079 282.689 415.264C282.749 415.449 282.847 415.62 282.977 415.764C283.108 415.909 283.267 416.024 283.445 416.103C283.623 416.181 283.816 416.221 284.01 416.22C287.39 416.16 289.01 415.97 293.29 415.97C295.91 415.97 299.75 416.24 303.37 416.24C306.99 416.24 307.18 412.66 305.68 412.33C298.91 410.88 297.84 408.87 295.56 406.96C295.16 406.614 294.649 406.423 294.12 406.42Z" fill="#263238"/>
<path d="M350.87 381.94L341.24 380.8C341.073 380.778 340.903 380.817 340.763 380.911C340.623 381.005 340.523 381.147 340.48 381.31L338.48 388.8C338.438 388.99 338.437 389.187 338.476 389.378C338.515 389.568 338.593 389.749 338.706 389.907C338.82 390.065 338.965 390.198 339.132 390.297C339.3 390.396 339.487 390.458 339.68 390.48C343.04 390.82 344.68 390.82 348.92 391.32C351.52 391.63 356.92 392.54 360.48 392.96C364.04 393.38 364.69 389.85 363.23 389.35C356.68 387.11 354.28 384.81 352.23 382.64C351.871 382.257 351.391 382.009 350.87 381.94Z" fill="#263238"/>
<path d="M348.86 365.16L349.75 375.43L341.17 376.42L340.28 366.15L348.86 365.16Z" fill="#FFA89C"/>
<path d="M287.02 389.33L295.65 388.94L294.69 399.3L286.06 399.69L287.02 389.33Z" fill="#FFA89C"/>
<path d="M286.43 157.32C286.43 157.32 290.78 157.59 296.67 208.57L262.94 218.13C259.61 204.24 257.23 195.77 242.68 169.46C247.125 167.129 251.734 165.123 256.47 163.46C261.467 161.652 266.587 160.201 271.79 159.12C278.54 157.91 286.43 157.32 286.43 157.32Z" fill="#263238"/>
<path d="M253.1 145.84C255.46 150.49 258.99 159.25 256.47 163.51C256.47 163.51 259.24 168.13 268.39 165.51C278.46 162.66 271.79 159.15 271.79 159.15C265.92 159.4 264.91 155.28 264.79 151.15L253.1 145.84Z" fill="#FFA89C"/>
<path d="M281.22 157.82C278.46 158.12 274.99 158.57 271.79 159.17C266.587 160.249 261.467 161.699 256.47 163.51C253.6 164.51 250.82 165.61 248.53 166.64C249 168.31 252.31 177 272 172C290.32 167.28 283.31 159.52 281.22 157.82Z" fill="#FFA89C"/>
<path d="M257.86 148L264.77 151.17C264.787 152.13 264.888 153.087 265.07 154.03C262.89 154.32 259.19 153.34 258.34 151.2C257.994 150.17 257.832 149.087 257.86 148Z" fill="#FFA89C"/>
<path d="M248.71 134.89C250.78 143.2 251.47 146.77 256.51 150.3C264.09 155.62 273.86 151.3 274.32 142.51C274.74 134.62 271.32 122.35 262.45 120.51C260.501 120.096 258.478 120.188 256.574 120.776C254.67 121.364 252.948 122.429 251.571 123.87C250.195 125.31 249.209 127.079 248.708 129.008C248.208 130.937 248.208 132.962 248.71 134.89Z" fill="#FFA89C"/>
<path d="M251.41 142.91C253.92 141.61 255.93 137.91 252.31 134.47C252.31 134.47 257.31 131.62 254.8 127.69C252.29 123.76 242.26 120.49 240.69 125.77C239.12 131.05 244 133.22 244 133.22C244 133.22 240 139.34 247.19 141.36C247.19 141.36 247.81 150.19 252.97 146.26L251.41 142.91Z" fill="#263238"/>
<path d="M248.8 142.72C249.276 144.302 250.353 145.634 251.8 146.43C253.74 147.43 255.18 145.84 255.04 143.77C254.91 141.9 253.74 139.11 251.61 138.94C251.143 138.911 250.676 138.999 250.252 139.196C249.828 139.393 249.459 139.693 249.18 140.068C248.901 140.444 248.72 140.883 248.654 141.346C248.587 141.809 248.638 142.281 248.8 142.72Z" fill="#FFA89C"/>
<path d="M296.67 208.57C296.67 208.57 335.85 254.78 342.48 280.26C349.38 306.76 352.48 372.26 352.48 372.26L339 374C339 374 330 314.07 318.67 289.65C306.61 263.65 271.92 215.59 271.92 215.59L296.67 208.57Z" fill="#01C09D"/>
<path d="M337.2 374.22L354.35 371.98L354.65 367.28L335.78 371.11L337.2 374.22Z" fill="#01C09D"/>
<path opacity="0.3" d="M337.2 374.22L354.35 371.98L354.65 367.28L335.78 371.11L337.2 374.22Z" fill="black"/>
<path opacity="0.2" d="M297.34 229.58C300.546 240.932 302.958 252.493 304.56 264.18C300.98 258.38 297.21 252.51 293.56 246.95C292.23 244.01 290.87 241.1 289.56 238.26C289.56 238.26 289.56 238.2 289.56 238.16L297.34 229.58Z" fill="black"/>
<path d="M287.76 211.09C287.76 211.09 299.1 269.46 303.2 303C306.52 330.1 296.07 395.83 296.07 395.83L284.83 396.52C284.83 396.52 287.2 337.82 281.98 311.57C268.76 245.16 256.4 236.25 262.98 218.13L287.76 211.09Z" fill="#01C09D"/>
<path d="M283.44 396.6L297.99 395.71L298.67 391.57L282.91 393.21L283.44 396.6Z" fill="#01C09D"/>
<path opacity="0.3" d="M283.44 396.6L297.99 395.71L298.67 391.57L282.91 393.21L283.44 396.6Z" fill="black"/>
<path d="M261.87 216.29L261.21 219.74C261.16 220.01 261.5 220.17 261.89 220.06L297.26 210.06C297.57 209.98 297.78 209.76 297.74 209.56L297.19 206.46C297.19 206.24 296.84 206.14 296.51 206.23L262.35 215.91C262.246 215.931 262.148 215.977 262.065 216.043C261.982 216.109 261.915 216.193 261.87 216.29Z" fill="#01C09D"/>
<path opacity="0.4" d="M261.87 216.29L261.21 219.74C261.16 220.01 261.5 220.17 261.89 220.06L297.26 210.06C297.57 209.98 297.78 209.76 297.74 209.56L297.19 206.46C297.19 206.24 296.84 206.14 296.51 206.23L262.35 215.91C262.246 215.931 262.148 215.977 262.065 216.043C261.982 216.109 261.915 216.193 261.87 216.29Z" fill="black"/>
<path d="M267.54 218.81L266.63 219.07C266.45 219.12 266.28 219.07 266.26 218.95L265.58 214.95C265.58 214.83 265.69 214.69 265.87 214.64L266.79 214.38C266.97 214.33 267.13 214.38 267.15 214.5L267.84 218.5C267.86 218.62 267.72 218.76 267.54 218.81Z" fill="#01C09D"/>
<path d="M294.79 211.09L293.87 211.35C293.69 211.4 293.52 211.35 293.5 211.23L292.82 207.23C292.82 207.12 292.93 206.98 293.12 206.93L294.03 206.67C294.21 206.61 294.38 206.67 294.4 206.79L295.08 210.79C295.1 210.9 295 211 294.79 211.09Z" fill="#01C09D"/>
<path d="M281.16 215L280.25 215.26C280.07 215.26 279.9 215.26 279.88 215.14L279.2 211.14C279.2 211.02 279.31 210.88 279.49 210.83L280.41 210.57C280.59 210.51 280.76 210.57 280.78 210.69L281.46 214.69C281.48 214.76 281.35 214.9 281.16 215Z" fill="#01C09D"/>
<path d="M261.9 134.9C262.03 135.58 262.49 136.07 262.9 135.99C263.31 135.91 263.61 135.28 263.48 134.6C263.35 133.92 262.89 133.42 262.48 133.51C262.07 133.6 261.78 134.21 261.9 134.9Z" fill="#263238"/>
<path d="M269.64 133.47C269.77 134.16 270.23 134.65 270.64 134.56C271.05 134.47 271.35 133.86 271.22 133.18C271.09 132.5 270.63 132 270.22 132.08C269.81 132.16 269.52 132.79 269.64 133.47Z" fill="#263238"/>
<path d="M270 132.16L271.55 131.38C271.55 131.38 271 132.82 270 132.16Z" fill="#263238"/>
<path d="M267.81 135C268.711 136.448 269.804 137.767 271.06 138.92C270.756 139.233 270.387 139.475 269.979 139.63C269.572 139.786 269.135 139.851 268.7 139.82L267.81 135Z" fill="#FF5652"/>
<path d="M265.58 143.11C265.986 143.107 266.392 143.067 266.79 142.99C266.842 142.98 266.887 142.951 266.917 142.908C266.947 142.865 266.959 142.812 266.95 142.76C266.941 142.706 266.91 142.658 266.865 142.626C266.82 142.594 266.765 142.581 266.71 142.59C265.862 142.764 264.985 142.737 264.149 142.509C263.313 142.282 262.543 141.861 261.9 141.28C261.86 141.247 261.81 141.231 261.759 141.233C261.707 141.235 261.658 141.256 261.621 141.291C261.584 141.327 261.561 141.375 261.558 141.427C261.554 141.478 261.569 141.529 261.6 141.57C262.68 142.576 264.105 143.127 265.58 143.11Z" fill="#263238"/>
<path d="M259 132.83C259.075 132.831 259.148 132.81 259.211 132.772C259.275 132.733 259.327 132.677 259.36 132.61C259.578 132.145 259.903 131.738 260.308 131.422C260.712 131.106 261.186 130.889 261.69 130.79C261.748 130.79 261.805 130.778 261.857 130.755C261.91 130.731 261.957 130.697 261.996 130.654C262.034 130.611 262.063 130.56 262.081 130.505C262.098 130.45 262.104 130.392 262.098 130.335C262.091 130.278 262.073 130.222 262.044 130.173C262.014 130.123 261.975 130.08 261.928 130.046C261.881 130.013 261.828 129.99 261.771 129.978C261.715 129.967 261.656 129.968 261.6 129.98C260.955 130.087 260.345 130.349 259.823 130.742C259.301 131.136 258.881 131.65 258.6 132.24C258.551 132.337 258.543 132.449 258.577 132.552C258.61 132.655 258.683 132.741 258.78 132.79C258.849 132.823 258.925 132.837 259 132.83Z" fill="#263238"/>
<path d="M272.43 129.27C272.482 129.27 272.534 129.259 272.582 129.238C272.63 129.218 272.674 129.188 272.71 129.15C272.749 129.112 272.781 129.068 272.802 129.018C272.823 128.968 272.834 128.914 272.834 128.86C272.834 128.806 272.823 128.752 272.802 128.702C272.781 128.652 272.749 128.607 272.71 128.57C272.268 128.095 271.719 127.732 271.108 127.511C270.498 127.29 269.844 127.218 269.2 127.3C269.095 127.324 269.004 127.387 268.945 127.476C268.885 127.565 268.862 127.674 268.88 127.78C268.889 127.833 268.91 127.883 268.939 127.929C268.969 127.974 269.007 128.012 269.052 128.042C269.097 128.072 269.147 128.093 269.2 128.102C269.253 128.112 269.307 128.111 269.36 128.1C269.866 128.038 270.38 128.097 270.859 128.27C271.339 128.444 271.771 128.728 272.12 129.1C272.156 129.15 272.202 129.191 272.256 129.22C272.309 129.249 272.369 129.266 272.43 129.27Z" fill="#263238"/>
<path d="M241.63 178.93C240.95 181.99 240.52 184.87 240.12 187.85C239.72 190.83 239.51 193.85 239.34 196.79C238.986 202.889 239.298 209.009 240.27 215.04C240.668 216.964 241.45 218.787 242.57 220.4C243.475 221.755 244.478 223.042 245.57 224.25C247.651 226.491 249.886 228.583 252.26 230.51C256.873 234.246 261.767 237.619 266.9 240.6L269.37 237C267.21 235.18 265.01 233.31 262.91 231.41C260.81 229.51 258.7 227.59 256.74 225.59C254.784 223.667 252.948 221.627 251.24 219.48C250.457 218.494 249.748 217.451 249.12 216.36C248.631 215.558 248.292 214.674 248.12 213.75C247.831 211.06 247.691 208.356 247.7 205.65C247.7 202.89 247.85 200.12 248.06 197.34C248.27 194.56 248.59 191.78 248.96 189C249.33 186.22 249.79 183.4 250.27 180.8L241.63 178.93Z" fill="#FFA89C"/>
<path d="M242.68 169.46C239.6 171.46 238.83 184.23 238.83 184.23L254.6 189.89C254.6 189.89 256.6 178.82 253.97 174.89C251.2 170.72 246.21 167.19 242.68 169.46Z" fill="#263238"/>
<path d="M297.08 407.93C297.663 407.981 298.245 407.822 298.72 407.48C298.864 407.344 298.971 407.173 299.031 406.984C299.09 406.795 299.101 406.594 299.06 406.4C299.05 406.275 299.006 406.156 298.934 406.054C298.862 405.952 298.764 405.871 298.65 405.82C297.65 405.36 295.03 407.06 294.73 407.25C294.697 407.273 294.672 407.305 294.656 407.342C294.64 407.379 294.635 407.42 294.64 407.46C294.65 407.498 294.67 407.534 294.698 407.562C294.726 407.59 294.762 407.61 294.8 407.62C295.546 407.809 296.311 407.913 297.08 407.93ZM298.22 406.15C298.306 406.132 298.394 406.132 298.48 406.15C298.531 406.172 298.574 406.208 298.605 406.254C298.635 406.3 298.651 406.355 298.65 406.41C298.683 406.538 298.681 406.673 298.646 406.801C298.611 406.929 298.544 407.046 298.45 407.14C298.01 407.54 296.88 407.59 295.37 407.29C296.233 406.721 297.203 406.333 298.22 406.15Z" fill="#01C09D"/>
<path d="M294.84 407.63C294.873 407.64 294.908 407.64 294.94 407.63C295.77 407.16 297.34 405.3 297.14 404.33C297.112 404.169 297.027 404.023 296.9 403.918C296.774 403.814 296.614 403.758 296.45 403.76C296.296 403.739 296.139 403.752 295.99 403.799C295.842 403.846 295.705 403.925 295.59 404.03C294.65 404.86 294.59 407.35 294.59 407.45C294.59 407.486 294.599 407.522 294.617 407.553C294.634 407.585 294.66 407.611 294.69 407.63C294.714 407.64 294.739 407.646 294.765 407.646C294.791 407.646 294.817 407.64 294.84 407.63ZM296.31 404.13H296.41C296.67 404.13 296.72 404.27 296.74 404.37C296.86 404.96 295.88 406.37 295.06 407.02C295.039 406.053 295.319 405.102 295.86 404.3C295.984 404.189 296.144 404.128 296.31 404.13Z" fill="#01C09D"/>
<path d="M354.67 383.87C355.153 383.9 355.634 383.786 356.05 383.54C356.201 383.434 356.323 383.293 356.407 383.13C356.49 382.966 356.533 382.784 356.53 382.6C356.538 382.486 356.516 382.372 356.467 382.269C356.418 382.165 356.343 382.076 356.25 382.01C355.25 381.31 351.65 382.65 351.25 382.81C351.21 382.825 351.176 382.853 351.152 382.889C351.129 382.925 351.118 382.967 351.12 383.01C351.12 383.053 351.134 383.094 351.159 383.128C351.184 383.162 351.22 383.187 351.26 383.2C352.36 383.583 353.508 383.808 354.67 383.87ZM355.39 382.22C355.608 382.203 355.827 382.248 356.02 382.35C356.057 382.376 356.085 382.41 356.103 382.451C356.12 382.492 356.126 382.536 356.12 382.58C356.125 382.703 356.099 382.824 356.045 382.934C355.991 383.044 355.91 383.139 355.81 383.21C355.24 383.61 353.81 383.53 351.96 382.99C353.062 382.575 354.217 382.316 355.39 382.22Z" fill="#01C09D"/>
<path d="M351.31 383.21H351.37C352.45 382.87 354.69 381.26 354.64 380.27C354.64 380.03 354.51 379.73 353.95 379.6C353.75 379.556 353.544 379.553 353.343 379.591C353.142 379.629 352.951 379.707 352.78 379.82C351.6 380.59 351.13 382.87 351.11 382.97C351.104 383.004 351.106 383.039 351.116 383.072C351.127 383.105 351.145 383.136 351.17 383.16C351.209 383.194 351.259 383.212 351.31 383.21ZM353.61 379.96C353.693 379.95 353.777 379.95 353.86 379.96C354.23 380.04 354.23 380.19 354.24 380.24C354.24 380.84 352.72 382.13 351.6 382.64C351.798 381.674 352.291 380.793 353.01 380.12C353.195 380.025 353.403 379.983 353.61 380V379.96Z" fill="#01C09D"/>
<path opacity="0.6" d="M314.48 130.48C326.117 127.773 338.268 128.242 349.661 131.839C361.054 135.436 371.271 142.029 379.244 150.927C387.216 159.826 392.651 170.703 394.98 182.422C397.308 194.14 396.445 206.269 392.48 217.54L411.91 238.22L382.52 235.94C376.024 244.446 367.576 251.263 357.889 255.816C348.203 260.369 337.563 262.524 326.869 262.099C316.174 261.673 305.739 258.68 296.445 253.372C287.151 248.063 279.271 240.596 273.471 231.601C267.671 222.606 264.121 212.347 263.121 201.691C262.122 191.034 263.701 180.294 267.727 170.377C271.753 160.46 278.106 151.658 286.251 144.713C294.395 137.769 304.091 132.887 314.52 130.48H314.48Z" fill="#01C09D"/>
<path opacity="0.1" d="M314.48 130.48C326.117 127.773 338.268 128.242 349.661 131.839C361.054 135.436 371.271 142.029 379.244 150.927C387.216 159.826 392.651 170.703 394.98 182.422C397.308 194.14 396.445 206.269 392.48 217.54L411.91 238.22L382.52 235.94C376.024 244.446 367.576 251.263 357.889 255.816C348.203 260.369 337.563 262.524 326.869 262.099C316.174 261.673 305.739 258.68 296.445 253.372C287.151 248.063 279.271 240.596 273.471 231.601C267.671 222.606 264.121 212.347 263.121 201.691C262.122 191.034 263.701 180.294 267.727 170.377C271.753 160.46 278.106 151.658 286.251 144.713C294.395 137.769 304.091 132.887 314.52 130.48H314.48Z" fill="black"/>
<path d="M329.46 258.91C339.221 258.908 348.851 256.66 357.605 252.341C366.358 248.021 374 241.746 379.94 234L381 232.56L403.42 234.3C403.448 234.298 403.475 234.29 403.5 234.277C403.524 234.263 403.545 234.243 403.56 234.22C403.574 234.196 403.582 234.168 403.582 234.14C403.582 234.112 403.574 234.084 403.56 234.06L388.75 218.33L389.4 216.46C392.761 206.898 393.781 196.669 392.375 186.632C390.969 176.594 387.178 167.04 381.32 158.769C375.462 150.498 367.707 143.751 358.705 139.093C349.703 134.436 339.716 132.004 329.58 132C320.028 131.996 310.598 134.147 301.993 138.294C293.389 142.442 285.831 148.478 279.884 155.952C273.936 163.427 269.753 172.148 267.645 181.464C265.537 190.781 265.56 200.453 267.71 209.76C270.887 223.75 278.734 236.24 289.958 245.174C301.182 254.108 315.114 258.953 329.46 258.91ZM380.94 232.27C380.918 232.271 380.897 232.277 380.878 232.287C380.859 232.297 380.843 232.312 380.83 232.33L379.71 233.8C373.803 241.52 366.198 247.775 357.484 252.081C348.769 256.387 339.18 258.628 329.46 258.63C313.955 258.611 298.999 252.891 287.439 242.558C275.88 232.225 268.524 218.002 266.772 202.597C265.02 187.191 268.995 171.68 277.94 159.016C286.885 146.352 300.176 137.419 315.28 133.92C319.969 132.833 324.767 132.283 329.58 132.28C339.668 132.289 349.607 134.715 358.565 139.354C367.523 143.994 375.239 150.712 381.068 158.946C386.896 167.18 390.667 176.691 392.064 186.682C393.462 196.672 392.445 206.853 389.1 216.37L388.42 218.32C388.405 218.34 388.398 218.365 388.398 218.39C388.398 218.415 388.405 218.44 388.42 218.46L403.07 234L380.95 232.28L380.94 232.27Z" fill="white"/>
<path d="M352.704 184.1C352.86 183.738 352.892 183.335 352.794 182.953C352.696 182.571 352.475 182.232 352.164 181.99C348.713 179.476 344.776 177.708 340.604 176.8C333.458 175.153 325.951 176.408 319.73 180.291C313.509 184.174 309.083 190.367 307.424 197.51C305.124 207.44 310.574 214.18 317.144 215.7C319.859 216.385 322.697 216.42 325.428 215.804C328.159 215.187 330.707 213.935 332.864 212.15C332.919 214.281 333.701 216.329 335.079 217.955C336.458 219.581 338.351 220.687 340.444 221.09C350.714 223.47 363.264 216.58 367.374 198.82C371.804 179.7 361.444 163.23 342.194 158.82C319.074 153.47 297.394 167.74 291.774 192.02C287.094 212.26 297.984 230.25 317.664 234.81C325.474 236.62 331.884 236.65 338.444 234.92C338.859 234.81 339.22 234.552 339.459 234.195C339.698 233.838 339.8 233.406 339.744 232.98L339.104 227.98C339.069 227.727 338.98 227.485 338.844 227.27C338.708 227.054 338.527 226.87 338.314 226.73C338.102 226.587 337.861 226.493 337.609 226.455C337.356 226.417 337.098 226.436 336.854 226.51C331.604 227.842 326.104 227.842 320.854 226.51C305.534 222.96 297.744 209.73 301.484 193.57C305.984 174.1 321.954 162.91 339.484 166.96C354.304 170.39 361.314 181.96 357.784 197.29C356.234 203.98 353.044 209.22 349.024 211.68C347.548 212.707 345.724 213.106 343.954 212.79C343.689 212.747 343.438 212.64 343.224 212.478C343.009 212.315 342.838 212.103 342.724 211.86C342.294 210.98 341.984 208.59 344.724 202.56L352.704 184.1ZM337.224 185.59C338.342 185.846 339.434 186.207 340.484 186.67L336.124 196.67C333.664 202.45 326.874 208.27 321.824 207.1C317.214 206.04 317.454 201.89 318.004 199.52C320.184 190.06 328.994 183.69 337.224 185.59Z" fill="white"/>
<path d="M267.5 236.24L275.08 231.94L273.47 240.57C273.47 240.57 268.21 242.31 265.61 239.83L267.5 236.24Z" fill="#FFA89C"/>
<path d="M282.26 233.01L280.52 240.16L273.47 240.57L275.08 231.94L282.26 233.01Z" fill="#FFA89C"/>
<path d="M262.29 133.58L263.85 132.8C263.85 132.8 263.24 134.24 262.29 133.58Z" fill="#263238"/>
<path d="M251.57 129.63C255.85 129.36 258.99 127.48 259.41 125.01C259.41 125.01 269.23 129.09 273.2 123.01C273.2 123.01 277.68 123.75 278.79 120.63C279.9 117.51 275.24 116.63 273.04 118.03C273.04 118.03 279.86 112.03 272.86 110.36C265.86 108.69 264.36 114.36 264.36 114.36C264.36 114.36 261.6 106.08 255.36 109.76C249.12 113.44 253 117 253 117C253 117 238.18 118.15 243.7 124C249.22 129.85 251.57 129.63 251.57 129.63Z" fill="#263238"/>
<path d="M256.93 158.37C256.09 158.45 256.46 161.37 256.84 161.57C257.71 162.04 268.19 159.89 267.84 158.27C267.478 157.492 266.977 156.787 266.36 156.19C265.9 155.85 264.3 157.76 256.93 158.37Z" fill="#263238"/>
<path d="M202.2 181.27C206.441 181.257 210.529 182.855 213.637 185.741C216.745 188.628 218.641 192.587 218.941 196.817C219.24 201.048 217.922 205.235 215.252 208.531C212.583 211.826 208.761 213.985 204.56 214.57C204.476 218.795 205.958 222.902 208.72 226.1C208.72 226.1 185.46 220.31 185.46 198.01C185.46 193.57 187.224 189.312 190.363 186.173C193.502 183.034 197.76 181.27 202.2 181.27Z" fill="#01C09D"/>
<path d="M164.53 181.27C168.771 181.257 172.86 182.855 175.967 185.741C179.075 188.628 180.971 192.587 181.271 196.817C181.57 201.048 180.252 205.235 177.583 208.531C174.913 211.826 171.091 213.985 166.89 214.57C166.792 218.789 168.256 222.895 171 226.1C171 226.1 147.74 220.31 147.74 198.01C147.739 195.807 148.173 193.626 149.016 191.591C149.86 189.556 151.098 187.708 152.658 186.152C154.218 184.597 156.07 183.365 158.107 182.527C160.144 181.689 162.327 181.262 164.53 181.27Z" fill="#01C09D"/>
</svg>
