<svg width="189" height="44" viewBox="0 0 189 44" fill="none" xmlns="http://www.w3.org/2000/svg">
<path d="M38.088 36.9935C37.0898 38.068 35.9852 39.0385 34.7912 39.8902C31.0628 42.5644 26.5893 44.0018 22.0009 43.9999C18.0838 43.9996 14.2377 42.9534 10.8601 40.9695C7.48249 38.9855 4.69588 36.1358 2.78812 32.7146C0.880361 29.2934 -0.0793363 25.4249 0.00817789 21.5087C0.0956921 17.5925 1.22724 13.7707 3.28593 10.4382C3.38676 10.2732 3.4876 10.1326 3.59148 9.95541L3.89702 9.48181C4.27591 8.93182 4.68331 8.4022 5.11923 7.89294L5.37895 7.58739C5.41842 7.53573 5.4613 7.48672 5.50728 7.44073C5.60199 7.32767 5.69977 7.22074 5.81282 7.11379L5.92588 6.99463L9.10361 11.4648L9.14027 11.5198C9.06693 11.6084 8.9936 11.7032 8.92638 11.7948C8.85159 11.8822 8.7822 11.974 8.71861 12.0698C6.34463 15.2373 5.18249 19.1498 5.44239 23.0995C5.70227 27.0493 7.36703 30.7757 10.1356 33.6049C12.9041 36.4339 16.5936 38.1788 20.537 38.5242C24.4802 38.8694 28.4169 37.7921 31.6348 35.4872L29.8016 32.9175L26.6636 28.5146C27.9205 27.6124 28.8919 26.3684 29.4625 24.9304C29.9408 23.7145 30.1149 22.4001 29.9694 21.1014C29.8239 19.8029 29.3635 18.5595 28.628 17.4795C27.8925 16.3994 26.9044 15.5155 25.7493 14.9044C24.5943 14.2934 23.3075 13.9738 22.0009 13.9734H21.6525C20.1064 14.0394 18.6133 14.5555 17.3566 15.4584L14.2002 11.0646C15.4078 10.202 16.7501 9.54534 18.1723 9.12126H18.1876C19.4247 8.74959 20.7091 8.55919 22.0009 8.55599C22.4011 8.55599 22.7953 8.57432 23.1864 8.60793C25.5435 8.81367 27.8045 9.63914 29.7398 11.0006C31.6749 12.3621 33.2157 14.2112 34.2056 16.3603C35.1956 18.5094 35.5998 20.8821 35.3769 23.2377C35.154 25.5933 34.3121 27.8481 32.9366 29.7734L34.8554 32.4591L38.088 36.9935Z" fill="#0059FF"/>
<path fill-rule="evenodd" clip-rule="evenodd" d="M26.6502 28.4963C25.7973 29.1312 24.8264 29.5896 23.7943 29.8446C22.7621 30.0997 21.6894 30.1464 20.639 29.9818C19.5886 29.8175 18.5816 29.4451 17.6768 28.8869C16.772 28.3284 15.9876 27.5954 15.3695 26.7302C14.7514 25.8651 14.3121 24.8854 14.0772 23.8485C13.8423 22.8115 13.8166 21.7381 14.0015 20.6911C14.1864 19.644 14.5783 18.6445 15.1542 17.7507C15.7301 16.8571 16.4784 16.0871 17.3555 15.486L26.6502 28.4963Z" fill="white"/>
<path d="M64.2674 24.0841L67.222 26.2595C65.3001 28.8263 63.039 29.9446 60.5396 29.9446C59.4782 29.9654 58.4234 29.7742 57.4366 29.3823C56.45 28.9905 55.5514 28.4058 54.7934 27.6626C54.0354 26.9193 53.4333 26.0322 53.0222 25.0534C52.6112 24.0747 52.3994 23.0237 52.3994 21.962C52.3994 20.9004 52.6112 19.8495 53.0222 18.8706C53.4333 17.8919 54.0354 17.0049 54.7934 16.2615C55.5514 15.5182 56.45 14.9335 57.4366 14.5417C58.4234 14.1499 59.4782 13.9588 60.5396 13.9796C63.0818 13.9796 65.3857 15.1651 67.3046 17.7287L64.3101 19.9256C63.1032 18.3093 61.8657 17.6645 60.5396 17.6645C59.4027 17.6645 58.3124 18.1161 57.5083 18.92C56.7044 19.7241 56.2528 20.8144 56.2528 21.9513C56.2528 23.0884 56.7044 24.1787 57.5083 24.9826C58.3124 25.7866 59.4027 26.2383 60.5396 26.2383C61.875 26.2383 63.0604 25.6668 64.2674 24.0841Z" fill="white"/>
<path d="M72.5615 20.4203C73.5451 19.9301 74.631 19.6798 75.73 19.6902L74.8897 23.0939C73.6188 23.0939 72.5615 23.7387 72.5615 24.5362V29.7305H69.1577V19.8612H72.5615V20.4203Z" fill="white"/>
<path d="M78.5093 34.2777L80.7307 28.8053L77.0886 19.8618H80.5138L82.4326 24.5153L84.3057 19.8618H87.7339L81.8887 34.2777H78.5093Z" fill="white"/>
<path d="M99.5842 24.7967C99.5839 26.1616 99.0434 27.471 98.0808 28.4389C97.6038 28.9096 97.0382 29.2813 96.4168 29.5325C95.7954 29.7837 95.1303 29.9094 94.46 29.9024C93.8358 29.8843 93.2329 29.6707 92.7368 29.2913V34.2901H89.3269V19.862H92.7306V20.3142C93.2232 19.9282 93.8283 19.7137 94.454 19.7031C95.1245 19.6936 95.7901 19.8169 96.4126 20.0661C97.0351 20.3152 97.602 20.6851 98.0808 21.1545C99.0434 22.1223 99.5839 23.4317 99.5842 24.7967ZM96.1803 24.7967C96.1768 24.456 96.0724 24.124 95.8806 23.8426C95.6886 23.5611 95.4178 23.3427 95.102 23.2148C94.7863 23.087 94.4398 23.0554 94.106 23.1241C93.7724 23.1927 93.4665 23.3585 93.2269 23.6008C92.9873 23.8429 92.8247 24.1506 92.7595 24.4849C92.6944 24.8193 92.7296 25.1655 92.8609 25.4797C92.9921 25.7941 93.2133 26.0628 93.4969 26.2517C93.7803 26.4406 94.1134 26.5413 94.454 26.5413C94.6819 26.5401 94.9073 26.4941 95.1174 26.4058C95.3276 26.3174 95.5182 26.1886 95.6785 26.0266C95.8388 25.8645 95.9656 25.6726 96.0517 25.4616C96.1379 25.2505 96.1816 25.0246 96.1803 24.7967Z" fill="white"/>
<path d="M101.826 26.1316V23.0304H100.64V19.8617H101.826V16.7817H105.23V19.8617H107.689V23.0304H105.23V26.0858C105.221 26.1578 105.241 26.2304 105.286 26.2878C105.33 26.345 105.396 26.3822 105.468 26.3913H107.536L108.419 29.731H105.416C104.943 29.7327 104.475 29.6406 104.038 29.4601C103.601 29.2797 103.204 29.0145 102.87 28.6798C102.537 28.3452 102.272 27.9476 102.093 27.5103C101.914 27.0729 101.823 26.6044 101.826 26.1316Z" fill="white"/>
<path d="M119.733 24.7967C119.731 26.1625 119.188 27.472 118.224 28.4389C117.268 29.3916 115.973 29.9257 114.624 29.9239C113.942 29.9405 113.263 29.8205 112.628 29.571C111.992 29.3212 111.413 28.9471 110.925 28.4703C110.436 27.9935 110.048 27.4239 109.783 26.7948C109.518 26.1657 109.381 25.49 109.381 24.8074C109.381 24.1248 109.518 23.449 109.783 22.8201C110.048 22.191 110.436 21.6213 110.925 21.1445C111.413 20.6678 111.992 20.2935 112.628 20.044C113.263 19.7944 113.942 19.6743 114.624 19.691C115.291 19.686 115.952 19.8128 116.57 20.064C117.187 20.3151 117.749 20.6858 118.224 21.1546C119.188 22.1215 119.731 23.4308 119.733 24.7967ZM116.326 24.7967C116.307 24.355 116.119 23.9376 115.8 23.6317C115.481 23.3257 115.056 23.155 114.614 23.155C114.171 23.155 113.746 23.3257 113.427 23.6317C113.108 23.9376 112.919 24.355 112.901 24.7967C112.891 25.0278 112.928 25.2583 113.01 25.4746C113.091 25.6909 113.216 25.8884 113.376 26.0553C113.536 26.2222 113.728 26.3551 113.941 26.4457C114.153 26.5365 114.382 26.5832 114.614 26.5832C114.845 26.5832 115.074 26.5365 115.286 26.4457C115.499 26.3551 115.691 26.2222 115.851 26.0553C116.011 25.8884 116.136 25.6909 116.217 25.4746C116.299 25.2583 116.336 25.0278 116.326 24.7967Z" fill="white"/>
<path d="M131.734 24.7969C131.733 26.163 131.19 27.473 130.224 28.4391C129.747 28.9095 129.182 29.2811 128.562 29.5323C127.941 29.7834 127.276 29.9093 126.606 29.9026C125.981 29.8853 125.377 29.6715 124.88 29.2915V34.2903H121.476V19.8623H124.88V20.3144C125.374 19.9285 125.98 19.7139 126.606 19.7034C127.276 19.6968 127.941 19.8226 128.562 20.0738C129.182 20.325 129.747 20.6964 130.224 21.167C131.187 22.13 131.73 23.435 131.734 24.7969ZM128.33 24.7969C128.326 24.4561 128.222 24.1241 128.03 23.8425C127.838 23.561 127.567 23.3426 127.251 23.2148C126.935 23.087 126.588 23.0556 126.254 23.1246C125.921 23.1935 125.615 23.3596 125.375 23.602C125.136 23.8446 124.973 24.1524 124.909 24.487C124.844 24.8215 124.879 25.1679 125.011 25.4822C125.143 25.7966 125.365 26.0648 125.648 26.2534C125.932 26.4419 126.266 26.5422 126.606 26.5417C126.834 26.5403 127.06 26.4943 127.269 26.4059C127.479 26.3176 127.67 26.1887 127.83 26.0266C127.99 25.8646 128.116 25.6725 128.202 25.4615C128.288 25.2505 128.331 25.0246 128.33 24.7969Z" fill="white"/>
<path d="M143.371 24.7967C143.37 26.1622 142.828 27.4718 141.864 28.4389C140.908 29.3907 139.614 29.9248 138.265 29.9239C137.582 29.9405 136.904 29.8206 136.268 29.571C135.633 29.3212 135.054 28.9471 134.565 28.4703C134.077 27.9935 133.689 27.424 133.423 26.7949C133.158 26.1658 133.022 25.49 133.022 24.8074C133.022 24.1248 133.158 23.449 133.423 22.8201C133.689 22.191 134.077 21.6213 134.565 21.1445C135.054 20.6678 135.633 20.2935 136.268 20.044C136.904 19.7944 137.582 19.6743 138.265 19.691C138.931 19.6866 139.593 19.8136 140.21 20.0646C140.828 20.3158 141.39 20.6861 141.864 21.1546C142.828 22.1218 143.37 23.4313 143.371 24.7967ZM139.967 24.7967C139.948 24.355 139.759 23.9376 139.44 23.6317C139.121 23.3257 138.696 23.155 138.254 23.155C137.812 23.155 137.387 23.3257 137.068 23.6317C136.749 23.9376 136.56 24.355 136.541 24.7967C136.532 25.0278 136.569 25.2583 136.65 25.4746C136.732 25.6909 136.857 25.8884 137.017 26.0553C137.177 26.2222 137.369 26.3551 137.581 26.4457C137.794 26.5365 138.023 26.5832 138.254 26.5832C138.485 26.5832 138.714 26.5365 138.927 26.4457C139.139 26.3551 139.332 26.2222 139.492 26.0553C139.651 25.8884 139.776 25.6909 139.858 25.4746C139.939 25.2583 139.976 25.0278 139.967 24.7967Z" fill="white"/>
<path d="M145.312 29.7318V13.938H148.741V29.7318H145.312Z" fill="white"/>
<path d="M151.752 16.5872C151.752 16.3325 151.802 16.08 151.899 15.8445C151.996 15.609 152.138 15.3949 152.318 15.2145C152.499 15.0343 152.713 14.8913 152.948 14.7939C153.184 14.6966 153.436 14.6466 153.69 14.647C154.204 14.647 154.698 14.8514 155.062 15.2152C155.426 15.5792 155.631 16.0727 155.631 16.5872C155.631 17.1018 155.426 17.5953 155.062 17.9592C154.698 18.3231 154.204 18.5275 153.69 18.5275C153.436 18.5282 153.182 18.4786 152.948 18.3814C152.711 18.284 152.497 18.1412 152.317 17.9608C152.138 17.7805 151.994 17.5662 151.898 17.3304C151.801 17.0948 151.752 16.8421 151.752 16.5872ZM151.991 19.8627H155.395V29.7319H151.991V19.8627Z" fill="white"/>
<path d="M158.971 26.1316V23.0304H157.789V19.8617H158.971V16.7817H162.378V19.8617H164.822V23.0304H162.378V26.0858C162.369 26.1574 162.389 26.2296 162.433 26.2867C162.477 26.3439 162.542 26.3815 162.614 26.3913H164.692L165.574 29.731H162.58C162.105 29.7351 161.636 29.6449 161.196 29.4655C160.757 29.2862 160.358 29.0214 160.022 28.6864C159.687 28.3515 159.421 27.9532 159.239 27.5146C159.059 27.076 158.968 26.6058 158.971 26.1316Z" fill="white"/>
<path d="M173.454 20.3143V19.8621H176.88V29.7314H173.454V29.2791C172.979 29.6843 172.374 29.9016 171.749 29.8902C171.079 29.8902 170.414 29.7582 169.796 29.5016C169.177 29.2449 168.614 28.8689 168.139 28.3948C167.665 27.9207 167.29 27.3578 167.033 26.7384C166.776 26.1189 166.644 25.4549 166.644 24.7845C166.644 24.114 166.776 23.45 167.033 22.8306C167.29 22.2112 167.665 21.6484 168.139 21.1743C168.614 20.7 169.177 20.324 169.796 20.0674C170.414 19.8108 171.079 19.6788 171.749 19.6788C172.377 19.6741 172.984 19.9004 173.454 20.3143ZM173.454 24.7967C173.449 24.4586 173.343 24.13 173.151 23.852C172.957 23.5739 172.687 23.359 172.374 23.2342C172.058 23.1094 171.715 23.0803 171.384 23.1506C171.054 23.221 170.75 23.3874 170.514 23.6292C170.278 23.871 170.118 24.1774 170.057 24.5097C169.994 24.8418 170.03 25.1853 170.162 25.4964C170.294 25.8078 170.516 26.073 170.799 26.259C171.08 26.4449 171.412 26.5432 171.749 26.5414C172.206 26.535 172.642 26.3478 172.962 26.0208C173.281 25.694 173.459 25.2539 173.454 24.7967Z" fill="white"/>
<path d="M187.393 21.1119C188.283 22.0122 188.78 23.2286 188.774 24.4944V29.7315H185.371V24.4944C185.371 24.1256 185.224 23.7721 184.963 23.5113C184.702 23.2506 184.349 23.1041 183.981 23.1041C183.611 23.1041 183.258 23.2506 182.997 23.5113C182.737 23.7721 182.59 24.1256 182.59 24.4944V29.7315H179.182V19.8622H182.59V20.3145C182.76 19.9051 183.507 19.7033 183.989 19.7033C184.62 19.6982 185.245 19.8175 185.828 20.0545C186.413 20.2915 186.944 20.6415 187.393 21.0844V21.1119Z" fill="white"/>
<path fill-rule="evenodd" clip-rule="evenodd" d="M43.9922 21.9976C43.9922 25.9998 42.9229 29.9102 40.8454 33.332L37.3014 28.3521C38.5846 25.2971 38.9207 21.9059 38.2486 18.637C38.218 18.5453 38.218 18.4231 38.1874 18.3315V18.301C38.1569 18.1787 38.1263 18.087 38.0958 17.9649C38.0653 17.8427 38.0653 17.7816 38.0346 17.6899C37.9736 17.4761 37.9125 17.2928 37.8513 17.0789C37.8513 17.0179 37.8208 16.9567 37.7903 16.8956C37.7903 16.8651 37.7597 16.8346 37.7597 16.8039C37.6987 16.6206 37.6375 16.4373 37.5764 16.254C37.5459 16.1318 37.4847 16.0097 37.4237 15.8874C37.3626 15.7652 37.3321 15.6431 37.2709 15.5208C37.2098 15.3986 37.1793 15.2765 37.1181 15.1542C36.996 14.9099 36.9043 14.6654 36.7822 14.421C36.721 14.3294 36.6905 14.2072 36.6294 14.1155L36.5989 14.085C36.5989 14.085 36.5989 14.085 36.5989 14.0544C36.5377 13.9322 36.4766 13.8405 36.4156 13.7183C36.3544 13.5961 36.2933 13.4739 36.2016 13.3823C36.0489 13.1379 35.8961 12.8935 35.7433 12.6491C34.8575 11.3354 33.7881 10.1745 32.5967 9.19682L32.3217 8.95242L31.9551 8.67747C31.8634 8.58581 31.7413 8.52471 31.6191 8.43306C31.4968 8.3414 31.4052 8.2803 31.3135 8.2192C31.1914 8.12755 31.0692 8.06645 30.9469 7.97479C30.8248 7.88314 30.7636 7.8526 30.7026 7.82204C30.6415 7.79149 30.5498 7.73038 30.4582 7.66929C26.1505 5.13357 20.9568 4.67531 16.2825 6.38616C15.0606 6.84442 12.4943 8.37195 12.4026 8.43306L9.22534 4.09485L9.65304 3.81989C10.7223 3.08667 11.8527 2.44511 13.0136 1.92574C19.1238 -0.82383 26.12 -0.609975 32.0774 2.44511C32.2912 2.53676 32.505 2.65896 32.6883 2.78116C32.78 2.84226 32.9021 2.90337 32.9938 2.96446L33.2687 3.14777C33.3604 3.20887 33.4522 3.26998 33.5438 3.33107C33.7576 3.45328 33.9409 3.57548 34.1547 3.69768L34.3992 3.85044C34.5214 3.91155 34.613 4.0032 34.7352 4.09485C34.8575 4.1865 34.9796 4.24759 35.0713 4.33925L35.2546 4.49201L35.56 4.73642C35.835 4.95027 36.1099 5.19468 36.3849 5.40853C36.6599 5.62238 36.9043 5.86679 37.1793 6.1112L37.5459 6.47781C37.668 6.60001 37.7903 6.72221 37.9125 6.84442C38.1569 7.08882 38.3708 7.33323 38.5847 7.57764L38.8595 7.91369C38.9512 8.0359 39.043 8.12755 39.1346 8.24975C39.2263 8.37195 39.2873 8.43306 39.3484 8.52471C39.4096 8.61636 39.5012 8.70801 39.5622 8.79967L39.776 9.07462C39.8677 9.19682 39.9595 9.31903 40.0205 9.44123C40.0816 9.56343 40.2038 9.68564 40.265 9.80784C40.2955 9.86895 40.3566 9.93004 40.3871 9.99115C40.4176 10.0523 40.4788 10.1133 40.5094 10.1744L40.6926 10.48C40.7842 10.6327 40.876 10.7855 40.9677 10.9382L41.1508 11.2743L41.3343 11.6103C41.3343 11.6103 41.3341 11.6409 41.3648 11.6409L41.3953 11.6714C41.3953 11.6714 41.3953 11.702 41.4259 11.702C41.4259 11.702 41.4258 11.7325 41.4564 11.7325L41.6397 12.0686L41.6702 12.0991C41.7314 12.2213 41.7925 12.3436 41.8535 12.4963C41.9147 12.6491 41.9758 12.7713 42.0368 12.924L42.1897 13.2906L42.3424 13.6267L42.4646 13.9322C42.5258 14.085 42.5868 14.2072 42.6174 14.3294C42.6479 14.3599 42.6479 14.3905 42.6479 14.4516C42.7091 14.6043 42.7701 14.7571 42.8007 14.9099C42.9229 15.2458 43.0145 15.5819 43.1062 15.9485C43.1367 16.1013 43.1978 16.2846 43.2283 16.4373V16.4984C43.32 16.8651 43.4116 17.2012 43.4728 17.5678C43.5033 17.7511 43.5339 17.9344 43.5644 18.087C43.5644 18.1177 43.5644 18.1482 43.5644 18.1482C43.5949 18.301 43.6254 18.4536 43.6561 18.6065L43.7172 19.1259V19.1564C43.7477 19.3397 43.7477 19.523 43.7782 19.7063C43.8089 20.0424 43.8394 20.3783 43.8699 20.745C43.9922 21.1727 43.9922 21.5698 43.9922 21.9976Z" fill="white"/>
<path d="M38.0662 36.9979C37.058 38.0672 35.9582 39.0449 34.7667 39.9003C31.0701 42.5582 26.5792 43.9941 21.9966 43.9941C9.83735 43.9941 0 34.1567 0 21.9976C0 17.9037 1.13038 13.9016 3.26894 10.4493C3.36059 10.2966 3.48279 10.1438 3.57444 9.9605L3.87994 9.50224C4.24655 8.95233 4.67427 8.43296 5.10198 7.91359L5.37694 7.60809C5.40749 7.54698 5.46859 7.51644 5.49914 7.45533C5.59079 7.33313 5.68244 7.24148 5.80464 7.11928L5.92686 6.99707L9.10413 11.4575L9.13469 11.5186C9.07358 11.6102 8.98193 11.7019 8.92082 11.7936C8.85973 11.8852 8.76808 11.9769 8.70697 12.0685C3.20783 19.4007 4.70481 29.788 12.037 35.2565C17.8111 39.5948 25.7543 39.6865 31.6201 35.4705L29.787 32.9042L26.6708 28.5049C27.9235 27.5884 28.901 26.3662 29.4816 24.9305C31.1006 20.8061 29.0843 16.1623 24.9599 14.5431C24.0129 14.1765 23.0352 13.9932 22.0271 13.9932H21.6911C20.133 14.0543 18.6666 14.5737 17.3834 15.4903L14.2061 11.0603C15.4281 10.2049 16.7419 9.53279 18.1777 9.10507C19.3998 8.73846 20.7134 8.55516 21.9966 8.55516C22.3937 8.55516 22.7909 8.58572 23.188 8.61627C30.5814 9.25783 36.0194 15.7652 35.3778 23.1584C35.164 25.5414 34.3085 27.8327 32.9337 29.788L34.8584 32.4764L38.0662 36.9979Z" fill="#0059FF"/>
<path fill-rule="evenodd" clip-rule="evenodd" d="M26.639 28.5049C23.0951 31.1323 18.0848 30.3991 15.4574 26.8551C12.8301 23.3112 13.5633 18.301 17.1072 15.6735C17.1988 15.6124 17.2905 15.5514 17.3516 15.4902L26.639 28.5049Z" fill="white"/>
<path d="M64.248 24.0745L67.2114 26.2435C65.2867 28.8097 63.026 29.9402 60.5208 29.9402C56.1214 30.0319 52.4554 26.5184 52.3943 22.1191C52.3332 17.7198 55.816 14.0538 60.2153 13.9927C60.307 13.9927 60.4291 13.9927 60.5208 13.9927C63.0565 13.9927 65.3783 15.1842 67.2725 17.7504L64.2785 19.9501C63.087 18.3309 61.8345 17.6893 60.5208 17.6893C58.1684 17.6893 56.2437 19.614 56.2437 21.9665C56.2437 24.3188 58.1684 26.2435 60.5208 26.2435C61.865 26.2435 63.0565 25.663 64.248 24.0745Z" fill="white"/>
<path d="M72.5584 20.409C73.5359 19.9201 74.6358 19.6758 75.7356 19.6758L74.9107 23.0669C73.6276 23.0669 72.5889 23.7085 72.5889 24.5027V29.6964H69.1978V19.8591H72.5889V20.409H72.5584Z" fill="white"/>
<path d="M78.4851 34.2788L80.7154 28.8102L77.0798 19.8589H80.5015L82.4262 24.5025L84.2899 19.8589H87.7115L81.8763 34.2788H78.4851Z" fill="white"/>
<path d="M99.5658 24.7782C99.5658 26.153 99.0159 27.4666 98.0689 28.4138C97.0912 29.3608 95.8081 29.8803 94.4333 29.8803C93.8222 29.8496 93.2113 29.6358 92.7224 29.2692V34.2796H89.3008V19.8595H92.6919V20.3178C93.1807 19.9207 93.7917 19.7068 94.4028 19.7068C95.7469 19.6762 97.0607 20.1956 98.0382 21.1733C99.0159 22.1203 99.5658 23.4339 99.5658 24.7782ZM96.1747 24.7782C96.1747 23.8312 95.3803 23.0673 94.4333 23.0673C93.4863 23.0673 92.7224 23.8617 92.7224 24.8087C92.7224 25.7559 93.5168 26.5196 94.4333 26.5196C95.411 26.5196 96.1747 25.7559 96.1747 24.7782Z" fill="white"/>
<path d="M101.795 26.1225V23.0368H100.603V19.8595H101.795V16.7739H105.186V19.8595H107.63V23.0368H105.186V26.0918C105.155 26.2446 105.277 26.3668 105.43 26.3974H107.508L108.393 29.7274H105.4C103.414 29.7274 101.825 28.1388 101.795 26.153C101.795 26.153 101.795 26.153 101.795 26.1225Z" fill="white"/>
<path d="M119.728 24.7777C119.728 26.1524 119.178 27.4662 118.231 28.4133C117.284 29.3603 115.97 29.9102 114.626 29.9102C111.815 29.9713 109.463 27.7412 109.371 24.9305C109.31 22.1197 111.54 19.7674 114.351 19.6758C114.443 19.6758 114.504 19.6758 114.596 19.6758C115.94 19.6758 117.223 20.195 118.2 21.1422C119.178 22.1197 119.697 23.4335 119.728 24.7777ZM116.306 24.7777C116.276 23.8306 115.481 23.0974 114.534 23.1279C113.648 23.1586 112.946 23.8918 112.885 24.7777C112.854 25.7248 113.587 26.5191 114.534 26.5497C115.481 26.5802 116.276 25.847 116.306 24.9C116.306 24.9 116.306 24.8388 116.306 24.7777Z" fill="white"/>
<path d="M131.704 24.7779C131.704 26.1527 131.154 27.4665 130.206 28.4135C129.229 29.3605 127.946 29.88 126.602 29.88C125.99 29.8495 125.379 29.6355 124.891 29.2689V34.2793H121.5V19.8593H124.891V20.3176C125.379 19.9204 125.99 19.7065 126.602 19.7065C127.946 19.7065 129.259 20.226 130.206 21.173C131.154 22.12 131.704 23.4338 131.704 24.7779ZM128.312 24.7779C128.312 23.8309 127.518 23.0672 126.571 23.0672C125.624 23.0672 124.86 23.8614 124.86 24.8086C124.86 25.7556 125.654 26.5193 126.602 26.5193C127.549 26.5193 128.312 25.7556 128.312 24.7779C128.312 24.7779 128.312 24.8086 128.312 24.7779Z" fill="white"/>
<path d="M143.345 24.7777C143.345 26.1524 142.795 27.4662 141.848 28.4133C140.901 29.3603 139.588 29.9102 138.243 29.9102C135.433 29.9713 133.08 27.7412 132.989 24.9305C132.928 22.1197 135.158 19.7674 137.968 19.6758C138.06 19.6758 138.121 19.6758 138.213 19.6758C139.557 19.6758 140.84 20.195 141.818 21.1422C142.795 22.1197 143.345 23.4335 143.345 24.7777ZM139.954 24.7777C139.924 23.8306 139.129 23.0974 138.182 23.1279C137.296 23.1586 136.594 23.8918 136.532 24.7777C136.502 25.7248 137.235 26.5191 138.182 26.5497C139.129 26.5802 139.924 25.847 139.954 24.9C139.954 24.9 139.954 24.8388 139.954 24.7777Z" fill="white"/>
<path d="M145.301 29.7268V13.9321H148.722V29.7268H145.301Z" fill="white"/>
<path d="M151.745 16.5897C151.745 15.5204 152.6 14.665 153.669 14.665C154.738 14.665 155.624 15.5204 155.624 16.5897C155.624 17.6591 154.769 18.5449 153.669 18.5449C152.6 18.5144 151.745 17.6591 151.745 16.5897ZM151.958 19.8587H155.35V29.7265H151.958V19.8587Z" fill="white"/>
<path d="M158.956 26.1225V23.0368H157.765V19.8595H158.956V16.7739H162.379V19.8595H164.822V23.0368H162.379V26.0918C162.348 26.2446 162.469 26.3668 162.622 26.3974H164.7L165.586 29.7274H162.593C160.606 29.7579 158.987 28.1693 158.987 26.1835C158.956 26.153 158.956 26.153 158.956 26.1225Z" fill="white"/>
<path d="M173.437 20.3173V19.8591H176.858V29.7269H173.437V29.2686C172.949 29.6659 172.368 29.8797 171.726 29.8797C168.915 29.8797 166.624 27.5884 166.624 24.7777C166.624 21.9671 168.915 19.6758 171.726 19.6758C172.337 19.6758 172.949 19.8896 173.437 20.3173ZM173.437 24.7777C173.406 23.8306 172.642 23.0669 171.695 23.0974C170.748 23.1279 169.985 23.8918 170.014 24.8388C170.045 25.7858 170.809 26.5191 171.726 26.5191C172.673 26.5191 173.437 25.7553 173.437 24.7777Z" fill="white"/>
<path d="M187.367 21.1121C188.252 21.9982 188.742 23.2201 188.742 24.5033V29.7275H185.35V24.5033C185.35 23.7396 184.74 23.098 183.976 23.098C183.212 23.098 182.57 23.7089 182.57 24.4728V29.697H179.149V19.8595H182.57V20.3178C182.753 19.9207 183.486 19.7069 183.976 19.7069C185.229 19.6762 186.45 20.1956 187.367 21.1121Z" fill="white"/>
</svg>
