<svg width="41" height="40" viewBox="0 0 41 40" fill="none" xmlns="http://www.w3.org/2000/svg">
<g clip-path="url(#clip0_648_731)">
<path d="M30.75 20L20.75 30H40.75L30.75 20Z" fill="url(#paint0_linear_648_731)"/>
<path d="M10.75 20L0.75 10V30L10.75 20Z" fill="url(#paint1_linear_648_731)"/>
<path d="M30.75 20L40.75 10H20.75L30.75 20Z" fill="url(#paint2_linear_648_731)"/>
<path d="M20.75 10L30.75 0H10.75L20.75 10Z" fill="url(#paint3_linear_648_731)"/>
<path d="M30.75 40L40.75 30H20.75L30.75 40Z" fill="url(#paint4_linear_648_731)"/>
<path d="M10.75 40L20.75 30H0.75L10.75 40Z" fill="url(#paint5_linear_648_731)"/>
<path d="M30.75 0L20.75 10H40.75L30.75 0Z" fill="url(#paint6_linear_648_731)"/>
<path d="M0.75 10H20.75L10.75 0L0.75 10Z" fill="url(#paint7_linear_648_731)"/>
<path d="M20.75 30L10.75 40H30.75L20.75 30Z" fill="url(#paint8_linear_648_731)"/>
<path d="M10.75 20L0.75 30H20.75L10.75 20Z" fill="url(#paint9_linear_648_731)"/>
<path d="M20.75 10H0.75L10.75 20L20.75 10Z" fill="url(#paint10_linear_648_731)"/>
</g>
<defs>
<linearGradient id="paint0_linear_648_731" x1="20.7396" y1="25.0122" x2="40.7396" y2="25.0122" gradientUnits="userSpaceOnUse">
<stop stop-color="white" stop-opacity="0.52"/>
<stop offset="1" stop-color="white" stop-opacity="0.62"/>
</linearGradient>
<linearGradient id="paint1_linear_648_731" x1="0.7396" y1="20.0162" x2="10.7396" y2="20.0162" gradientUnits="userSpaceOnUse">
<stop stop-color="white"/>
<stop offset="1" stop-color="white" stop-opacity="0.97"/>
</linearGradient>
<linearGradient id="paint2_linear_648_731" x1="20.7396" y1="15.0203" x2="40.7396" y2="15.0203" gradientUnits="userSpaceOnUse">
<stop stop-color="white" stop-opacity="0.52"/>
<stop offset="1" stop-color="white" stop-opacity="0.62"/>
</linearGradient>
<linearGradient id="paint3_linear_648_731" x1="10.7396" y1="5.0284" x2="30.7396" y2="5.0284" gradientUnits="userSpaceOnUse">
<stop stop-color="white" stop-opacity="0.8"/>
<stop offset="1" stop-color="white" stop-opacity="0.7"/>
</linearGradient>
<linearGradient id="paint4_linear_648_731" x1="20.7396" y1="35.0041" x2="40.7396" y2="35.0041" gradientUnits="userSpaceOnUse">
<stop stop-color="white" stop-opacity="0.67"/>
<stop offset="1" stop-color="white" stop-opacity="0.62"/>
</linearGradient>
<linearGradient id="paint5_linear_648_731" x1="0.7396" y1="35.0041" x2="20.7396" y2="35.0041" gradientUnits="userSpaceOnUse">
<stop stop-color="white" stop-opacity="0.89"/>
<stop offset="1" stop-color="white" stop-opacity="0.8"/>
</linearGradient>
<linearGradient id="paint6_linear_648_731" x1="20.7396" y1="5.0284" x2="40.7396" y2="5.0284" gradientUnits="userSpaceOnUse">
<stop stop-color="white" stop-opacity="0.67"/>
<stop offset="1" stop-color="white" stop-opacity="0.62"/>
</linearGradient>
<linearGradient id="paint7_linear_648_731" x1="0.7396" y1="5.0284" x2="20.7396" y2="5.0284" gradientUnits="userSpaceOnUse">
<stop stop-color="white" stop-opacity="0.89"/>
<stop offset="1" stop-color="white" stop-opacity="0.8"/>
</linearGradient>
<linearGradient id="paint8_linear_648_731" x1="10.7396" y1="35.0041" x2="30.7396" y2="35.0041" gradientUnits="userSpaceOnUse">
<stop stop-color="white" stop-opacity="0.8"/>
<stop offset="1" stop-color="white" stop-opacity="0.7"/>
</linearGradient>
<linearGradient id="paint9_linear_648_731" x1="0.7396" y1="25.0122" x2="20.7396" y2="25.0122" gradientUnits="userSpaceOnUse">
<stop stop-color="white" stop-opacity="0.9"/>
<stop offset="1" stop-color="white" stop-opacity="0.95"/>
</linearGradient>
<linearGradient id="paint10_linear_648_731" x1="0.7396" y1="15.0203" x2="20.7396" y2="15.0203" gradientUnits="userSpaceOnUse">
<stop stop-color="white" stop-opacity="0.9"/>
<stop offset="1" stop-color="white" stop-opacity="0.95"/>
</linearGradient>
<clipPath id="clip0_648_731">
<rect width="40" height="40" fill="white" transform="translate(0.75)"/>
</clipPath>
</defs>
</svg>
