<svg width="260" height="58" viewBox="0 0 260 58" fill="none" xmlns="http://www.w3.org/2000/svg">
<path d="M71.6596 19.9692C71.6596 18.0303 70.9915 17.0609 69.6553 17.0609C69.3779 17.0514 69.1004 17.0777 68.8297 17.1393C68.4803 17.2105 68.1251 17.25 67.7685 17.2574C67.6062 17.2599 67.4451 17.2279 67.2961 17.1635C67.147 17.0992 67.0133 17.0039 66.9038 16.884C66.787 16.7609 66.6956 16.616 66.6349 16.4575C66.5742 16.299 66.5454 16.1301 66.55 15.9605C66.55 15.0433 67.0985 14.5847 68.1954 14.5847C68.2215 14.5847 68.4172 14.5978 68.7824 14.6239C72.699 14.8859 74.527 15.0169 74.2663 15.0169H74.6554L84.0949 14.7415C84.2779 14.7415 84.9568 14.7022 86.1318 14.6235C86.5493 14.5973 86.9277 14.5843 87.2671 14.5843C88.625 14.5843 89.304 15.1869 89.304 16.3922C89.304 16.6018 89.2665 17.27 89.1916 18.3965C89.1355 19.235 89.1075 20.0079 89.1075 20.7154C89.0965 21.3581 89.1184 22.0009 89.173 22.6414C89.2457 23.202 89.2894 23.766 89.304 24.3312C89.304 25.3267 88.8323 25.8245 87.889 25.8245C86.9457 25.8245 86.4741 25.1269 86.4741 23.7317V21.6786C86.4741 19.4676 86.0172 18.1645 85.1036 17.7693C84.4244 17.48 82.6749 17.3353 79.8549 17.3353C78.7567 17.2988 77.6573 17.3389 76.5646 17.4553C75.4416 17.7481 74.8801 18.5466 74.8801 19.8507V23.781C74.8801 24.8291 75.1126 25.4317 75.5775 25.5888C75.8832 25.6533 76.1956 25.6796 76.5077 25.6672H78.0972C79.7253 25.6672 80.5394 25.104 80.5394 23.9774C80.5321 23.5696 80.4993 23.1626 80.4409 22.7589C80.3792 22.3154 80.3463 21.8683 80.3424 21.4205C80.3424 20.3723 80.8076 19.8483 81.7378 19.8483C82.668 19.8483 83.1331 20.4115 83.1331 21.5381C83.1331 21.7478 83.0484 22.5604 82.8788 23.976C82.7438 25.032 82.6711 26.0951 82.6613 27.1596C82.6613 27.6835 82.7138 28.6138 82.8186 29.9503C82.8447 30.16 82.9102 30.6186 83.0151 31.3261C83.0839 31.7817 83.1233 32.2412 83.1331 32.7018C83.1606 32.894 83.143 33.09 83.0816 33.2742C83.0202 33.4584 82.9168 33.6258 82.7795 33.7631C82.6422 33.9004 82.4748 34.0038 82.2906 34.0652C82.1064 34.1266 81.9104 34.1443 81.7182 34.1168C80.801 34.1168 80.3424 33.5666 80.3424 32.4662C80.3523 32.0455 80.3852 31.6256 80.4409 31.2085C80.4967 30.7914 80.5296 30.3715 80.5394 29.9508C80.5394 28.8243 79.7927 28.261 78.2994 28.261H76.5307C75.771 28.261 75.3058 28.392 75.1353 28.6539C74.9153 29.1884 74.8277 29.7681 74.8801 30.3437V32.7817C74.8801 33.2007 74.8931 33.764 74.9193 34.4715C74.9454 35.3361 74.9585 35.9126 74.9585 36.201C74.9846 37.2491 75.1941 37.9042 75.5871 38.1661C75.8739 38.3497 76.5551 38.4415 77.6306 38.4415H82.9787C84.5247 38.4415 85.5859 38.2122 86.1624 37.7536C86.7389 37.295 87.0271 36.4369 87.0271 35.1794C87.0271 34.7865 87.0075 34.2035 86.9683 33.4303C86.9291 32.6572 86.9094 32.074 86.9091 31.6808C86.9091 30.5017 87.3743 29.9121 88.3049 29.9121C89.2871 29.9121 89.7782 30.5147 89.7782 31.72C89.7782 32.1916 89.7586 32.9122 89.7194 33.8816C89.6802 34.851 89.6606 35.5716 89.6606 36.0432C89.6606 36.41 89.6802 36.9537 89.7194 37.6742C89.7586 38.3948 89.7782 38.9384 89.7782 39.3052C89.7782 40.5366 89.1755 41.1523 87.9703 41.1523C87.6835 41.1523 87.2249 41.1224 86.5945 41.0625C86.28 41.0319 85.7035 41.0166 84.865 41.0166C85.0486 41.0166 84.0267 40.9866 81.7995 40.9267C79.5722 40.8668 77.6464 40.8367 76.0221 40.8364C73.559 40.8364 71.1485 40.9281 68.7905 41.1117C68.6716 41.1132 68.5532 41.1263 68.4368 41.1509H68.2021C67.1017 41.1509 66.5515 40.6792 66.5515 39.7359C66.5515 38.8975 66.9576 38.4783 67.77 38.4783C67.9009 38.4783 68.2547 38.5044 68.8312 38.5567C69.0999 38.6326 69.3775 38.6723 69.6567 38.6747C70.993 38.6747 71.6611 37.6922 71.6611 35.7272L71.6596 19.9692ZM104.675 35.5308V33.0154C104.701 31.9411 105.173 31.404 106.09 31.404C107.007 31.404 107.465 32.0061 107.464 33.2104C107.464 36.0665 107.1 38.0582 106.371 39.1857C105.383 40.7055 103.757 41.4654 101.492 41.4654C99.4097 41.4654 97.9264 40.7973 97.0417 39.4611C96.3913 38.4917 96.0661 36.8409 96.0661 34.5088V25.0764C96.0661 24.526 95.8111 24.2509 95.3012 24.2509H94.0153C93.8192 24.2571 93.6238 24.2238 93.4409 24.1529C93.2579 24.082 93.0911 23.975 92.9503 23.8383C92.8141 23.7095 92.7061 23.5537 92.6335 23.3809C92.5608 23.208 92.5249 23.0219 92.5282 22.8345C92.5288 22.6516 92.5655 22.4707 92.6363 22.3021C92.7071 22.1335 92.8106 21.9806 92.9408 21.8521C93.0559 21.7197 93.1977 21.6129 93.3568 21.5388C93.5159 21.4647 93.6888 21.4249 93.8643 21.4219H95.3973C95.8435 21.4219 96.0665 21.173 96.0665 20.6752V16.6269C96.0665 15.6313 96.5776 15.1335 97.5996 15.1335C98.5429 15.1335 99.0145 15.6313 99.0145 16.6269V20.8335C99.0145 21.2264 99.2503 21.4229 99.722 21.4229H104.006C105.002 21.4229 105.499 21.8815 105.499 22.7986C105.499 23.7681 104.962 24.2528 103.888 24.2528H99.5642C99.1974 24.2528 99.014 24.528 99.014 25.0783V34.7468C99.014 37.498 99.9307 38.8736 101.764 38.8736C103.624 38.872 104.594 37.7577 104.675 35.5308ZM115.601 15.6106L115.442 23.2676C116.279 22.4232 117.252 21.7257 118.32 21.2044C119.294 20.8039 120.341 20.6099 121.394 20.6346C123.654 20.6346 125.467 21.2766 126.834 22.5606C127.516 23.2114 128.052 24.0002 128.406 24.8744C128.759 25.7487 128.922 26.6883 128.884 27.6305V34.1942C128.884 35.7402 128.897 36.5917 128.923 36.7488C129.028 38.0589 129.369 38.7139 129.945 38.7139C130.256 38.6907 130.562 38.6164 130.849 38.494C131.056 38.4524 131.267 38.4338 131.478 38.4386C132.447 38.4386 132.932 38.8847 132.932 39.7771C132.932 40.6694 132.303 41.1155 131.046 41.1155C130.546 41.1036 130.048 41.0642 129.553 40.9974C128.666 40.8815 127.774 40.8159 126.88 40.801C126.355 40.7923 125.829 40.8185 125.308 40.8794C124.207 41.0365 123.526 41.115 123.264 41.115C122.833 41.1297 122.413 40.9825 122.085 40.7025C121.933 40.5752 121.812 40.4155 121.731 40.2352C121.649 40.055 121.609 39.8587 121.613 39.6609C121.612 39.495 121.649 39.331 121.72 39.1812C121.792 39.0315 121.896 38.8998 122.026 38.7962C122.292 38.5636 122.635 38.4376 122.988 38.4424C123.337 38.4536 123.682 38.5199 124.01 38.6389C124.226 38.714 124.452 38.7539 124.68 38.757C125.466 38.757 125.872 37.9054 125.898 36.2024C125.898 35.8879 125.924 35.2722 125.976 34.3553V30.5431C125.976 27.8706 125.713 26.0758 125.187 25.1586C124.425 23.7963 123.083 23.1151 121.163 23.1151C119.085 23.1151 117.573 23.8225 116.626 25.2375C115.969 26.2069 115.627 27.7659 115.601 29.9145V32.7444C115.58 33.0117 115.528 33.2756 115.444 33.5302V34.2769C115.444 35.7703 115.457 36.6349 115.484 36.8707C115.619 38.1546 116.01 38.7966 116.656 38.7966C116.965 38.7793 117.271 38.7198 117.564 38.6198C117.845 38.5228 118.137 38.4634 118.433 38.4429C119.296 38.4429 119.727 38.8613 119.727 39.6982C119.727 40.6431 119.146 41.1155 117.986 41.1155C117.616 41.1155 117.062 41.0762 116.323 40.9974C115.469 40.9014 114.611 40.8489 113.751 40.8402C113.303 40.8402 112.683 40.8795 111.892 40.9583C110.836 41.0631 110.163 41.1155 109.873 41.1155C108.791 41.1155 108.25 40.6295 108.25 39.6576C108.25 38.8478 108.757 38.4429 109.771 38.4429C110.03 38.4286 110.288 38.466 110.532 38.5528C110.845 38.6405 111.167 38.696 111.492 38.7182C111.919 38.7182 112.206 38.3186 112.352 37.5194C112.55 35.8948 112.636 34.2587 112.61 32.6225V25.5874C112.61 21.6571 112.532 19.1746 112.375 18.1398C112.218 17.105 111.851 16.5875 111.275 16.5872C110.997 16.6 110.721 16.6395 110.45 16.7053C110.166 16.7732 109.876 16.8127 109.585 16.8233C108.693 16.8233 108.247 16.4041 108.247 15.5657C108.247 15.3828 108.291 15.2025 108.372 15.039C108.454 14.8754 108.573 14.7329 108.718 14.6225C109.038 14.3584 109.443 14.2189 109.858 14.2296C109.989 14.2296 110.435 14.2689 111.196 14.3476C111.732 14.4019 112.27 14.428 112.808 14.426C113.137 14.4171 113.466 14.3842 113.79 14.3276C114.089 14.2743 114.391 14.2414 114.694 14.2291C115.297 14.2291 115.598 14.6633 115.598 15.5317L115.601 15.6106ZM152.349 29.3681C152.401 29.982 152.334 30.6003 152.152 31.1889C152.021 31.412 151.64 31.5235 151.009 31.5235H138.476C138.244 31.4973 138.01 31.5457 137.807 31.6617C137.75 31.7216 137.706 31.7933 137.679 31.8717C137.651 31.9502 137.641 32.0336 137.649 32.1163C137.59 33.9282 138.224 35.6945 139.423 37.0547C139.968 37.6881 140.646 38.1935 141.409 38.535C142.172 38.8764 143.001 39.0456 143.837 39.0304C144.964 39.0383 146.068 38.7096 147.008 38.0863C147.902 37.5409 148.568 36.6889 148.88 35.689L149.235 34.5494C149.301 34.2617 149.47 34.0076 149.709 33.8343C149.948 33.6609 150.241 33.5799 150.535 33.6063C151.508 33.6063 151.994 34.104 151.994 35.0996C151.994 36.8026 151.129 38.3164 149.4 39.6408C147.715 40.9484 145.637 41.6473 143.504 41.6237C140.755 41.6237 138.567 40.6995 136.942 38.8511C135.317 37.0028 134.504 34.5202 134.504 31.4035C134.504 28.2068 135.368 25.6129 137.098 23.6218C137.928 22.6487 138.967 21.875 140.137 21.3579C141.308 20.8408 142.579 20.5936 143.858 20.6346C144.989 20.5992 146.115 20.8003 147.164 21.2252C148.213 21.65 149.162 22.2891 149.95 23.1017C150.748 23.933 151.371 24.9158 151.783 25.9921C152.195 27.0684 152.387 28.2164 152.348 29.3681H152.349ZM138.08 28.3776C138.08 28.7444 138.37 28.9278 138.948 28.9278H148.375C148.927 28.9278 149.203 28.7444 149.203 28.3776C149.207 27.6983 149.068 27.0258 148.796 26.4031C148.525 25.7804 148.126 25.2214 147.626 24.7619C147.142 24.2712 146.564 23.8826 145.927 23.6193C145.291 23.3559 144.607 23.2232 143.918 23.2288C142.425 23.2367 140.989 23.8048 139.895 24.8207C138.685 25.8819 138.08 27.0675 138.08 28.3776ZM161.191 22.4239V23.5042C161.785 22.6035 162.597 21.868 163.552 21.3664C164.508 20.8648 165.575 20.6136 166.653 20.636C168.284 20.5637 169.881 21.1194 171.114 22.1887C171.673 22.6889 172.115 23.305 172.41 23.9941C172.706 24.6832 172.847 25.4284 172.824 26.1778C172.87 27.1864 172.564 28.1797 171.959 28.9881C171.692 29.3355 171.346 29.6145 170.949 29.8024C170.553 29.9902 170.118 30.0816 169.68 30.0689C169.118 30.0837 168.571 29.8874 168.147 29.5187C167.949 29.3567 167.789 29.1524 167.68 28.9208C167.572 28.6892 167.516 28.4361 167.518 28.1802C167.519 27.9716 167.561 27.7651 167.642 27.5728C167.723 27.3805 167.841 27.2063 167.99 27.0602C168.129 26.9059 168.298 26.7824 168.487 26.6978C168.677 26.6131 168.882 26.5692 169.089 26.5688C169.264 26.5893 169.435 26.6289 169.6 26.6869C169.745 26.4207 169.825 26.1247 169.836 25.8221C169.834 25.4443 169.743 25.0723 169.568 24.7373C169.393 24.4023 169.141 24.1139 168.832 23.8962C168.115 23.3561 167.234 23.0787 166.336 23.1103C164.293 23.1103 162.93 24.0273 162.249 25.8613C161.83 26.9879 161.62 28.6909 161.62 30.9704V33.5642C161.62 35.3198 161.633 36.3023 161.66 36.5117C161.792 38.005 162.202 38.7517 162.889 38.7517C163.25 38.7496 163.61 38.7045 163.96 38.6174C164.207 38.5556 164.46 38.5218 164.715 38.5165C165.561 38.5165 165.984 38.9294 165.984 39.7551C165.984 40.6585 165.447 41.1103 164.373 41.1103H164.215C163.617 41.0954 163.02 41.0494 162.427 40.9726C161.834 40.8958 161.237 40.8498 160.639 40.8349C159.591 40.8349 158.765 40.8611 158.163 40.9133L155.964 41.1098C154.89 41.1098 154.352 40.6512 154.352 39.734C154.352 38.9217 154.855 38.5156 155.86 38.5156C156.059 38.5107 156.258 38.5238 156.455 38.5548L157.05 38.6728C157.232 38.7143 157.418 38.7405 157.605 38.7512C158.266 38.7512 158.623 38.1486 158.676 36.9433V34.939L158.558 26.0172C158.479 24.4712 158.086 23.6983 157.378 23.6983C157.088 23.707 156.799 23.74 156.514 23.7967C156.229 23.8535 155.939 23.8864 155.649 23.8952C154.784 23.8952 154.352 23.4824 154.352 22.6567C154.352 21.7532 154.915 21.3015 156.042 21.3015C156.436 21.3119 156.83 21.3448 157.221 21.3999C157.612 21.4551 158.006 21.4879 158.4 21.4984C158.743 21.4864 159.084 21.4535 159.422 21.3999C159.665 21.3298 159.917 21.2966 160.169 21.3015C160.85 21.3027 161.191 21.6769 161.191 22.4239ZM182.822 20.6351C184.398 20.5797 185.946 21.0651 187.209 22.0108V21.8536C187.209 20.8841 187.628 20.3994 188.467 20.3994C189.331 20.3994 189.763 20.8187 189.763 21.6571C189.763 21.8142 189.742 22.2073 189.698 22.8364C189.611 23.356 189.567 23.8818 189.567 24.4086C189.567 24.7231 189.6 25.1817 189.665 25.7844C189.731 26.387 189.764 26.8456 189.764 27.1601C189.764 28.1557 189.338 28.6535 188.487 28.6535C188.315 28.675 188.142 28.6575 187.978 28.6022C187.815 28.5469 187.666 28.4553 187.543 28.3343C187.42 28.2132 187.326 28.0659 187.268 27.9033C187.211 27.7408 187.19 27.5673 187.209 27.3958V26.0989C187.183 25.3127 186.729 24.6381 185.847 24.0749C184.918 23.4983 183.841 23.2046 182.748 23.2298C181.66 23.1917 180.591 23.5166 179.708 24.1533C179.332 24.4077 179.024 24.7502 178.811 25.151C178.597 25.5518 178.485 25.9986 178.484 26.4526C178.484 28.1295 179.641 29.1253 181.954 29.4398L184.241 29.7543C188.709 30.357 190.943 32.2042 190.943 35.2961C190.967 36.1747 190.785 37.0467 190.411 37.842C190.036 38.6372 189.48 39.3334 188.788 39.8746C187.351 41.0406 185.469 41.6237 183.144 41.6237C181.108 41.6667 179.119 41.0152 177.503 39.7766V40.5242C177.503 41.4675 177.057 41.9392 176.165 41.9392C175.195 41.9392 174.71 41.402 174.71 40.3277C174.824 39.651 174.902 38.9689 174.946 38.2842C174.998 37.92 175.024 37.5526 175.025 37.1847C175.028 36.5915 174.975 35.9994 174.867 35.416C174.777 34.9893 174.724 34.5553 174.71 34.1192C174.71 33.202 175.129 32.7434 175.968 32.7434C176.518 32.7434 176.865 32.8744 177.009 33.1364C177.215 33.8101 177.302 34.5146 177.265 35.2181C177.291 36.3447 177.881 37.2617 179.034 37.9692C180.374 38.7241 181.898 39.0916 183.435 39.0304C184.577 39.0753 185.701 38.7287 186.619 38.048C187.012 37.7661 187.331 37.3941 187.549 36.9632C187.768 36.5323 187.881 36.0552 187.877 35.5719C187.877 33.7901 186.462 32.7544 183.632 32.4647C180.933 32.1779 178.876 31.6473 177.461 30.8729C176.047 30.0985 175.339 28.7425 175.339 26.8049C175.315 25.9513 175.49 25.1038 175.851 24.3296C176.211 23.5553 176.747 22.8755 177.415 22.344C178.799 21.2047 180.602 20.6351 182.822 20.6351ZM205.327 27.9847C205.327 26.9366 205.982 26.3339 207.292 26.1768C207.239 25.743 207.093 25.3256 206.865 24.9527C206.637 24.5799 206.332 24.2602 205.97 24.0152C205.108 23.4592 204.095 23.1846 203.071 23.2293C202.22 23.2078 201.377 23.3933 200.614 23.7698C199.851 24.1464 199.191 24.7027 198.691 25.3909C197.586 26.832 197.034 28.7441 197.034 31.1272C197.034 33.5903 197.553 35.5226 198.591 36.9242C199.08 37.6043 199.73 38.1525 200.484 38.5195C201.237 38.8866 202.069 39.0611 202.907 39.0275C203.993 39.0502 205.056 38.7043 205.921 38.0461C206.792 37.3641 207.41 36.4091 207.674 35.3343C207.937 34.4171 208.095 33.8931 208.147 33.7621C208.26 33.5234 208.439 33.3222 208.663 33.1828C208.887 33.0434 209.146 32.9717 209.41 32.9762C209.614 32.9691 209.817 33.0035 210.006 33.0775C210.196 33.1515 210.369 33.2634 210.514 33.4064C210.657 33.5504 210.77 33.7222 210.844 33.9113C210.919 34.1004 210.954 34.3027 210.947 34.5059C210.906 35.3283 210.691 36.1327 210.318 36.8669C209.951 37.7048 209.447 38.4754 208.825 39.1465C208.058 39.9642 207.124 40.6083 206.087 41.0355C205.05 41.4628 203.934 41.6633 202.813 41.6237C201.593 41.667 200.378 41.4351 199.258 40.9453C198.139 40.4554 197.145 39.7201 196.348 38.7938C194.71 36.9072 193.892 34.4312 193.892 31.3658C193.892 28.1152 194.736 25.5148 196.425 23.5644C198.114 21.6141 200.361 20.6381 203.165 20.6365C205.055 20.568 206.908 21.1741 208.392 22.3464C209.053 22.8585 209.586 23.5177 209.947 24.2716C210.309 25.0254 210.49 25.8533 210.476 26.6893C210.51 27.56 210.223 28.4129 209.67 29.0865C209.42 29.3899 209.105 29.6324 208.747 29.7958C208.39 29.9592 208 30.0392 207.607 30.0297C207.008 30.0501 206.424 29.839 205.976 29.4403C205.768 29.2597 205.602 29.0358 205.49 28.7844C205.378 28.5329 205.322 28.26 205.327 27.9847ZM230.834 41.465C228.686 41.465 227.363 40.5347 226.867 38.6743C225.529 40.6405 223.432 41.6237 220.576 41.6237C218.454 41.6237 216.757 41.0996 215.487 40.0514C214.865 39.5459 214.369 38.9027 214.038 38.1727C213.707 37.4427 213.551 36.6458 213.58 35.8448C213.533 34.8615 213.771 33.8855 214.267 33.0346C214.762 32.1837 215.493 31.4944 216.371 31.0498C216.943 30.7131 217.558 30.4558 218.199 30.2849C218.709 30.167 219.737 30.0163 221.284 29.8327C223.485 29.5969 224.919 29.2695 225.586 28.8504C226.253 28.4313 226.588 27.6584 226.59 26.5315C226.612 26.0514 226.522 25.5726 226.328 25.133C226.133 24.6934 225.84 24.3049 225.47 23.998C224.569 23.3336 223.463 23.0067 222.345 23.0744C221.173 23.0725 220.025 23.414 219.044 24.0568C218.651 24.3187 218.455 24.5939 218.455 24.8823C218.455 24.9872 218.573 25.1182 218.809 25.2753C219.004 25.4356 219.156 25.6418 219.252 25.8753C219.348 26.1089 219.385 26.3625 219.359 26.6137C219.365 26.8585 219.317 27.1016 219.219 27.3257C219.12 27.5499 218.973 27.7496 218.789 27.9106C218.393 28.2571 217.881 28.4398 217.355 28.4216C217.036 28.4293 216.72 28.3703 216.425 28.2485C216.131 28.1266 215.865 27.9446 215.645 27.7141C215.42 27.4866 215.244 27.2163 215.126 26.9192C215.007 26.6221 214.95 26.3043 214.957 25.9846C214.957 24.5187 215.684 23.261 217.138 22.2116C218.686 21.1347 220.539 20.5835 222.424 20.6394C227.193 20.6394 229.577 22.9271 229.577 27.5024V35.4247C229.554 36.1706 229.58 36.9174 229.656 37.6599C229.813 38.5748 230.259 39.0323 230.994 39.0323C231.912 39.0323 232.37 38.1996 232.37 36.5341V34.6221C232.37 33.7893 232.77 33.373 233.569 33.373C234.421 33.373 234.846 34.0017 234.846 35.2593V37.6972C234.792 40.2094 233.454 41.4654 230.834 41.4654V41.465ZM226.433 33.644V30.8538C225.911 31.3459 225.29 31.7207 224.612 31.9532C223.491 32.2454 222.344 32.4296 221.187 32.5035C218.212 32.7903 216.724 33.8907 216.724 35.8047C216.706 36.2551 216.794 36.7036 216.982 37.1134C217.17 37.5233 217.452 37.8828 217.805 38.1628C218.653 38.779 219.687 39.0844 220.733 39.0275C222.489 39.0275 223.871 38.5495 224.879 37.5934C225.396 37.0775 225.801 36.4605 226.068 35.7809C226.336 35.1013 226.46 34.3738 226.433 33.644ZM242.114 22.5027V23.6223C242.849 22.6598 243.803 21.8866 244.896 21.367C245.99 20.8474 247.192 20.5965 248.403 20.6351C249.811 20.6334 251.195 21.0064 252.411 21.7159C253.542 22.3001 254.442 23.2487 254.966 24.4081C255.371 25.5282 255.558 26.7155 255.516 27.9058V35.3735C255.516 36.5 255.529 37.1682 255.555 37.3779C255.686 38.2702 256.04 38.7163 256.616 38.7163C256.926 38.7087 257.235 38.6758 257.54 38.6178C257.806 38.5653 258.075 38.5324 258.345 38.5194C258.509 38.5173 258.671 38.5475 258.823 38.6082C258.975 38.6689 259.113 38.7589 259.23 38.8731C259.35 38.9826 259.445 39.1163 259.509 39.2654C259.574 39.4145 259.606 39.5755 259.603 39.7379C259.605 39.9269 259.564 40.1139 259.482 40.2843C259.4 40.4546 259.28 40.6038 259.131 40.7202C258.811 40.9843 258.406 41.1238 257.992 41.1131C257.387 41.0932 256.783 41.0402 256.184 40.9544C255.402 40.8533 254.615 40.8008 253.826 40.7972C253.262 40.7913 252.698 40.8175 252.136 40.8756C250.826 41.0327 250.132 41.1112 250.053 41.1112C249.005 41.1112 248.481 40.6526 248.481 39.7355C248.481 38.9231 248.935 38.517 249.844 38.517C250.086 38.52 250.327 38.5462 250.565 38.5954C250.88 38.6719 251.201 38.7254 251.524 38.7555C252.165 38.7555 252.513 38.035 252.566 36.5939V29.2032C252.6 28.2429 252.534 27.2817 252.37 26.335C252.173 25.3967 251.627 24.568 250.843 24.0162C249.984 23.4141 248.957 23.0978 247.907 23.1122C245.819 23.1122 244.318 23.8589 243.405 25.3522C242.778 26.3742 242.465 28.1166 242.465 30.5794V35.8066C242.423 36.6 242.502 37.3953 242.701 38.1647C242.753 38.3512 242.867 38.5146 243.024 38.6286C243.181 38.7426 243.372 38.8006 243.565 38.7933C243.858 38.7808 244.148 38.7346 244.43 38.6556C244.725 38.5743 245.028 38.5281 245.334 38.5179C246.146 38.5179 246.553 38.9568 246.553 39.8344C246.553 40.6859 246.029 41.1117 244.98 41.1117C244.771 41.1117 244.089 41.0331 242.937 40.876C242.298 40.7935 241.655 40.754 241.011 40.758C240.276 40.7707 239.542 40.8232 238.812 40.9152C237.659 41.0462 237.004 41.1117 236.847 41.1117C235.746 41.1117 235.196 40.6655 235.196 39.7732C235.173 39.6006 235.191 39.4249 235.247 39.2602C235.304 39.0954 235.398 38.9461 235.522 38.8241C235.647 38.702 235.798 38.6106 235.963 38.5571C236.129 38.5035 236.305 38.4893 236.477 38.5156C236.727 38.5329 236.975 38.5724 237.218 38.6336C237.566 38.711 237.922 38.7506 238.278 38.7517C239.079 38.7517 239.494 37.9918 239.521 36.472V25.9803C239.523 25.3553 239.407 24.7354 239.181 24.1529C239.095 23.9919 238.964 23.8596 238.804 23.7722C238.644 23.6849 238.462 23.6464 238.28 23.6615C238.003 23.6737 237.728 23.7133 237.46 23.7795C237.191 23.8458 236.916 23.8853 236.639 23.8976C235.678 23.8976 235.198 23.4718 235.198 22.6203C235.198 21.7427 235.788 21.3038 236.967 21.3038C237.099 21.3012 237.231 21.3143 237.36 21.343L238.814 21.5003C239.183 21.5048 239.551 21.4718 239.913 21.4018C240.595 21.3362 240.948 21.3034 240.975 21.3034C241.734 21.3034 242.114 21.7032 242.114 22.5027Z" fill="white"/>
<path d="M12.4528 27.6134C12.4529 27.2896 12.5169 26.969 12.6412 26.6699C12.7655 26.3709 12.9477 26.0994 13.1773 25.8709C13.4068 25.6425 13.6792 25.4617 13.9788 25.3388C14.2785 25.2159 14.5994 25.1535 14.9232 25.155L19.0189 25.1683C19.672 25.1683 20.2983 25.4278 20.7601 25.8895C21.2218 26.3513 21.4812 26.9776 21.4812 27.6306V43.1186C21.9425 42.9819 22.5329 42.8361 23.1825 42.6831C23.6326 42.5772 24.0337 42.3224 24.3208 41.96C24.6079 41.5976 24.7642 41.1488 24.7643 40.6864V21.4761C24.7643 20.823 25.0237 20.1967 25.4855 19.7348C25.9472 19.273 26.5735 19.0134 27.2266 19.0133H31.3347C31.9878 19.0134 32.6141 19.273 33.0759 19.7348C33.5376 20.1967 33.797 20.823 33.797 21.4761V39.3064C33.797 39.3064 34.8248 38.8905 35.8253 38.4679C36.1971 38.3107 36.5143 38.0474 36.7375 37.7111C36.9606 37.3747 37.0798 36.98 37.0801 36.5764V15.3201C37.0801 14.6672 37.3395 14.0409 37.8011 13.5792C38.2628 13.1174 38.889 12.8579 39.5419 12.8578H43.6458C44.2984 12.8584 44.9241 13.1181 45.3853 13.5799C45.8466 14.0416 46.1057 14.6675 46.1057 15.3201V32.8239C49.6636 30.2454 53.2693 27.144 56.1308 23.415C56.5459 22.8737 56.8206 22.238 56.9304 21.5647C57.0402 20.8915 56.9816 20.2015 56.7598 19.5564C55.4353 15.7456 53.3298 12.2533 50.5781 9.30302C47.8264 6.35269 44.4891 4.00929 40.7798 2.42275C37.0705 0.83622 33.0708 0.0414991 29.0367 0.0894499C25.0026 0.137401 21.0229 1.02696 17.3523 2.70122C13.6818 4.37547 10.4011 6.79754 7.72033 9.81244C5.03954 12.8273 3.01765 16.3687 1.78404 20.2098C0.55043 24.051 0.132266 28.1074 0.556306 32.1194C0.980346 36.1314 2.23725 40.0107 4.2466 43.5091C4.59667 44.1126 5.11171 44.6037 5.7312 44.9246C6.35069 45.2456 7.0489 45.383 7.74381 45.3209C8.52012 45.2525 9.48669 45.1559 10.6359 45.0211C11.136 44.9642 11.5977 44.7254 11.9332 44.35C12.2686 43.9747 12.4542 43.4891 12.4547 42.9857V27.6134" fill="#21325B"/>
<path d="M12.3655 52.4522C16.6912 55.5991 21.8032 57.488 27.1358 57.9099C32.4685 58.3319 37.8139 57.2704 42.5806 54.8428C47.3474 52.4153 51.3498 48.7165 54.1448 44.1555C56.9399 39.5945 58.4188 34.3492 58.4178 28.9999C58.4178 28.3307 58.3867 27.6719 58.3422 27.0151C47.7478 42.8162 28.1861 50.2031 12.3655 52.4522Z" fill="#979695"/>
</svg>
