<svg width="21" height="24" viewBox="0 0 21 24" fill="none" xmlns="http://www.w3.org/2000/svg">
<g clip-path="url(#clip0_645_706)">
<path d="M3.2184 8.51122e-05C1.85202 8.51122e-05 0.739746 1.11315 0.739746 2.47949V21.5206C0.739746 22.8869 1.85202 24 3.2184 24H17.7785C19.1449 24 20.2572 22.887 20.2572 21.5206V5.86351C20.2572 5.86351 20.2962 5.40504 20.0972 4.9589C19.9106 4.5407 19.6065 4.24964 19.6065 4.24964C19.6058 4.24861 19.605 4.24758 19.6043 4.24656L15.9918 0.703259C15.9899 0.701238 15.9879 0.699237 15.9858 0.697257C15.9858 0.697257 15.6774 0.403575 15.2202 0.207386C14.6819 -0.0236164 14.127 0.000768945 14.127 0.000768945L14.1353 0L3.2184 8.51122e-05Z" fill="#F5F5F5"/>
<path d="M3.21841 0.814453H14.1353C14.1381 0.814481 14.1408 0.814481 14.1436 0.814453C14.1436 0.814453 14.5801 0.818684 14.8994 0.955704C15.2067 1.08758 15.4247 1.28721 15.4261 1.28855C15.4261 1.28855 15.4276 1.29009 15.4276 1.29009L19.031 4.82512C19.031 4.82512 19.2481 5.05432 19.3533 5.2902C19.4383 5.48059 19.4435 5.82891 19.4435 5.82891C19.4431 5.83466 19.4429 5.84042 19.4427 5.84618V21.5205C19.4427 22.4499 18.7079 23.1855 17.7785 23.1855H3.21841C2.28904 23.1855 1.5542 22.45 1.5542 21.5205V2.47944C1.5542 1.55003 2.28904 0.814482 3.21841 0.814482V0.814453Z" fill="#01192B"/>
<path d="M5.61309 14.2893C5.05273 13.7289 5.659 12.9589 7.30435 12.1413L8.33963 11.6268L8.74295 10.7443C8.96478 10.2589 9.29585 9.46701 9.47867 8.98445L9.81108 8.10705L9.58201 7.45773C9.30036 6.65933 9.19992 5.45954 9.37862 5.02812C9.62068 4.44375 10.4135 4.50371 10.7274 5.13012C10.9726 5.61934 10.9475 6.50532 10.6569 7.62266L10.4187 8.53869L10.6285 8.89492C10.7439 9.09085 11.0811 9.55607 11.3777 9.92874L11.9352 10.6222L12.6289 10.5317C14.8328 10.2441 15.5876 10.7329 15.5876 11.4337C15.5876 12.3181 13.8571 12.3911 12.4039 11.3705C12.077 11.1408 11.8524 10.9127 11.8524 10.9127C11.8524 10.9127 10.9421 11.0981 10.4939 11.2189C10.0312 11.3436 9.80037 11.4217 9.12264 11.6504C9.12264 11.6504 8.88485 11.9957 8.7299 12.2468C8.15342 13.1808 7.48032 13.9548 6.99962 14.2365C6.46141 14.5519 5.89718 14.5734 5.61309 14.2893ZM6.4925 13.9752C6.80749 13.7805 7.44504 13.0264 7.88637 12.3266L8.06505 12.0432L7.25146 12.4523C5.99487 13.0841 5.42 13.6796 5.71893 14.0397C5.88685 14.2421 6.08774 14.2253 6.4925 13.9752ZM14.6548 11.6841C14.9628 11.4683 14.9181 11.0334 14.5698 10.8581C14.2987 10.7216 14.0803 10.6936 13.3761 10.704C12.9433 10.7335 12.2475 10.8207 12.1296 10.8472C12.1296 10.8472 12.5118 11.1114 12.6816 11.2085C12.9075 11.3376 13.4565 11.5771 13.8573 11.6998C14.2527 11.8208 14.4815 11.808 14.6548 11.6841V11.6841ZM11.3728 10.32C11.1864 10.124 10.8693 9.7149 10.6683 9.41091C10.4053 9.06606 10.2735 8.82278 10.2735 8.82278C10.2735 8.82278 10.0813 9.44094 9.9236 9.81293L9.43169 11.0288L9.28906 11.3046C9.28906 11.3046 10.0473 11.056 10.4331 10.9552C10.8417 10.8485 11.6709 10.6854 11.6709 10.6854L11.3728 10.32ZM10.3152 6.07857C10.3627 5.67946 10.3829 5.28094 10.2547 5.07998C9.89901 4.69115 9.46972 5.0154 9.54243 5.93981C9.5669 6.25079 9.64415 6.7824 9.74744 7.11006L9.93523 7.70579L10.0674 7.2571C10.1401 7.01032 10.2516 6.47998 10.3152 6.07857Z" fill="#F5F5F5"/>
<path d="M6.56604 16.8843H7.47581C7.76651 16.8843 8.00248 16.9121 8.18371 16.9677C8.36495 17.0215 8.51748 17.1427 8.64129 17.3311C8.76511 17.5177 8.82701 17.7429 8.82701 18.0067C8.82701 18.2489 8.77677 18.4571 8.67628 18.6311C8.57579 18.8052 8.44032 18.9308 8.26985 19.008C8.10117 19.0851 7.84098 19.1237 7.48927 19.1237H7.17435V20.5584H6.56604V16.8843ZM7.17435 17.3553V18.6365H7.47581C7.74498 18.6365 7.9307 18.5863 8.03298 18.4858C8.13706 18.3853 8.1891 18.222 8.1891 17.9959C8.1891 17.8272 8.155 17.6909 8.08681 17.5868C8.01863 17.4809 7.94326 17.4163 7.86072 17.393C7.77997 17.3679 7.65167 17.3553 7.47581 17.3553L7.17435 17.3553Z" fill="white"/>
<path d="M9.29272 16.8843H10.1191C10.5192 16.8843 10.8386 16.9552 11.0773 17.0969C11.3177 17.2387 11.499 17.4495 11.621 17.7294C11.7448 18.0094 11.8067 18.3198 11.8067 18.6607C11.8067 19.0196 11.7511 19.3399 11.6398 19.6217C11.5304 19.9016 11.3617 20.1277 11.1338 20.3C10.9077 20.4722 10.5847 20.5584 10.1648 20.5584H9.29272V16.8843ZM9.90104 17.3715V20.0712H10.154C10.5075 20.0712 10.7642 19.9491 10.9239 19.7051C11.0836 19.4593 11.1634 19.1318 11.1634 18.7227C11.1634 17.8219 10.827 17.3715 10.154 17.3715H9.90104Z" fill="white"/>
<path d="M12.3907 16.8843H14.431V17.3715H12.9991V18.4696H14.1457V18.9568H12.9991V20.5584H12.3907V16.8843Z" fill="white"/>
</g>
<defs>
<clipPath id="clip0_645_706">
<rect width="19.5205" height="24" fill="white" transform="translate(0.739746)"/>
</clipPath>
</defs>
</svg>
