<svg width="264" height="56" viewBox="0 0 264 56" fill="none" xmlns="http://www.w3.org/2000/svg">
<path d="M220.828 28.1652C219.532 27.3389 218.105 26.7513 216.754 26.0167C215.878 25.5393 214.944 25.1168 214.183 24.5108C212.888 23.4825 213.155 21.4625 214.507 20.581C216.449 19.3323 219.666 20.03 220.009 22.5827C220.009 22.6377 220.066 22.6745 220.123 22.6745H223.055C223.131 22.6745 223.189 22.6194 223.169 22.546C223.017 20.7829 222.312 19.3139 221.018 18.3773C219.78 17.4775 218.372 17 216.867 17C209.119 17 208.414 24.9148 212.583 27.4124C213.06 27.7062 217.152 29.6894 218.6 30.5525C220.047 31.4156 220.504 32.995 219.875 34.2437C219.304 35.3823 217.819 36.1719 216.335 36.0801C214.715 35.9883 213.46 35.1436 213.021 33.8213C212.945 33.5827 212.907 33.1235 212.907 32.9216C212.907 32.8664 212.85 32.8113 212.793 32.8113H209.614C209.557 32.8113 209.5 32.8664 209.5 32.9216C209.5 35.1436 210.072 36.3739 211.632 37.4942C213.098 38.5592 214.696 39 216.354 39C220.694 39 222.941 36.631 223.397 34.1703C223.797 31.7645 223.055 29.5976 220.828 28.1652Z" fill="white"/>
<path d="M87.5929 18H86.236H84.7506C84.6956 18 84.6589 18.036 84.6405 18.072L82.1284 26.2127C82.0917 26.3208 81.9451 26.3208 81.9084 26.2127L79.3962 18.072C79.3778 18.018 79.3411 18 79.2861 18H77.8009H76.4438H74.6101C74.555 18 74.5 18.054 74.5 18.1081V38.892C74.5 38.9459 74.555 39 74.6101 39H77.6724C77.7275 39 77.7825 38.9459 77.7825 38.892V23.0969C77.7825 22.9708 77.9659 22.9529 78.0026 23.0609L80.533 31.2556L80.7164 31.8319C80.7347 31.8859 80.7714 31.904 80.8265 31.904H83.1737C83.2286 31.904 83.2653 31.8679 83.2836 31.8319L83.467 31.2556L85.9976 23.0609C86.0343 22.9348 86.2176 22.9708 86.2176 23.0969V38.892C86.2176 38.9459 86.2727 39 86.3276 39H89.39C89.445 39 89.5 38.9459 89.5 38.892V18.1081C89.5 18.054 89.445 18 89.39 18H87.5929Z" fill="white"/>
<path d="M173.732 18C173.677 18 173.64 18.036 173.622 18.072L171.111 26.2127C171.074 26.3208 170.927 26.3208 170.891 26.2127L168.378 18.072C168.36 18.018 168.323 18 168.268 18H163.61C163.555 18 163.5 18.054 163.5 18.1081V38.892C163.5 38.9459 163.555 39 163.61 39H166.673C166.728 39 166.783 38.9459 166.783 38.892V23.0969C166.783 22.9708 166.967 22.9529 167.003 23.0609L169.533 31.2556L169.716 31.8319C169.735 31.8859 169.771 31.904 169.826 31.904H172.174C172.229 31.904 172.265 31.8679 172.284 31.8319L172.467 31.2556L174.998 23.0609C175.035 22.9348 175.218 22.9708 175.218 23.0969V38.892C175.218 38.9459 175.273 39 175.328 39H178.39C178.445 39 178.5 38.9459 178.5 38.892V18.1081C178.5 18.054 178.445 18 178.39 18H173.732Z" fill="white"/>
<path d="M134.388 18H128.564H125.436H119.612C119.556 18 119.5 18.054 119.5 18.1081V20.7015C119.5 20.7556 119.556 20.8096 119.612 20.8096H125.324V38.892C125.324 38.9459 125.38 39 125.436 39H128.564C128.62 39 128.676 38.9459 128.676 38.892V20.8096H134.388C134.444 20.8096 134.5 20.7556 134.5 20.7015V18.1081C134.5 18.054 134.463 18 134.388 18Z" fill="white"/>
<path d="M152.552 39H155.384C155.459 39 155.515 38.9248 155.496 38.8497L149.644 17.0752C149.625 17.0188 149.588 17 149.532 17H148.451H146.55H145.468C145.413 17 145.375 17.0376 145.357 17.0752L139.504 38.8497C139.485 38.9248 139.541 39 139.616 39H142.449C142.505 39 142.542 38.9624 142.561 38.9248L144.257 32.588C144.275 32.5317 144.313 32.5128 144.369 32.5128H150.632C150.688 32.5128 150.726 32.5504 150.744 32.588L152.44 38.9248C152.459 38.9624 152.515 39 152.552 39ZM145.114 29.4103L147.388 20.9299C147.426 20.8171 147.575 20.8171 147.612 20.9299L149.886 29.4103C149.905 29.4855 149.849 29.5606 149.774 29.5606H145.226C145.152 29.5606 145.096 29.4855 145.114 29.4103Z" fill="white"/>
<path d="M199.552 39H202.384C202.459 39 202.515 38.9248 202.496 38.8497L196.644 17.0752C196.625 17.0188 196.588 17 196.532 17H195.451H193.55H192.468C192.412 17 192.375 17.0376 192.356 17.0752L186.504 38.8497C186.485 38.9248 186.541 39 186.616 39H189.449C189.505 39 189.543 38.9624 189.561 38.9248L191.257 32.588C191.276 32.5317 191.313 32.5128 191.369 32.5128H197.632C197.688 32.5128 197.726 32.5504 197.744 32.588L199.44 38.9248C199.459 38.9624 199.496 39 199.552 39ZM192.114 29.4103L194.388 20.9299C194.425 20.8171 194.575 20.8171 194.612 20.9299L196.886 29.4103C196.905 29.4855 196.849 29.5606 196.774 29.5606H192.226C192.151 29.5606 192.095 29.4855 192.114 29.4103Z" fill="white"/>
<path d="M101.741 35.9176V29.4643C101.741 29.4103 101.795 29.3562 101.85 29.3562H109.907C109.961 29.3562 110.015 29.3021 110.015 29.248V26.6523C110.015 26.5983 109.961 26.5442 109.907 26.5442H101.85C101.795 26.5442 101.741 26.4901 101.741 26.436V20.9202C101.741 20.8661 101.795 20.812 101.85 20.812H111.011C111.065 20.812 111.12 20.7579 111.12 20.7039V18.1082C111.12 18.0541 111.065 18 111.011 18H101.741H98.6087C98.5543 18 98.5 18.0541 98.5 18.1082V20.812V26.5622V29.3743V36.0437V38.8918C98.5 38.9459 98.5543 39 98.6087 39H101.741H111.391C111.446 39 111.5 38.9459 111.5 38.8918V36.152C111.5 36.0979 111.446 36.0437 111.391 36.0437H101.831C101.777 36.0258 101.741 35.9896 101.741 35.9176Z" fill="white"/>
<path d="M248.465 38.8018L237.677 28.0497C237.64 28.0137 237.64 27.9417 237.677 27.9057L247.383 18.1801C247.458 18.1081 247.402 18 247.308 18H243.333C243.296 18 243.277 18.018 243.259 18.036L235.028 26.2847C234.954 26.3567 234.842 26.3027 234.842 26.2126V18.1081C234.842 18.054 234.785 18 234.729 18H231.612C231.556 18 231.5 18.054 231.5 18.1081V38.8919C231.5 38.9459 231.556 39 231.612 39H234.729C234.785 39 234.842 38.9459 234.842 38.8919V29.7427C234.842 29.6527 234.972 29.5986 235.028 29.6706L244.359 38.9639C244.378 38.9819 244.415 39 244.434 39H248.409C248.483 38.9819 248.539 38.8559 248.465 38.8018Z" fill="white"/>
<path d="M53.5 6L35.5 20L38.8473 11.7493L53.5 6Z" fill="#E17726" stroke="#E17726" stroke-width="0.181818" stroke-linecap="round" stroke-linejoin="round"/>
<path d="M10.5 6L29.5 20L26.1058 11.6962L10.5 6Z" fill="#E27625" stroke="#E27625" stroke-width="0.181818" stroke-linecap="round" stroke-linejoin="round"/>
<path d="M47.2192 38L42.5 45.2154L52.6052 48L55.5 38.1577L47.2192 38Z" fill="#E27625" stroke="#E27625" stroke-width="0.181818" stroke-linecap="round" stroke-linejoin="round"/>
<path d="M8.5 38.1577L11.6069 48L22.5 45.2154L17.4228 38L8.5 38.1577Z" fill="#E27625" stroke="#E27625" stroke-width="0.181818" stroke-linecap="round" stroke-linejoin="round"/>
<path d="M21.5877 25.2065L18.5 29.535L29.5 30L29.1334 19L21.5877 25.2065Z" fill="#E27625" stroke="#E27625" stroke-width="0.181818" stroke-linecap="round" stroke-linejoin="round"/>
<path d="M42.6929 25.2604L35.7281 19L35.5 30L45.5 29.5402L42.6929 25.2604Z" fill="#E27625" stroke="#E27625" stroke-width="0.181818" stroke-linecap="round" stroke-linejoin="round"/>
<path d="M22.5 45L28.5 42.0702L23.3348 38L22.5 45Z" fill="#E27625" stroke="#E27625" stroke-width="0.181818" stroke-linecap="round" stroke-linejoin="round"/>
<path d="M35.5 42.0702L42.5 45L41.5436 38L35.5 42.0702Z" fill="#E27625" stroke="#E27625" stroke-width="0.181818" stroke-linecap="round" stroke-linejoin="round"/>
<path d="M42.5 45.141L35.5 42L36.0697 46.2131L36.0086 48L42.5 45.141Z" fill="#D5BFB2" stroke="#D5BFB2" stroke-width="0.181818" stroke-linecap="round" stroke-linejoin="round"/>
<path d="M22.5 45.141L28.0653 48L28.0305 46.2131L28.5 42L22.5 45.141Z" fill="#D5BFB2" stroke="#D5BFB2" stroke-width="0.181818" stroke-linecap="round" stroke-linejoin="round"/>
<path d="M28.5 35L23.5 33.5763L27.0314 32L28.5 35Z" fill="#233447" stroke="#233447" stroke-width="0.181818" stroke-linecap="round" stroke-linejoin="round"/>
<path d="M36.5 35L37.9635 32L41.5 33.5763L36.5 35Z" fill="#233447" stroke="#233447" stroke-width="0.181818" stroke-linecap="round" stroke-linejoin="round"/>
<path d="M22.5565 45L23.5 38L17.5 38.153L22.5565 45Z" fill="#CC6228" stroke="#CC6228" stroke-width="0.181818" stroke-linecap="round" stroke-linejoin="round"/>
<path d="M41.5 38L42.2705 45L46.5 38.153L41.5 38Z" fill="#CC6228" stroke="#CC6228" stroke-width="0.181818" stroke-linecap="round" stroke-linejoin="round"/>
<path d="M45.5 30L35.5 30.4075L36.4298 35L37.9035 32.2257L41.465 33.6833L45.5 30Z" fill="#CC6228" stroke="#CC6228" stroke-width="0.181818" stroke-linecap="round" stroke-linejoin="round"/>
<path d="M22.9579 33.6833L26.8561 32.2257L28.4772 35L29.5 30.4075L18.5 30L22.9579 33.6833Z" fill="#CC6228" stroke="#CC6228" stroke-width="0.181818" stroke-linecap="round" stroke-linejoin="round"/>
<path d="M18.5 30L23.5 38L23.3325 34.0257L18.5 30Z" fill="#E27525" stroke="#E27525" stroke-width="0.181818" stroke-linecap="round" stroke-linejoin="round"/>
<path d="M41.6506 34.0257L41.5 38L45.5 30L41.6506 34.0257Z" fill="#E27525" stroke="#E27525" stroke-width="0.181818" stroke-linecap="round" stroke-linejoin="round"/>
<path d="M29.1464 30L28.5 35.5025L29.317 42L29.5 33.4367L29.1464 30Z" fill="#E27525" stroke="#E27525" stroke-width="0.181818" stroke-linecap="round" stroke-linejoin="round"/>
<path d="M35.1914 30L34.5 33.418L34.8457 42L36.5 35.5025L35.1914 30Z" fill="#E27525" stroke="#E27525" stroke-width="0.181818" stroke-linecap="round" stroke-linejoin="round"/>
<path d="M35.8248 35.4483L34.5 41.4137L35.4492 42L41.3221 38L41.5 34L35.8248 35.4483Z" fill="#F5841F" stroke="#F5841F" stroke-width="0.181818" stroke-linecap="round" stroke-linejoin="round"/>
<path d="M23.5 34L23.6361 38L28.6841 42L29.5 41.4137L28.3612 35.4483L23.5 34Z" fill="#F5841F" stroke="#F5841F" stroke-width="0.181818" stroke-linecap="round" stroke-linejoin="round"/>
<path d="M36.5207 48.0522L36.5768 46.1446L36.0896 45.7028H28.9293L28.4607 46.1446L28.4982 48.0522L22.5 45L24.5993 46.8474L28.8543 50H36.1457L40.4194 46.8474L42.5 45L36.5207 48.0522Z" fill="#C0AC9D" stroke="#C0AC9D" stroke-width="0.181818" stroke-linecap="round" stroke-linejoin="round"/>
<path d="M35.9826 42.6588L35.0957 42H29.8856L28.9989 42.6588L28.5 47L28.9619 46.5736H36.0196L36.5 47L35.9826 42.6588Z" fill="#161616" stroke="#161616" stroke-width="0.181818" stroke-linecap="round" stroke-linejoin="round"/>
<path d="M53.9615 20.6727L55.5 13.0701L53.1832 6L35.5 19.3139L42.3053 25.1535L51.9162 28L54.0339 25.4842L53.1109 24.8046L54.5768 23.4458L53.4547 22.5643L54.9208 21.4257L53.9615 20.6727Z" fill="#763E1A" stroke="#763E1A" stroke-width="0.181818" stroke-linecap="round" stroke-linejoin="round"/>
<path d="M8.5 13.0701L10.0566 20.6727L9.06109 21.4257L10.5453 22.5643L9.42308 23.4458L10.8891 24.8046L9.96606 25.4842L12.0837 28L21.6947 25.1535L28.5 19.3139L10.8167 6L8.5 13.0701Z" fill="#763E1A" stroke="#763E1A" stroke-width="0.181818" stroke-linecap="round" stroke-linejoin="round"/>
<path d="M52.3376 27.842L42.9036 25L45.7462 29.4373L41.5 38L47.1142 37.9267H55.5L52.3376 27.842Z" fill="#F5841F" stroke="#F5841F" stroke-width="0.181818" stroke-linecap="round" stroke-linejoin="round"/>
<path d="M21.9943 25L11.8736 27.842L8.5 37.9267H17.4772L23.5 38L18.9448 29.4373L21.9943 25Z" fill="#F5841F" stroke="#F5841F" stroke-width="0.181818" stroke-linecap="round" stroke-linejoin="round"/>
<path d="M34.9374 30.3252L35.5817 19.6187L38.5 12H25.5L28.4183 19.6187L29.0626 30.3252L29.309 33.6869L29.328 42H34.672L34.691 33.6869L34.9374 30.3252Z" fill="#F5841F" stroke="#F5841F" stroke-width="0.181818" stroke-linecap="round" stroke-linejoin="round"/>
</svg>
