<svg width="373" height="100" viewBox="0 0 373 100" fill="none" xmlns="http://www.w3.org/2000/svg">
<g clip-path="url(#clip0_25_2239)">
<path fill-rule="evenodd" clip-rule="evenodd" d="M77.2045 6.75e-06V0.212015L76.9048 2.44792e-05L25.3239 74.4429H0L4.42531e-06 100H38.2262V99.8137L38.489 100L90.0701 25.5571H90.1344V100H115.425V25.5571V0L77.2045 6.75e-06Z" fill="url(#paint0_linear_25_2239)"/>
<path fill-rule="evenodd" clip-rule="evenodd" d="M2.5187e-05 100H25.2903V25.5575L25.324 25.5577L76.9049 100L77.2045 99.7883V100H115.425V74.4433V0.000488281L90.1345 0.00049276V74.4433H90.0702L38.4891 0.000509823L38.226 0.186596V0.000533719L0 0.000540469L1.2304e-05 25.5577L2.5187e-05 100Z" fill="url(#paint1_linear_25_2239)"/>
<path d="M140.663 11.5771H149.753L166.429 39.5771H166.892L166.429 31.5271V11.5771H174.187V53.3438H165.965L148.363 23.7688H147.9L148.363 31.8188V53.3438H140.663V11.5771Z" fill="white"/>
<path d="M199.007 19.0438V28.7271H215.624V36.1938H199.007V45.8771H217.477V53.3438H191.19V11.5771H217.477V19.0438H199.007Z" fill="white"/>
<path d="M243.714 31.5271L231.15 11.5771H240.819L248.867 25.2271H249.331L257.379 11.5771H267.048L254.484 31.5271L268.091 53.3438H258.363L249.331 38.2938H248.867L239.835 53.3438H230.107L243.714 31.5271Z" fill="white"/>
<path d="M297.068 54.2771C294.636 54.2771 292.418 53.8882 290.41 53.1105C288.441 52.2938 286.762 51.1271 285.372 49.6105C283.983 48.0938 282.903 46.2661 282.13 44.1271C281.358 41.9494 280.972 39.4798 280.972 36.7188V11.5771H288.788V37.1855C288.788 38.5855 288.962 39.8688 289.309 41.0355C289.657 42.2021 290.178 43.2132 290.873 44.0688C291.568 44.9244 292.436 45.6048 293.478 46.1105C294.521 46.5771 295.718 46.8105 297.068 46.8105C298.458 46.8105 299.674 46.5771 300.716 46.1105C301.758 45.6048 302.627 44.9244 303.322 44.0688C304.016 43.2132 304.537 42.2021 304.885 41.0355C305.232 39.8688 305.406 38.5855 305.406 37.1855V11.5771H313.223V36.7188C313.223 39.3244 312.838 41.7161 312.065 43.8938C311.333 46.0327 310.251 47.8798 308.822 49.4355C307.433 50.9521 305.735 52.1382 303.727 52.9938C301.758 53.8494 299.539 54.2771 297.068 54.2771Z" fill="white"/>
<path d="M329.317 11.5771H337.018L349.699 33.6855H350.162L362.842 11.5771H370.601V53.3438H362.842V32.7521L363.305 25.7521H362.842L352.304 44.4771H347.614L337.018 25.7521H336.555L337.018 32.7521V53.3438H329.317V11.5771Z" fill="white"/>
<path fill-rule="evenodd" clip-rule="evenodd" d="M140.146 11.0562H150.046L166.304 38.3549L165.912 31.542V11.0562H174.704V53.8645H165.673L148.488 24.9915L148.88 31.8036V53.8645H140.146V11.0562ZM148.363 23.7686L165.965 53.3436H174.187V11.577H166.429V31.527L166.892 39.577H166.429L149.753 11.577H140.662V53.3436H148.363V31.8186L147.9 23.7686H148.363ZM216.141 28.2061V36.7145H199.524V45.3561H217.994V53.8645H190.673V11.0562H217.994V19.5645H199.524V28.2061H216.141ZM199.007 19.0437H217.477V11.577H191.19V53.3436H217.477V45.877H199.007V36.1936H215.624V28.727H199.007V19.0437ZM243.714 31.527L231.15 11.577H240.819L248.867 25.227H249.331L257.379 11.577H267.048L254.484 31.527L268.091 53.3436H258.363L249.331 38.2936H248.867L239.835 53.3436H230.107L243.714 31.527ZM249.099 38.9143L240.126 53.8645H229.173L243.102 31.5284L230.209 11.0562H241.113L249.099 24.5999L257.085 11.0562H267.989L255.096 31.5284L269.025 53.8645H258.072L249.099 38.9143ZM290.213 53.592C288.178 52.7476 286.435 51.5382 284.994 49.9636C283.552 48.3911 282.438 46.5022 281.644 44.3049V44.3022C280.848 42.0584 280.455 39.5282 280.455 36.7186V11.0562H289.305V37.1853C289.305 38.542 289.475 39.7743 289.806 40.8857C290.135 41.9932 290.627 42.9415 291.274 43.7388C291.917 44.5305 292.721 45.1636 293.695 45.6376C294.659 46.0676 295.78 46.2895 297.068 46.2895C298.398 46.2895 299.537 46.0668 300.499 45.6376C301.475 45.1636 302.279 44.5305 302.922 43.7388C303.57 42.9415 304.06 41.9932 304.391 40.8857C304.722 39.7743 304.889 38.542 304.889 37.1853V11.0562H313.74V36.7186C313.74 39.3755 313.347 41.8263 312.553 44.0663C311.798 46.2676 310.681 48.1776 309.203 49.7891C307.759 51.363 305.999 52.5905 303.93 53.4728C301.889 54.3599 299.597 54.7978 297.068 54.7978C294.583 54.7978 292.298 54.3999 290.226 53.5963L290.213 53.592ZM308.822 49.4353C310.251 47.8797 311.333 46.0326 312.065 43.8936C312.838 41.7159 313.223 39.3243 313.223 36.7186V11.577H305.406V37.1853C305.406 38.5853 305.232 39.8686 304.885 41.0353C304.537 42.202 304.016 43.213 303.322 44.0686C302.627 44.9243 301.758 45.6047 300.716 46.1103C299.674 46.577 298.458 46.8103 297.068 46.8103C295.718 46.8103 294.521 46.577 293.478 46.1103C292.436 45.6047 291.568 44.9243 290.873 44.0686C290.178 43.213 289.657 42.202 289.309 41.0353C288.962 39.8686 288.788 38.5853 288.788 37.1853V11.577H280.972V36.7186C280.972 39.4797 281.358 41.9493 282.13 44.127C282.903 46.2659 283.983 48.0936 285.372 49.6103C286.762 51.127 288.441 52.2936 290.41 53.1103C292.417 53.888 294.636 54.277 297.068 54.277C299.539 54.277 301.758 53.8493 303.727 52.9936C305.735 52.138 307.433 50.952 308.822 49.4353ZM328.8 11.0562H337.316L349.93 33.048L362.542 11.0562H371.118V53.8645H362.325V32.7347L362.699 27.0593L352.604 44.9978H347.312L337.159 27.0528L337.535 32.7347V53.8645H328.8V11.0562ZM337.018 25.752L347.614 44.477H352.304L362.842 25.752H363.305L362.842 32.752V53.3436H370.601V11.577H362.842L350.162 33.6853H349.698L337.018 11.577H329.317V53.3436H337.018V32.752L336.555 25.752H337.018Z" fill="white"/>
<path d="M145.274 80.5895C145.991 80.5895 146.549 80.402 146.949 80.027C147.362 79.638 147.569 79.124 147.569 78.4853C147.569 77.8186 147.362 77.2978 146.949 76.9228C146.549 76.5478 145.991 76.3603 145.274 76.3603H143.02V80.5895H145.274ZM142.999 83.0686V88.6311H140.146V73.8603H145.625C146.342 73.8603 146.997 73.9782 147.59 74.2145C148.183 74.4365 148.693 74.7561 149.12 75.1728C149.548 75.5755 149.872 76.0615 150.092 76.6311C150.327 77.1865 150.444 77.7978 150.444 78.4645C150.444 79.1311 150.327 79.749 150.092 80.3186C149.872 80.888 149.548 81.374 149.12 81.777C148.693 82.1797 148.183 82.499 147.59 82.7353C146.997 82.9574 146.342 83.0686 145.625 83.0686H142.999Z" fill="white"/>
<path d="M155.728 88.6311V73.8603H158.581V85.8811H165.116V88.6311H155.728Z" fill="white"/>
<path d="M179.289 85.2563H173.333L172.113 88.6312H169.094L174.719 73.8604H178.028L183.611 88.6312H180.509L179.289 85.2563ZM174.285 82.6312H178.338L176.311 77.0479L174.285 82.6312Z" fill="white"/>
<path d="M193.397 76.5895V88.6311H190.523V76.5895H185.891V73.8603H198.029V76.5895H193.397Z" fill="white"/>
<path d="M203.14 88.6312V73.8604H212.404V76.5895H205.993V80.2354H211.701V82.8812H206.014V88.6312H203.14Z" fill="white"/>
<path d="M219.841 81.2349C219.841 82.0682 219.973 82.7974 220.234 83.4224C220.496 84.0334 220.842 84.5403 221.268 84.9432C221.71 85.3459 222.198 85.6515 222.736 85.8599C223.288 86.0542 223.846 86.1515 224.411 86.1515C224.978 86.1515 225.536 86.0542 226.086 85.8599C226.638 85.6515 227.128 85.3459 227.554 84.9432C227.997 84.5403 228.348 84.0334 228.609 83.4224C228.871 82.7974 229.002 82.0682 229.002 81.2349C229.002 80.4015 228.871 79.6792 228.609 79.0682C228.348 78.4432 227.997 77.9292 227.554 77.5265C227.128 77.1236 226.638 76.8251 226.086 76.6307C225.536 76.4224 224.978 76.3182 224.411 76.3182C223.846 76.3182 223.288 76.4224 222.736 76.6307C222.198 76.8251 221.71 77.1236 221.268 77.5265C220.842 77.9292 220.496 78.4432 220.234 79.0682C219.973 79.6792 219.841 80.4015 219.841 81.2349ZM216.884 81.2557C216.884 80.0611 217.091 78.9917 217.504 78.0474C217.918 77.089 218.47 76.2765 219.158 75.6099C219.849 74.9432 220.647 74.4361 221.557 74.089C222.467 73.7278 223.418 73.5474 224.411 73.5474C225.404 73.5474 226.355 73.7278 227.265 74.089C228.189 74.4361 228.995 74.9432 229.684 75.6099C230.375 76.2765 230.925 77.089 231.338 78.0474C231.752 78.9917 231.959 80.0611 231.959 81.2557C231.959 82.4501 231.752 83.5194 231.338 84.464C230.925 85.4084 230.375 86.214 229.684 86.8807C228.995 87.5474 228.189 88.0611 227.265 88.4224C226.355 88.7694 225.404 88.9432 224.411 88.9432C223.418 88.9432 222.467 88.7694 221.557 88.4224C220.647 88.0611 219.849 87.5474 219.158 86.8807C218.47 86.214 217.918 85.4084 217.504 84.464C217.091 83.5194 216.884 82.4501 216.884 81.2557Z" fill="white"/>
<path d="M241.898 82.9436H240.41V88.6311H237.535V73.8603H243.263C243.979 73.8603 244.62 73.9782 245.186 74.2145C245.765 74.4505 246.253 74.7699 246.655 75.1728C247.068 75.5755 247.385 76.0547 247.606 76.6103C247.825 77.1657 247.937 77.763 247.937 78.402C247.937 79.4436 247.653 80.3324 247.089 81.0686C246.537 81.8047 245.778 82.3115 244.814 82.5895L247.957 88.6311H244.773L241.898 82.9436ZM242.726 80.4645C243.456 80.4645 244.02 80.277 244.421 79.902C244.82 79.527 245.021 79.0338 245.021 78.4228C245.021 77.7978 244.82 77.2978 244.421 76.9228C244.02 76.5478 243.456 76.3603 242.726 76.3603H240.41V80.4645H242.726Z" fill="white"/>
<path d="M267.106 88.6311V78.277L262.888 88.6311H260.51L256.291 78.3603V88.6311H253.562V73.8603H257.325L261.73 84.527L266.031 73.8603H269.919V88.6311H267.106Z" fill="white"/>
</g>
<defs>
<linearGradient id="paint0_linear_25_2239" x1="8.43487" y1="73.4615" x2="95.8568" y2="-6.08182" gradientUnits="userSpaceOnUse">
<stop stop-color="#00EFC4"/>
<stop offset="1" stop-color="#0B92F3"/>
</linearGradient>
<linearGradient id="paint1_linear_25_2239" x1="8.43489" y1="26.5389" x2="95.8568" y2="106.082" gradientUnits="userSpaceOnUse">
<stop stop-color="#00EFC4"/>
<stop offset="1" stop-color="#0B92F3"/>
</linearGradient>
<clipPath id="clip0_25_2239">
<rect width="372.222" height="100" fill="white"/>
</clipPath>
</defs>
</svg>
