<svg width="119" height="32" viewBox="0 0 119 32" fill="none" xmlns="http://www.w3.org/2000/svg">
<g clip-path="url(#clip0_354_651)">
<path fill-rule="evenodd" clip-rule="evenodd" d="M24.6317 2.16e-06V0.0678447L24.5361 7.83333e-06L8.07947 23.8217H0L1.41187e-06 32H12.1959V31.9404L12.2797 32L28.7364 8.17827H28.7569V32H36.8256V8.17827V0L24.6317 2.16e-06Z" fill="url(#paint0_linear_354_651)"/>
<path fill-rule="evenodd" clip-rule="evenodd" d="M-7.22299e-06 32H8.06871V8.1783L8.07947 8.17837L24.5361 32L24.6317 31.9322V32H36.8256V23.8218V6.10352e-05L28.7569 6.24685e-05V23.8218H28.7364L12.2797 6.79285e-05L12.1958 0.0596154V7.55752e-05L-1.52588e-05 7.77352e-05L-1.13333e-05 8.17837L-7.22299e-06 32Z" fill="url(#paint1_linear_354_651)"/>
<path d="M44.8778 9.16669H47.7781L53.0984 18.1267H53.2461L53.0984 15.5507V9.16669H55.5737V22.532H52.9506L47.3348 13.068H47.187L47.3348 15.644V22.532H44.8778V9.16669Z" fill="white"/>
<path d="M63.4924 11.556V14.6547H68.7939V17.044H63.4924V20.1427H69.385V22.532H60.9985V9.16669H69.385V11.556H63.4924Z" fill="white"/>
<path d="M77.756 15.5507L73.7473 9.16669H76.8323L79.4001 13.5347H79.5478L82.1156 9.16669H85.2006L81.1919 15.5507L85.5331 22.532H82.4296L79.5478 17.716H79.4001L76.5183 22.532H73.4148L77.756 15.5507Z" fill="white"/>
<path d="M94.7782 22.8307C94.0024 22.8307 93.2945 22.7062 92.6538 22.4573C92.0258 22.196 91.49 21.8227 91.0467 21.3373C90.6033 20.852 90.2589 20.2671 90.0122 19.5827C89.7661 18.8858 89.6427 18.0955 89.6427 17.212V9.16669H92.1366V17.3613C92.1366 17.8093 92.192 18.22 92.3029 18.5933C92.4137 18.9667 92.5799 19.2902 92.8016 19.564C93.0233 19.8378 93.3004 20.0555 93.6329 20.2173C93.9654 20.3667 94.3474 20.4413 94.7782 20.4413C95.2216 20.4413 95.6095 20.3667 95.9421 20.2173C96.2746 20.0555 96.5517 19.8378 96.7733 19.564C96.995 19.2902 97.1613 18.9667 97.2721 18.5933C97.383 18.22 97.4384 17.8093 97.4384 17.3613V9.16669H99.9322V17.212C99.9322 18.0458 99.8095 18.8111 99.5628 19.508C99.3292 20.1925 98.9842 20.7835 98.5283 21.2813C98.0849 21.7667 97.5433 22.1462 96.9027 22.42C96.2746 22.6938 95.5667 22.8307 94.7782 22.8307V22.8307Z" fill="white"/>
<path d="M105.067 9.16669H107.524L111.57 16.2413H111.717L115.763 9.16669H118.238V22.532H115.763V15.9427L115.911 13.7027H115.763L112.401 19.6947H110.905L107.524 13.7027H107.376L107.524 15.9427V22.532H105.067V9.16669Z" fill="white"/>
<path fill-rule="evenodd" clip-rule="evenodd" d="M44.7129 9H47.8715L53.0585 17.7356L52.9334 15.5555V9H55.7387V22.6987H52.8571L47.3747 13.4593L47.4997 15.6392V22.6987H44.7129V9ZM47.3347 13.068L52.9506 22.532H55.5737V9.16667H53.0984V15.5507L53.2461 18.1267H53.0984L47.7781 9.16667H44.8778V22.532H47.3347V15.644L47.187 13.068H47.3347ZM68.9588 14.488V17.2107H63.6573V19.976H69.55V22.6987H60.8336V9H69.55V11.7227H63.6573V14.488H68.9588ZM63.4924 11.556H69.385V9.16667H60.9985V22.532H69.385V20.1427H63.4924V17.044H68.7939V14.6547H63.4924V11.556ZM77.756 15.5507L73.7473 9.16667H76.8323L79.4001 13.5347H79.5479L82.1156 9.16667H85.2006L81.192 15.5507L85.5331 22.532H82.4297L79.5479 17.716H79.4001L76.5183 22.532H73.4148L77.756 15.5507ZM79.474 17.9146L76.6113 22.6987H73.1166L77.5607 15.5511L73.4471 9H76.926L79.474 13.334L82.0219 9H85.5008L81.3873 15.5511L85.8313 22.6987H82.3366L79.474 17.9146ZM92.5912 22.6115C91.942 22.3413 91.3858 21.9543 90.926 21.4504C90.4661 20.9472 90.1105 20.3427 89.8572 19.6396V19.6387C89.6032 18.9207 89.4778 18.1111 89.4778 17.212V9H92.3015V17.3613C92.3015 17.7955 92.3556 18.1898 92.4612 18.5455C92.5661 18.8999 92.7231 19.2033 92.9296 19.4585C93.1348 19.7118 93.3915 19.9144 93.7022 20.0661C94.0096 20.2037 94.3672 20.2747 94.7783 20.2747C95.2025 20.2747 95.566 20.2034 95.8728 20.0661C96.1842 19.9144 96.4408 19.7118 96.646 19.4585C96.8525 19.2033 97.0089 18.8999 97.1144 18.5455C97.22 18.1898 97.2734 17.7955 97.2734 17.3613V9H100.097V17.212C100.097 18.0622 99.9718 18.8465 99.7185 19.5633C99.4777 20.2677 99.1214 20.8789 98.6497 21.3945C98.1892 21.8982 97.6277 22.291 96.9673 22.5733C96.3161 22.8572 95.5851 22.9973 94.7783 22.9973C93.9852 22.9973 93.2562 22.87 92.5951 22.6129L92.5912 22.6115ZM98.5283 21.2813C98.9842 20.7835 99.3292 20.1925 99.5628 19.508C99.8095 18.8111 99.9322 18.0458 99.9322 17.212V9.16667H97.4384V17.3613C97.4384 17.8093 97.383 18.22 97.2721 18.5933C97.1613 18.9667 96.995 19.2902 96.7734 19.564C96.5517 19.8378 96.2746 20.0555 95.9421 20.2173C95.6096 20.3667 95.2216 20.4413 94.7783 20.4413C94.3474 20.4413 93.9654 20.3667 93.6329 20.2173C93.3004 20.0555 93.0233 19.8378 92.8016 19.564C92.58 19.2902 92.4137 18.9667 92.3029 18.5933C92.192 18.22 92.1366 17.8093 92.1366 17.3613V9.16667H89.6427V17.212C89.6427 18.0955 89.7661 18.8858 90.0122 19.5827C90.259 20.2671 90.6033 20.852 91.0467 21.3373C91.4901 21.8227 92.0258 22.196 92.6539 22.4573C93.2945 22.7062 94.0024 22.8307 94.7783 22.8307C95.5667 22.8307 96.2746 22.6938 96.9027 22.42C97.5433 22.1462 98.0849 21.7667 98.5283 21.2813V21.2813ZM104.902 9H107.619L111.644 16.0374L115.667 9H118.403V22.6987H115.598V15.9371L115.718 14.121L112.497 19.8613H110.808L107.569 14.1189L107.689 15.9371V22.6987H104.902V9ZM107.524 13.7027L110.905 19.6947H112.401L115.763 13.7027H115.911L115.763 15.9427V22.532H118.238V9.16667H115.763L111.717 16.2413H111.57L107.524 9.16667H105.067V22.532H107.524V15.9427L107.376 13.7027H107.524Z" fill="white"/>
</g>
<defs>
<linearGradient id="paint0_linear_354_651" x1="2.6911" y1="23.5077" x2="30.6581" y2="-1.86295" gradientUnits="userSpaceOnUse">
<stop stop-color="#00EFC4"/>
<stop offset="1" stop-color="#0B92F3"/>
</linearGradient>
<linearGradient id="paint1_linear_354_651" x1="2.69109" y1="8.49237" x2="30.6581" y2="33.863" gradientUnits="userSpaceOnUse">
<stop stop-color="#00EFC4"/>
<stop offset="1" stop-color="#0B92F3"/>
</linearGradient>
<clipPath id="clip0_354_651">
<rect width="118.756" height="32" fill="white"/>
</clipPath>
</defs>
</svg>
