<svg width="311" height="56" viewBox="0 0 311 56" fill="none" xmlns="http://www.w3.org/2000/svg">
<g opacity="0.8" clip-path="url(#clip0_1358_88382)">
<path d="M60.4438 41.9885C59.9017 42.0472 59.3595 41.877 58.9318 41.5139C58.6276 41.0828 58.4821 40.5461 58.5231 40.0068V17.0522C58.4789 16.7726 58.4983 16.4856 58.5796 16.2158C58.6609 15.946 58.8017 15.7014 58.99 15.5028C59.1783 15.3042 59.4085 15.1576 59.661 15.0754C59.9134 14.9932 60.1806 14.978 60.4398 15.0309H69.4713C72.9123 15.0309 75.4447 15.8116 77.0684 17.3729C78.6922 18.9343 79.5027 21.2602 79.5 24.3507C79.5 27.4148 78.6895 29.7261 77.0684 31.2845C75.4474 32.843 72.915 33.6105 69.4713 33.587H65.969V40.0068C65.9913 40.2768 65.9638 40.549 65.888 40.8076C65.8123 41.0663 65.6898 41.3063 65.5277 41.5139C65.1002 41.8774 64.5578 42.0476 64.0156 41.9885H60.4438ZM68.8869 27.8352C69.3089 27.8644 69.7321 27.8016 70.131 27.6506C70.5299 27.4996 70.8963 27.2634 71.2081 26.9564C71.7762 26.3764 72.0582 25.5019 72.0582 24.3199C72.0582 23.1379 71.7762 22.2415 71.2081 21.6835C70.8963 21.3764 70.5299 21.1403 70.131 20.9893C69.7321 20.8383 69.3089 20.7755 68.8869 20.8047H65.9731V27.8352H68.8869Z" fill="white"/>
<path d="M88.3494 41.9953C85.967 41.9953 84.0538 41.2497 82.6098 39.7584C81.1658 38.2671 80.4634 36.1458 80.5028 33.3944C80.4581 31.4736 80.9569 29.5781 81.944 27.9178C82.9422 26.348 84.3821 25.094 86.0906 24.3066C88.025 23.4094 90.1453 22.963 92.2853 23.0024C94.0063 22.9814 95.7216 23.1995 97.3801 23.6503C98.832 24.0271 100.217 24.6171 101.489 25.4002V40.2949C101.512 40.4596 101.499 40.627 101.453 40.7868C101.407 40.9466 101.327 41.0953 101.219 41.2235C100.899 41.4077 100.526 41.4858 100.157 41.4464H96.2802C96.0581 41.4575 95.8363 41.4194 95.6313 41.335C95.4671 41.2215 95.3363 41.0678 95.252 40.8892L94.7589 39.7708C94.0282 40.5386 93.1125 41.1147 92.0957 41.4464C90.8903 41.8468 89.6216 42.0327 88.3494 41.9953ZM91.2023 36.9313C92.0373 36.9787 92.8613 36.7263 93.52 36.2215C93.8051 35.9696 94.0288 35.6582 94.1746 35.3103C94.3205 34.9625 94.3848 34.587 94.3628 34.2116V28.4171C93.7866 28.1723 93.1617 28.0566 92.5339 28.0787C91.9247 28.0566 91.3183 28.169 90.7595 28.4076C90.2007 28.6462 89.7039 29.0049 89.3059 29.4572C88.5081 30.3871 88.1092 31.6776 88.1092 33.3284C88.1092 35.7386 89.1402 36.9437 91.2023 36.9437V36.9313Z" fill="white"/>
<path d="M106.531 41.9873C105.97 42.044 105.409 41.8795 104.967 41.5284C104.799 41.3276 104.672 41.0956 104.594 40.8455C104.515 40.5955 104.487 40.3323 104.51 40.0712V24.7766C104.47 24.4535 104.55 24.127 104.734 23.8589C105.046 23.6408 105.427 23.5455 105.804 23.5913H109.732C109.97 23.5765 110.207 23.6296 110.417 23.7442C110.506 23.7831 110.583 23.847 110.638 23.9283C110.692 24.0096 110.723 24.105 110.725 24.2031L110.916 25.3544C111.704 24.5848 112.655 24.0039 113.698 23.655C114.947 23.2069 116.266 22.9853 117.592 23.0008C119.652 23.0008 121.317 23.5885 122.585 24.7639C123.854 25.9393 124.489 27.6514 124.492 29.9003V40.0584C124.515 40.3196 124.487 40.5827 124.408 40.8328C124.33 41.0828 124.203 41.3149 124.036 41.5157C123.757 41.8216 123.249 41.9745 122.509 41.9745H118.814C118.242 42.0257 117.671 41.8623 117.211 41.5157C117.044 41.3149 116.917 41.0828 116.839 40.8328C116.76 40.5827 116.732 40.3196 116.755 40.0584V30.4144C116.812 29.8209 116.634 29.2288 116.26 28.7659C116.046 28.5818 115.797 28.4425 115.528 28.3564C115.26 28.2703 114.976 28.2391 114.696 28.2646C114.03 28.2319 113.377 28.4518 112.865 28.8807C112.642 29.101 112.469 29.3666 112.356 29.6597C112.244 29.9527 112.195 30.2665 112.214 30.5801V40.0839C112.237 40.3451 112.208 40.6082 112.13 40.8583C112.051 41.1083 111.925 41.3404 111.757 41.5412C111.478 41.847 110.971 42 110.231 42L106.531 41.9873Z" fill="white"/>
<path d="M137.291 41.9956C133.842 41.9956 131.182 41.1878 129.312 39.5721C127.441 37.9565 126.505 35.61 126.502 32.5328C126.467 30.7816 126.915 29.0549 127.796 27.5454C128.684 26.0811 129.983 24.9146 131.528 24.193C133.362 23.3615 135.358 22.9551 137.369 23.0039C138.812 22.973 140.253 23.1369 141.654 23.4911C142.791 23.7863 143.863 24.2932 144.816 24.9857C144.937 25.05 145.039 25.146 145.112 25.2636C145.184 25.3813 145.223 25.5163 145.226 25.6545C145.195 25.9358 145.094 26.2045 144.931 26.4348L143.415 29.0813C143.227 29.4336 143.011 29.6097 142.768 29.6097C142.513 29.568 142.272 29.4661 142.063 29.3125C141.475 28.9276 140.842 28.6157 140.179 28.3835C139.487 28.1632 138.763 28.0613 138.037 28.0821C137.483 28.0607 136.931 28.1557 136.415 28.3611C135.9 28.5665 135.432 28.8779 135.042 29.2753C134.264 30.1814 133.866 31.3569 133.932 32.5535C133.932 33.9696 134.317 35.0637 135.079 35.8316C135.504 36.2176 136 36.5152 136.539 36.7072C137.079 36.8992 137.65 36.9819 138.221 36.9504C138.949 36.9608 139.673 36.8463 140.363 36.6119C141.046 36.3701 141.702 36.0588 142.321 35.683C142.544 35.5311 142.797 35.4297 143.063 35.3857C143.284 35.3857 143.481 35.5591 143.653 35.9059L145.316 38.7753C145.419 38.9576 145.482 39.1605 145.5 39.3698C145.483 39.5035 145.434 39.631 145.357 39.7411C145.28 39.8512 145.177 39.9406 145.058 40.0015C144.011 40.6789 142.863 41.1821 141.658 41.4919C140.232 41.8606 138.763 42.0301 137.291 41.9956Z" fill="white"/>
<path d="M155.375 41.9962C152.99 41.9962 151.076 41.2502 149.635 39.7583C148.194 38.2663 147.483 36.144 147.503 33.3913C147.459 31.4692 147.96 29.5729 148.948 27.9121C149.945 26.3417 151.383 25.087 153.091 24.2991C155.028 23.4052 157.149 22.9615 159.29 23.0026C161.01 22.9776 162.726 23.1916 164.385 23.6385C165.836 24.0146 167.22 24.6049 168.49 25.3892V40.2909C168.511 40.4553 168.499 40.6222 168.453 40.7818C168.408 40.9414 168.33 41.0904 168.224 41.22C167.904 41.4042 167.532 41.4824 167.162 41.4429H163.281C163.06 41.4537 162.84 41.4156 162.636 41.3315C162.472 41.2179 162.341 41.0642 162.257 40.8855L161.764 39.7665C161.033 40.5347 160.117 41.1111 159.1 41.4429C157.902 41.8422 156.64 42.0295 155.375 41.9962ZM158.224 36.9299C159.06 36.9771 159.885 36.7247 160.546 36.2197C160.831 35.9678 161.055 35.6564 161.201 35.3083C161.347 34.9602 161.411 34.5845 161.389 34.2089V28.4117C160.814 28.1673 160.19 28.0516 159.564 28.0731C158.954 28.0509 158.347 28.1633 157.787 28.402C157.228 28.6407 156.73 28.9996 156.332 29.4522C155.542 30.3826 155.147 31.6736 155.147 33.3252C155.147 35.7366 156.173 36.9423 158.224 36.9423V36.9299Z" fill="white"/>
<path d="M190.258 40.4855C190.413 40.6819 190.499 40.937 190.5 41.2018C190.502 41.3117 190.485 41.421 190.45 41.523C190.414 41.6251 190.361 41.7177 190.293 41.7951C190.134 41.9342 189.937 42.0043 189.737 41.9929H184.382C184.137 42.0021 183.893 41.9755 183.654 41.9138C183.482 41.801 183.33 41.6519 183.206 41.4743L178.505 34.1394V40.0064C178.526 40.2766 178.5 40.5488 178.429 40.8074C178.358 41.0661 178.244 41.3062 178.092 41.5138C177.691 41.877 177.182 42.0472 176.674 41.9885H173.322C172.814 42.0476 172.305 41.8774 171.905 41.5138C171.62 41.0826 171.483 40.5459 171.522 40.0064V17.0525C171.48 16.7729 171.498 16.4859 171.575 16.216C171.651 15.9462 171.783 15.7015 171.959 15.5029C172.136 15.3043 172.352 15.1576 172.588 15.0754C172.825 14.9932 173.075 14.978 173.318 15.0309H176.67C176.925 15.0004 177.182 15.0307 177.426 15.1199C177.67 15.2092 177.896 15.3554 178.088 15.5495C178.239 15.7565 178.354 15.9958 178.425 16.2537C178.496 16.5116 178.522 16.7831 178.501 17.0525V30.3379L183.064 23.5172C183.178 23.3285 183.332 23.177 183.512 23.0777C183.746 22.9857 183.993 22.9454 184.24 22.9591H189.603C189.7 22.9513 189.797 22.9686 189.887 23.0097C189.978 23.0508 190.059 23.1146 190.124 23.1964C190.193 23.2643 190.248 23.3496 190.284 23.4456C190.32 23.5416 190.336 23.6458 190.331 23.7501C190.331 24.0149 190.245 24.2701 190.09 24.4665L184.179 32.2365L190.258 40.4855Z" fill="white"/>
<path d="M203.13 41.9972C201.254 42.0286 199.391 41.6732 197.653 40.9524C196.127 40.3056 194.82 39.2174 193.893 37.822C192.931 36.3046 192.447 34.5236 192.505 32.7175C192.505 29.5623 193.38 27.1532 195.132 25.4903C196.883 23.8273 199.403 22.9973 202.693 23C205.906 23 208.335 23.826 209.978 25.4779C211.622 27.1298 212.462 29.3778 212.5 32.2219C212.5 33.4609 211.962 34.0845 210.881 34.0845H199.442C199.418 34.5614 199.513 35.0368 199.718 35.4664C199.922 35.8961 200.23 36.2659 200.612 36.5417C201.422 37.1144 202.626 37.4007 204.227 37.4007C205.061 37.4187 205.894 37.3313 206.708 37.1405C207.418 36.9285 208.105 36.6406 208.756 36.2815C208.94 36.1895 209.136 36.1268 209.339 36.0957C209.557 36.0957 209.739 36.2444 209.885 36.5417L211.128 38.9288C211.226 39.0997 211.288 39.2895 211.31 39.4863C211.293 39.62 211.245 39.7475 211.168 39.8576C211.092 39.9678 210.991 40.0572 210.873 40.1182C209.836 40.8072 208.685 41.2997 207.477 41.5718C206.048 41.8795 204.59 42.0221 203.13 41.9972ZM205.943 30.3718C205.967 29.9675 205.907 29.5626 205.767 29.1834C205.628 28.8042 205.412 28.4591 205.133 28.1705C204.594 27.6502 203.791 27.39 202.725 27.39C201.841 27.3324 200.97 27.6287 200.296 28.216C200.011 28.4931 199.788 28.8301 199.643 29.2037C199.497 29.5773 199.433 29.9786 199.454 30.38L205.943 30.3718Z" fill="white"/>
<path d="M225.662 41.9997C223.653 42.009 221.649 41.7911 219.687 41.3501C218.069 41.0132 216.526 40.3753 215.137 39.4688C214.712 39.1876 214.5 38.8966 214.5 38.5957C214.508 38.3616 214.585 38.1353 214.721 37.9461L216.562 34.9933C216.767 34.6854 216.979 34.5336 217.167 34.5336C217.397 34.5741 217.616 34.6648 217.808 34.7993C218.802 35.363 219.861 35.798 220.962 36.0943C222.1 36.4174 223.276 36.5835 224.458 36.5878C225.637 36.5878 226.5 36.4107 227.054 36.0563C227.338 35.8781 227.57 35.6242 227.722 35.3222C227.874 35.0202 227.941 34.6818 227.916 34.3437C227.926 33.989 227.845 33.6376 227.681 33.3241C227.516 33.0106 227.274 32.7457 226.979 32.5552C225.898 31.8904 224.751 31.3418 223.558 30.9186C221.025 29.9569 219.044 28.8784 217.617 27.6833C216.189 26.4881 215.494 24.8388 215.533 22.7353C215.533 20.2269 216.424 18.3119 218.204 16.9902C219.985 15.6685 222.346 15.0063 225.287 15.0035C227.058 14.9714 228.825 15.1627 230.549 15.5729C231.897 15.878 233.172 16.4516 234.299 17.2602C234.716 17.5892 234.937 17.8971 234.937 18.1755C234.924 18.3963 234.845 18.6079 234.712 18.7829L232.87 21.7356C232.645 22.0394 232.445 22.1912 232.27 22.1912C232.04 22.1514 231.82 22.0607 231.628 21.9255C230.081 20.9364 228.279 20.4357 226.45 20.4871C225.584 20.433 224.72 20.6166 223.95 21.0186C223.662 21.2031 223.429 21.4635 223.276 21.772C223.123 22.0804 223.057 22.4251 223.083 22.7691C223.061 23.2673 223.223 23.7558 223.537 24.14C223.877 24.5281 224.284 24.851 224.737 25.0933C225.266 25.3464 226.066 25.6754 227.145 26.0804L227.858 26.3503C229.376 26.9172 230.837 27.6306 232.22 28.4805C233.233 29.0751 234.074 29.9272 234.662 30.9523C235.255 32.0736 235.542 33.3344 235.495 34.6053C235.532 35.6422 235.325 36.6733 234.89 37.613C234.456 38.5527 233.806 39.374 232.995 40.0087C231.34 41.3361 228.895 41.9997 225.662 41.9997Z" fill="white"/>
<path d="M242.912 41.9952C242.604 42.013 242.296 41.9448 242.022 41.7979C241.777 41.6033 241.612 41.3218 241.56 41.0089L236.577 23.9129C236.535 23.799 236.509 23.6794 236.5 23.5578C236.5 23.1896 236.757 23.0055 237.271 23.0055H242.369C242.629 22.9836 242.889 23.0531 243.105 23.2028C243.19 23.2692 243.261 23.3522 243.314 23.4471C243.367 23.5419 243.4 23.6467 243.413 23.7551L245.498 32.7327L248.122 25.4954C248.204 25.2576 248.337 25.0419 248.512 24.8642C248.74 24.7116 249.011 24.6421 249.282 24.6669H251.714C251.974 24.6359 252.237 24.7063 252.45 24.8642C252.648 25.0289 252.796 25.2477 252.878 25.4954L255.446 32.7327L257.587 23.7551C257.634 23.5438 257.741 23.3515 257.895 23.2028C258.093 23.0494 258.341 22.9789 258.588 23.0055H263.725C264.243 23.0055 264.5 23.1896 264.5 23.5578C264.491 23.6794 264.465 23.799 264.423 23.9129L259.402 41.0089C259.349 41.3218 259.184 41.6033 258.939 41.7979C258.68 41.9508 258.382 42.0195 258.083 41.9952H254.299C254.016 42.0155 253.734 41.9466 253.49 41.7979C253.272 41.5797 253.111 41.3082 253.023 41.0089L250.476 33.8505L247.908 41.0089C247.842 41.3164 247.68 41.5935 247.446 41.7979C247.202 41.9466 246.92 42.0155 246.637 41.9952H242.912Z" fill="white"/>
<path d="M274 41.9959C271.731 41.9959 269.909 41.25 268.533 39.758C267.158 38.2661 266.481 36.1438 266.502 33.3912C266.461 31.4691 266.938 29.5728 267.879 27.9121C268.828 26.3417 270.198 25.0871 271.825 24.2992C273.669 23.4044 275.69 22.9607 277.729 23.0027C279.367 22.9777 281.001 23.1918 282.581 23.6386C283.963 24.0147 285.281 24.605 286.49 25.3893V40.2907C286.511 40.455 286.499 40.622 286.455 40.7815C286.412 40.9411 286.338 41.0901 286.237 41.2197C285.931 41.4042 285.575 41.4824 285.222 41.4426H281.529C281.319 41.4534 281.109 41.4153 280.915 41.3312C280.759 41.2177 280.635 41.0639 280.554 40.8852L280.081 39.7704C279.386 40.5384 278.515 41.1148 277.548 41.4468C276.406 41.8446 275.205 42.0305 274 41.9959ZM276.713 36.9297C277.51 36.9769 278.296 36.7245 278.925 36.2195C279.196 35.9677 279.41 35.6562 279.549 35.3081C279.687 34.9601 279.749 34.5843 279.727 34.2087V28.4117C279.18 28.1673 278.586 28.0516 277.989 28.0731C277.409 28.0509 276.83 28.1633 276.298 28.402C275.765 28.6407 275.291 28.9996 274.911 29.4522C274.164 30.3743 273.79 31.6653 273.787 33.3251C273.782 35.7364 274.757 36.9421 276.713 36.9421V36.9297Z" fill="white"/>
<path d="M292.376 48.9889C291.847 49.0456 291.319 48.8838 290.904 48.5385C290.609 48.1341 290.467 47.631 290.506 47.1252V25.7605C291.748 24.8831 293.117 24.2163 294.56 23.7852C296.211 23.2595 297.929 22.9948 299.656 23.0001C306.885 22.9973 310.5 26.1793 310.5 32.546C310.5 35.4304 309.735 37.7294 308.205 39.443C306.674 41.1566 304.508 42.0106 301.705 42.0051C300.93 42.0077 300.159 41.9063 299.409 41.7034C298.769 41.5386 298.162 41.2589 297.615 40.8769V47.1045C297.636 47.3578 297.61 47.6131 297.536 47.8556C297.462 48.0981 297.343 48.3231 297.185 48.5178C296.77 48.8619 296.242 49.0236 295.714 48.9682L292.376 48.9889ZM300.165 37.0049C300.615 37.0331 301.064 36.9376 301.467 36.7279C301.87 36.5183 302.213 36.2018 302.46 35.8106C303.031 34.8222 303.308 33.6807 303.256 32.5294C303.256 30.915 302.946 29.7841 302.325 29.1367C301.728 28.4673 300.794 28.1284 299.54 28.1284C298.879 28.0999 298.219 28.2153 297.603 28.4673V34.3932C297.58 34.748 297.628 35.1041 297.746 35.438C297.864 35.772 298.049 36.0764 298.287 36.3313C298.807 36.7904 299.476 37.0242 300.157 36.9842L300.165 37.0049Z" fill="white"/>
<path d="M9.10638 11.5004C8.94296 10.6339 8.96395 9.74316 9.16802 8.88515C9.37208 8.02714 9.75473 7.22071 10.2915 6.51738C10.8283 5.81405 11.5074 5.22929 12.2855 4.80048C13.0635 4.37166 13.9234 4.10821 14.8101 4.02697C15.6968 3.94573 16.5909 4.0485 17.4353 4.32868C18.2796 4.60886 19.0556 5.06031 19.7137 5.65417C20.3718 6.24804 20.8974 6.97125 21.2571 7.77761C21.6168 8.58397 21.8026 9.45574 21.8027 10.3372V18.1482C22.6837 18.0847 23.5814 18.0544 24.4958 18.0571C25.4103 18.0599 26.2731 18.0875 27.0844 18.1399V10.3372C27.0844 9.45574 27.2702 8.58397 27.6299 7.77761C27.9896 6.97125 28.5153 6.24804 29.1734 5.65417C29.8315 5.06031 30.6075 4.60886 31.4518 4.32868C32.2962 4.0485 33.1903 3.94573 34.077 4.02697C34.9637 4.10821 35.8236 4.37166 36.6016 4.80048C37.3797 5.22929 38.0588 5.81405 38.5956 6.51738C39.1324 7.22071 39.515 8.02714 39.7191 8.88515C39.9231 9.74316 39.9441 10.6339 39.7807 11.5004L38.0452 20.6815C43.9919 23.252 48.5 27.7184 48.5 33.3231V36.7174C48.5 41.3287 45.4179 45.1907 41.1106 47.7944C36.8032 50.3981 30.8816 52 24.4958 52C18.11 52 12.2344 50.4395 7.88944 47.811C3.54443 45.1825 0.5 41.3287 0.5 36.7174V33.3231C0.5 27.7433 4.94956 23.2976 10.8461 20.7229L9.10638 11.5004ZM35.8246 21.8902L37.8528 11.1278C37.9695 10.525 37.9575 9.90471 37.8176 9.30677C37.6776 8.70883 37.4128 8.14648 37.0402 7.65587C36.6676 7.16526 36.1955 6.75724 35.6541 6.45802C35.1126 6.1588 34.514 5.97499 33.8965 5.91843C33.2791 5.86187 32.6565 5.93379 32.0688 6.12958C31.4812 6.32537 30.9413 6.6407 30.4841 7.05529C30.0269 7.46988 29.6623 7.97457 29.4139 8.53693C29.1655 9.09929 29.0386 9.70688 29.0416 10.3206V20.2551C28.3975 20.1724 27.7452 20.1061 27.0844 20.0606C26.248 19.9985 25.3698 19.9695 24.4958 19.9695C23.6218 19.9695 22.685 20.0026 21.8027 20.0689C21.1377 20.1185 20.4854 20.1848 19.8413 20.2676V10.3331C19.8443 9.71929 19.7174 9.1117 19.469 8.54935C19.2206 7.98699 18.856 7.4823 18.3988 7.06771C17.9416 6.65312 17.4017 6.33778 16.8141 6.142C16.2264 5.94621 15.6038 5.87428 14.9864 5.93085C14.3689 5.98741 13.7703 6.17122 13.2289 6.47044C12.6875 6.76966 12.2153 7.17768 11.8427 7.66829C11.4701 8.1589 11.2053 8.72125 11.0654 9.31919C10.9254 9.91713 10.9134 10.5374 11.0301 11.1402L13.0666 21.9026C6.70596 24.2662 2.45714 28.4925 2.45714 33.3231V36.7174C2.45714 44.0772 12.3265 50.0462 24.4958 50.0462C36.6652 50.0462 46.5303 44.0772 46.5303 36.7174V33.3231C46.5303 28.4677 42.2397 24.2207 35.8246 21.8902Z" fill="#633001"/>
<path d="M45.5 36.4505C45.5 43.9322 35.8751 50 24.002 50C12.129 50 2.5 43.9322 2.5 36.4505V33H45.5V36.4505Z" fill="#FEDC90"/>
<path d="M10.8642 11.2599C10.7503 10.6534 10.7621 10.0294 10.8986 9.42778C11.0351 8.82621 11.2935 8.26044 11.657 7.76685C12.0205 7.27325 12.4812 6.86274 13.0094 6.5617C13.5376 6.26066 14.1217 6.07574 14.7241 6.01884C15.3265 5.96193 15.934 6.03429 16.5073 6.23127C17.0807 6.42825 17.6074 6.7455 18.0535 7.16261C18.4996 7.57973 18.8552 8.08748 19.0976 8.65326C19.34 9.21904 19.4638 9.83032 19.4609 10.4478V20.4427C22.4409 20.0541 25.4571 20.0541 28.4371 20.4427V10.4478C28.4342 9.83032 28.558 9.21904 28.8004 8.65326C29.0427 8.08748 29.3984 7.57973 29.8445 7.16261C30.2906 6.7455 30.8173 6.42825 31.3907 6.23127C31.964 6.03429 32.5715 5.96193 33.1739 6.01884C33.7763 6.07574 34.3603 6.26066 34.8886 6.5617C35.4168 6.86274 35.8775 7.27325 36.241 7.76685C36.6045 8.26044 36.8629 8.82621 36.9994 9.42778C37.1359 10.0294 37.1477 10.6534 37.0338 11.2599L35.055 22.0877C41.3138 24.4323 45.5 28.7052 45.5 33.5902C45.5 40.9947 35.8751 47 24.002 47C12.129 47 2.5 40.9947 2.5 33.5902C2.5 28.7302 6.64536 24.474 12.8512 22.121L10.8642 11.2599Z" fill="#D1884F"/>
<path d="M17.5 32.5C17.5 34.4334 16.6073 36 15.5068 36C14.4063 36 13.5 34.4334 13.5 32.5C13.5 30.5666 14.3927 29 15.4966 29C16.6005 29 17.5 30.5666 17.5 32.5Z" fill="#633001"/>
<path d="M34.5 32.5C34.5 34.4334 33.605 36 32.4983 36C31.3915 36 30.5 34.4334 30.5 32.5C30.5 30.5666 31.395 29 32.4983 29C33.6016 29 34.5 30.5666 34.5 32.5Z" fill="#633001"/>
</g>
<defs>
<clipPath id="clip0_1358_88382">
<rect width="310" height="56" fill="white" transform="translate(0.5)"/>
</clipPath>
</defs>
</svg>
