<svg width="197" height="40" viewBox="0 0 197 40" fill="none" xmlns="http://www.w3.org/2000/svg">
<g clip-path="url(#clip0_1358_89992)">
<path d="M23.1358 14.6703C22.8357 14.5026 22.4976 14.4145 22.1538 14.4145C21.81 14.4145 21.4719 14.5026 21.1717 14.6703L16.6655 17.284L13.6038 18.9885L9.09784 21.6022C8.79766 21.7698 8.45958 21.8578 8.11579 21.8578C7.77199 21.8578 7.43391 21.7698 7.13373 21.6022L3.55186 19.5567C3.26043 19.3896 3.01701 19.1502 2.8451 18.8615C2.67319 18.5729 2.57859 18.2448 2.57045 17.909V13.8749C2.56642 13.5365 2.65592 13.2036 2.8291 12.9128C3.00227 12.6221 3.25239 12.3848 3.55186 12.2272L7.07588 10.2385C7.37606 10.0709 7.71414 9.98293 8.05793 9.98293C8.40173 9.98293 8.73981 10.0709 9.03999 10.2385L12.564 12.2272C12.8554 12.3943 13.0989 12.6337 13.2708 12.9223C13.4427 13.211 13.5373 13.539 13.5454 13.8749V16.4885L16.6072 14.7272V12.1135C16.6112 11.7751 16.5217 11.4422 16.3485 11.1514C16.1753 10.8607 15.9252 10.6234 15.6257 10.4658L9.09784 6.71604C8.79766 6.54844 8.45958 6.46045 8.11579 6.46045C7.77199 6.46045 7.43391 6.54844 7.13373 6.71604L0.48935 10.466C0.189922 10.6237 -0.060167 10.8609 -0.23334 11.1516C-0.406513 11.4423 -0.496042 11.7752 -0.492057 12.1135V19.6704C-0.49609 20.0087 -0.406583 20.3417 -0.233408 20.6324C-0.0602323 20.9232 0.189882 21.1605 0.48935 21.3181L7.13296 25.0681C7.43314 25.2357 7.77121 25.3237 8.11501 25.3237C8.45881 25.3237 8.79689 25.2357 9.09706 25.0681L13.603 22.5113L16.6647 20.7499L21.171 18.1931C21.4711 18.0253 21.8092 17.9373 22.153 17.9373C22.4968 17.9373 22.8349 18.0253 23.1351 18.1931L26.6591 20.1817C26.9505 20.3489 27.1939 20.5883 27.3658 20.8769C27.5377 21.1655 27.6323 21.4936 27.6405 21.8294V25.8635C27.6445 26.2019 27.555 26.5349 27.3818 26.8256C27.2087 27.1164 26.9586 27.3537 26.6591 27.5113L23.1351 29.5567C22.8349 29.7243 22.4968 29.8123 22.153 29.8123C21.8092 29.8123 21.4711 29.7243 21.171 29.5567L17.6469 27.5681C17.3555 27.401 17.1121 27.1615 16.9402 26.8729C16.7683 26.5843 16.6737 26.2562 16.6655 25.9204V23.3065L13.6038 25.0678V27.6815C13.5998 28.0199 13.6893 28.3528 13.8624 28.6436C14.0356 28.9343 14.2857 29.1716 14.5852 29.3292L21.2288 33.0792C21.529 33.2468 21.8671 33.3348 22.2109 33.3348C22.5547 33.3348 22.8927 33.2468 23.1929 33.0792L29.8365 29.3292C30.1279 29.1621 30.3713 28.9226 30.5432 28.634C30.7152 28.3454 30.8098 28.0173 30.8179 27.6815V20.1249C30.822 19.7865 30.7325 19.4536 30.5593 19.1628C30.3861 18.8721 30.136 18.6348 29.8365 18.4772L23.1358 14.6703Z" fill="#8247E5"/>
<path d="M46.0272 13.86C47.0746 13.844 48.1043 14.1316 48.9918 14.6882C49.89 15.27 50.6056 16.0936 51.0561 17.0643C51.5847 18.2109 51.8434 19.4635 51.8123 20.7257C51.8408 21.9835 51.5822 23.2313 51.0561 24.3742C50.6082 25.3499 49.8923 26.1782 48.9918 26.7627C48.1043 27.3193 47.0746 27.6069 46.0272 27.5909C45.0984 27.6163 44.1818 27.3742 43.3867 26.8936C42.6646 26.4461 42.1019 25.7826 41.7784 24.9972V33.8066H37.6738V14.0286H41.7784V16.453C42.1021 15.6678 42.6649 15.0045 43.3869 14.5573C44.182 14.0767 45.0984 13.8347 46.0272 13.86ZM44.7069 17.461C44.311 17.448 43.9168 17.5195 43.5506 17.6705C43.1843 17.8215 42.8544 18.0487 42.5827 18.337C42.0305 18.921 41.7544 19.7172 41.7544 20.7255C41.7107 21.5951 42.0079 22.4475 42.5827 23.1015C42.8525 23.393 43.1818 23.6232 43.5483 23.7766C43.9147 23.9299 44.3098 24.0027 44.7069 23.9902C45.1022 24.0065 45.4964 23.9378 45.8628 23.7887C46.2293 23.6396 46.5595 23.4137 46.8311 23.126C47.3675 22.5499 47.6356 21.7498 47.6356 20.7257C47.6356 19.7016 47.3675 18.9015 46.8314 18.3254C46.5597 18.0377 46.2295 17.8116 45.863 17.6625C45.4965 17.5134 45.1022 17.4447 44.7069 17.461ZM60.2136 13.86C61.4517 13.8389 62.6758 14.1234 63.7777 14.6882C64.8147 15.2296 65.6733 16.059 66.2501 17.0767C66.869 18.1913 67.1797 19.4506 67.1501 20.7252C67.1802 21.9998 66.8699 23.2594 66.2514 24.3742C65.6746 25.3919 64.816 26.2213 63.779 26.7627C62.6771 27.3275 61.453 27.612 60.2149 27.5909C58.9729 27.6111 57.7449 27.3267 56.6382 26.7627C55.5961 26.2241 54.7329 25.3943 54.1537 24.3742C53.5343 23.2598 53.2232 22.0004 53.2524 20.7257C53.2228 19.4512 53.5335 18.1918 54.1524 17.0772C54.7316 16.0571 55.5948 15.2273 56.6369 14.6888C57.7436 14.1245 58.9716 13.8399 60.2136 13.86ZM60.2136 17.4127C59.8419 17.4058 59.473 17.4783 59.1316 17.6253C58.7901 17.7722 58.4838 17.9903 58.2333 18.265C57.6971 18.8331 57.429 19.6533 57.429 20.7255C57.429 21.7976 57.6971 22.6137 58.2333 23.1738C58.4857 23.4453 58.7925 23.6605 59.1338 23.8052C59.4751 23.95 59.843 24.0211 60.2136 24.0139C60.5826 24.0219 60.949 23.9511 61.2884 23.8062C61.6278 23.6613 61.9324 23.4457 62.1819 23.1738C62.71 22.6137 62.974 21.7976 62.974 20.7255C62.974 19.6533 62.71 18.8331 62.1819 18.265C61.9342 17.99 61.6302 17.7717 61.2905 17.6247C60.9509 17.4777 60.5836 17.4056 60.2136 17.4132V17.4127ZM73.3919 6.20166V27.4228H69.287V6.20218H73.3916L73.3919 6.20166ZM79.3209 14.0271L82.5373 22.2379L85.5378 14.0284H90.0745L81.7214 33.8079H77.2085L80.3526 26.9186L74.7362 14.0286L79.3209 14.0271ZM96.5317 13.86C97.4604 13.8346 98.377 14.0767 99.1722 14.5573C99.8969 15.0082 100.466 15.6699 100.804 16.4537V14.0294H104.885V27.3507C104.903 28.515 104.657 29.6681 104.165 30.7234C103.685 31.7232 102.915 32.5555 101.956 33.1118C100.964 33.704 99.7318 34 98.2597 34C96.2433 34 94.6311 33.5239 93.4229 32.5718C92.2138 31.6184 91.4326 30.2242 91.2506 28.6953H95.3072C95.4205 29.218 95.7353 29.6751 96.1833 29.9675C96.7209 30.2935 97.3434 30.4523 97.9715 30.4236C98.7252 30.458 99.4622 30.1951 100.024 29.6914C100.544 29.2033 100.804 28.4231 100.804 27.351V24.9984C100.466 25.7823 99.8967 26.444 99.1719 26.8949C98.3767 27.3755 97.4602 27.6175 96.5314 27.5922C95.4839 27.6082 94.4542 27.3206 93.5668 26.7639C92.6663 26.1794 91.9504 25.3512 91.5025 24.3755C90.9764 23.2326 90.7178 21.9848 90.7463 20.727C90.7152 19.465 90.9739 18.2127 91.5025 17.0664C91.953 16.0957 92.6685 15.272 93.5668 14.6903C94.4541 14.1329 95.4839 13.8445 96.5317 13.86ZM97.8519 17.4607C97.4566 17.4444 97.0624 17.5131 96.696 17.6622C96.3295 17.8113 95.9993 18.0373 95.7277 18.3249C95.1915 18.901 94.9234 19.7011 94.9234 20.7252C94.9234 21.7493 95.1915 22.5494 95.7277 23.1255C95.9993 23.4131 96.3295 23.6391 96.696 23.7882C97.0624 23.9373 97.4566 24.006 97.8519 23.9897C98.2489 24.0023 98.644 23.9295 99.0105 23.7763C99.3769 23.6231 99.7062 23.3929 99.9761 23.1015C100.551 22.4475 100.848 21.5951 100.804 20.7255C100.804 19.7174 100.528 18.9212 99.9761 18.337C99.7044 18.0487 99.3745 17.8215 99.0083 17.6705C98.642 17.5195 98.2478 17.448 97.8519 17.461V17.4607ZM113.983 13.86C115.221 13.8389 116.445 14.1234 117.547 14.6882C118.584 15.2296 119.442 16.059 120.019 17.0767C120.638 18.1913 120.949 19.4506 120.919 20.7252C120.949 21.9999 120.638 23.2594 120.02 24.3742C119.443 25.3919 118.584 26.2213 117.547 26.7627C116.445 27.3275 115.221 27.612 113.983 27.5909C112.741 27.6111 111.513 27.3267 110.406 26.7627C109.364 26.2241 108.501 25.3943 107.922 24.3742C107.303 23.2597 106.992 22.0003 107.022 20.7257C106.992 19.4512 107.303 18.1918 107.922 17.0772C108.501 16.0571 109.364 15.2273 110.406 14.6888C111.513 14.1246 112.741 13.84 113.983 13.86ZM113.983 17.4127C113.611 17.4059 113.242 17.4783 112.901 17.6253C112.559 17.7723 112.253 17.9903 112.002 18.265C111.466 18.8331 111.198 19.6533 111.198 20.7255C111.198 21.7976 111.466 22.6137 112.002 23.1738C112.255 23.4453 112.562 23.6605 112.903 23.8052C113.244 23.95 113.612 24.0211 113.983 24.0139C114.352 24.0219 114.718 23.9511 115.057 23.8062C115.397 23.6613 115.701 23.4457 115.951 23.1738C116.479 22.6137 116.743 21.7976 116.743 20.7255C116.743 19.6533 116.479 18.8331 115.951 18.265C115.703 17.99 115.399 17.7717 115.06 17.6247C114.72 17.4777 114.353 17.4056 113.983 17.4132V17.4127ZM131.554 13.8845C133.09 13.8845 134.31 14.3966 135.214 15.4207C136.118 16.4448 136.57 17.8529 136.57 19.6451V27.4228H132.466V20.1255C132.466 19.2302 132.23 18.53 131.758 18.025C131.515 17.772 131.222 17.5736 130.897 17.4432C130.572 17.3128 130.222 17.2533 129.872 17.2688C129.505 17.2511 129.138 17.3126 128.796 17.4493C128.454 17.586 128.146 17.7946 127.892 18.0609C127.405 18.5892 127.161 19.3411 127.161 20.3166V27.4228H123.056V14.0286H127.161V16.477C127.533 15.6895 128.131 15.0297 128.877 14.5806C129.687 14.1032 130.614 13.8621 131.554 13.8845ZM144.157 13.8605C145.853 13.8605 147.21 14.2846 148.226 15.1327C149.245 15.9868 149.923 17.1799 150.134 18.4933H146.292C146.203 17.9881 145.935 17.532 145.536 17.2092C145.113 16.8869 144.591 16.7215 144.06 16.7412C143.683 16.7147 143.31 16.8209 143.004 17.0413C142.882 17.1463 142.787 17.2777 142.724 17.4255C142.662 17.5733 142.634 17.7334 142.644 17.8936C142.644 18.0985 142.708 18.2982 142.826 18.4656C142.944 18.6331 143.111 18.7602 143.304 18.8298C143.973 19.1088 144.668 19.318 145.38 19.454C146.235 19.6443 147.077 19.8889 147.901 20.1862C148.563 20.4384 149.15 20.8557 149.605 21.3985C150.085 21.9586 150.325 22.7107 150.325 23.655C150.337 24.3838 150.119 25.0979 149.701 25.6952C149.244 26.3196 148.62 26.8022 147.901 27.0876C147.016 27.4424 146.069 27.614 145.116 27.5917C143.308 27.5917 141.86 27.1916 140.771 26.3915C139.683 25.5914 139.019 24.4469 138.779 22.9579H142.74C142.758 23.2182 142.833 23.4714 142.959 23.6995C143.086 23.9276 143.261 24.1252 143.473 24.2781C143.959 24.6003 144.534 24.76 145.117 24.7342C145.497 24.7614 145.874 24.6458 146.173 24.4101C146.292 24.3031 146.386 24.1713 146.448 24.024C146.51 23.8767 146.539 23.7176 146.533 23.5578C146.541 23.3435 146.481 23.1322 146.363 22.9535C146.244 22.7748 146.072 22.6379 145.872 22.562C145.177 22.2842 144.458 22.0712 143.724 21.9259C142.892 21.7627 142.074 21.5383 141.275 21.2544C140.633 21.0131 140.063 20.6124 139.619 20.0901C139.154 19.554 138.922 18.8222 138.922 17.8949C138.906 17.3356 139.022 16.7806 139.26 16.2741C139.498 15.7677 139.851 15.3239 140.291 14.9783C141.203 14.2328 142.491 13.86 144.156 13.86L144.157 13.8605ZM158.655 13.8605C160.384 13.8605 161.832 14.3366 163 15.2887C164.169 16.2409 164.905 17.5494 165.209 19.2143H160.863C160.764 18.6879 160.483 18.2127 160.071 17.8714C159.638 17.5404 159.103 17.3707 158.558 17.3913C158.216 17.385 157.878 17.4588 157.569 17.6067C157.261 17.7547 156.991 17.9728 156.782 18.2435C156.317 18.8117 156.085 19.6399 156.085 20.728C156.085 21.8162 156.317 22.6444 156.782 23.2125C156.991 23.4833 157.261 23.7013 157.569 23.8493C157.878 23.9973 158.216 24.0711 158.558 24.0648C159.103 24.0854 159.638 23.9156 160.071 23.5847C160.483 23.2434 160.764 22.7682 160.863 22.2417H165.207C164.903 23.906 164.167 25.2145 162.999 26.1674C161.831 27.1202 160.383 27.5962 158.654 27.5956C157.439 27.6188 156.237 27.3339 155.162 26.7673C154.15 26.2201 153.32 25.3902 152.773 24.3789C152.177 23.2569 151.88 22.0005 151.909 20.7304C151.877 19.4575 152.17 18.1975 152.761 17.0697C153.307 16.0603 154.138 15.2339 155.15 14.6937C156.229 14.1261 157.435 13.8394 158.654 13.86L158.655 13.8605ZM172.434 13.8605C173.362 13.8352 174.279 14.0772 175.074 14.5578C175.799 15.0087 176.369 15.6704 176.706 16.4543V14.0299H180.787V27.4228H176.706V24.9984C176.369 25.7823 175.799 26.444 175.074 26.8949C174.279 27.3755 173.362 27.6175 172.434 27.5922C171.386 27.6082 170.357 27.3206 169.469 26.7639C168.569 26.1794 167.853 25.3512 167.405 24.3755C166.879 23.2326 166.62 21.9848 166.649 20.727C166.618 19.465 166.876 18.2127 167.405 17.0664C167.855 16.0957 168.571 15.272 169.469 14.6903C170.356 14.1332 171.385 13.8448 172.432 13.86L172.434 13.8605ZM173.754 17.4612C173.359 17.4449 172.964 17.5136 172.598 17.6627C172.231 17.8117 171.901 18.0377 171.629 18.3254C171.093 18.9015 170.825 19.7016 170.825 20.7257C170.825 21.7498 171.093 22.5499 171.629 23.126C171.901 23.4137 172.231 23.6397 172.598 23.7888C172.964 23.9378 173.359 24.0065 173.754 23.9902C174.151 24.0028 174.546 23.93 174.913 23.7768C175.279 23.6236 175.608 23.3935 175.878 23.102C176.453 22.448 176.75 21.5956 176.706 20.726C176.706 19.7179 176.43 18.9217 175.878 18.3375C175.606 18.049 175.276 17.8216 174.91 17.6705C174.543 17.5193 174.149 17.4479 173.753 17.461L173.754 17.4612ZM192.117 13.8845C193.653 13.8845 194.873 14.3966 195.777 15.4207C196.681 16.4448 197.133 17.8529 197.133 19.6451V27.4228H193.028V20.1255C193.028 19.2302 192.792 18.53 192.32 18.025C192.078 17.772 191.784 17.5736 191.459 17.4432C191.134 17.3128 190.784 17.2533 190.434 17.2688C190.067 17.2511 189.7 17.3126 189.358 17.4493C189.016 17.586 188.708 17.7946 188.454 18.0609C187.967 18.5892 187.723 19.3411 187.723 20.3166V27.4228H183.618V14.0286H187.723V16.477C188.096 15.6894 188.693 15.0296 189.439 14.5806C190.249 14.1033 191.176 13.8622 192.116 13.8845H192.117Z" fill="white"/>
</g>
<defs>
<clipPath id="clip0_1358_89992">
<rect width="197" height="40" fill="white"/>
</clipPath>
</defs>
</svg>
