<svg width="223" height="43" viewBox="0 0 223 43" fill="none" xmlns="http://www.w3.org/2000/svg">
<path d="M5.80981 16.2569C5.80981 17.3111 5.80981 18.3654 5.80981 19.4005C5.80981 20.4356 6.65374 20.3206 7.36341 19.8606C9.28143 22.4675 10.3939 22.5825 12.427 20.4739C12.7731 20.184 13.1792 19.9745 13.6162 19.8606C15.4446 19.3035 17.3966 19.2974 19.2285 19.8428C21.0604 20.3883 22.6908 21.4612 23.9159 22.9275C24.2222 24.3477 24.0405 25.8297 23.4001 27.134C22.7598 28.4383 21.6982 29.4887 20.3868 30.1157C14.5176 33.7769 6.78801 31.745 2.47246 25.4578C1.89705 24.5952 1.62853 23.5409 0.554434 22.9659C0.380317 22.4342 0.131258 24.6065 0.0559203 24.0585C-0.124047 22.759 0.141837 18.2652 0.688696 16.8128C1.91794 11.4035 5.23049 6.69629 9.90851 3.71107C14.5865 0.725851 20.2532 -0.296865 25.6805 0.86455C26.2864 0.996667 30.3959 2.39803 30.7411 2.97311C31.1194 3.20219 29.6157 3.71107 28.2123 2.60889C26.8697 2.60889 26.4094 3.77817 25.623 4.52574C24.1845 5.8292 23.2255 5.98255 22.6309 3.87401C22.6309 2.43637 21.4801 2.34053 20.5594 2.39803C16.9352 2.50094 13.4162 3.63867 10.4184 5.67675C7.42058 7.71483 5.06929 10.568 3.64245 13.8991C3.22048 14.8001 2.35737 15.9502 3.12458 16.8511C3.89179 17.752 4.7549 15.9885 5.80981 16.2569Z" fill="#468AC8"/>
<path d="M209.944 20.3782C209.944 18.3271 209.944 16.2761 209.944 14.2251C209.944 12.9791 209.944 11.7523 208.391 11.3306C207.988 11.2156 207.662 10.9281 207.873 10.5064C207.967 10.394 208.084 10.3032 208.217 10.2404C208.349 10.1775 208.493 10.144 208.64 10.1422C211.997 10.1422 215.372 10.0272 218.71 10.353C219.863 10.4839 220.928 11.0317 221.706 11.8932C222.483 12.7546 222.918 13.8703 222.929 15.0302C223.133 16.2845 222.894 17.5706 222.254 18.6684C221.614 19.7663 220.612 20.6078 219.419 21.0491C217.988 21.6119 216.442 21.8222 214.912 21.6625C213.665 21.5091 213.32 21.9883 213.397 23.1576C213.397 24.6528 213.397 26.1862 213.397 27.7006C213.397 28.6781 213.397 29.7324 214.778 29.9624C214.874 29.9645 214.968 29.9865 215.055 30.0271C215.142 30.0676 215.219 30.1258 215.282 30.1979C215.346 30.2701 215.393 30.3546 215.422 30.446C215.45 30.5375 215.46 30.6339 215.449 30.7292C215.449 31.3617 214.835 31.2659 214.394 31.2659H200.872C200.45 31.2659 199.894 31.4001 199.779 30.7675C199.664 30.135 199.99 30.0774 200.412 29.9816C200.635 29.9379 200.837 29.8189 200.984 29.6445C201.13 29.4701 201.213 29.2509 201.217 29.0232C201.25 27.7533 200.819 26.515 200.003 25.5408C199.187 24.5667 198.043 23.9237 196.787 23.7327H195.866C192.145 23.7327 190.783 24.8828 190.227 28.4865C190.227 29.0423 190.112 29.5599 190.687 29.8666C191.263 30.1733 191.838 30.25 191.493 30.9592C191.148 31.6684 190.534 31.2467 190.035 31.2659C188.904 31.2659 187.753 31.2659 186.602 31.2659C186.257 31.2659 185.796 31.2659 185.662 30.8634C185.63 30.7727 185.618 30.6761 185.628 30.5805C185.637 30.4848 185.668 30.3924 185.717 30.31C185.767 30.2275 185.834 30.1571 185.914 30.1036C185.994 30.0501 186.085 30.015 186.18 30.0008C187.753 29.5982 188.098 28.2181 188.712 26.9913C190.975 21.8542 193.2 16.6978 195.463 11.6565C195.693 11.1198 195.732 10.3147 196.48 10.2764C197.228 10.238 197.304 11.0623 197.535 11.599C199.798 16.6403 202.042 21.7008 204.324 26.7421C204.631 27.5208 205.016 28.2659 205.475 28.9657C205.747 29.424 206.157 29.7843 206.646 29.9945C207.136 30.2046 207.679 30.2538 208.199 30.135C209.522 29.8474 209.81 28.8315 209.829 27.7197C209.829 25.3045 209.829 22.8701 209.829 20.4549L209.944 20.3782ZM213.397 15.6052C213.397 16.6595 213.397 17.7329 213.397 18.7872C213.397 19.5156 213.704 19.8223 214.452 19.9373C215.434 20.122 216.45 19.949 217.315 19.4497C218.181 18.9504 218.839 18.1577 219.17 17.2154C219.523 16.2075 219.472 15.1024 219.029 14.1309C218.586 13.1593 217.784 12.3964 216.792 12.0015C214.126 10.9856 213.435 11.4456 213.435 14.2443L213.397 15.6052ZM195.617 15.6052C194.715 17.7713 193.967 19.4389 193.257 21.2599C193.224 21.4952 193.224 21.7339 193.257 21.9692H198.551C198.244 21.2599 198.033 20.704 197.784 20.1673C197.094 18.7872 196.461 17.3496 195.693 15.586L195.617 15.6052Z" fill="white"/>
<path d="M23.8746 22.9277C22.6494 21.4614 21.019 20.3884 19.1871 19.843C17.3553 19.2975 15.4032 19.3037 13.5748 19.8607C13.1378 19.9746 12.7317 20.1842 12.3856 20.4741C10.3525 22.5826 9.2784 22.3909 7.32202 19.8607C7.90266 19.1347 8.72741 18.6443 9.64283 18.4806C13.5503 17.4444 17.6702 17.5241 21.5346 18.7106C22.7621 19.094 22.5511 18.308 22.5128 17.618C22.5128 17.3305 22.5128 17.0813 22.1483 17.1388C22.4744 16.4487 21.6496 16.3337 21.5154 15.8736C23.7206 16.023 25.8648 16.6613 27.7924 17.7422C29.7199 18.8231 31.3824 20.3194 32.6591 22.1226C33.98 23.9661 34.8809 26.0763 35.2984 28.305C35.7159 30.5337 35.6399 32.8268 35.0758 35.023C34.5388 35.1955 34.5196 35.6172 34.5196 36.0773C33.9271 37.2201 33.1133 38.2339 32.1255 39.0598C31.1377 39.8857 29.9956 40.5074 28.7655 40.8886C25.7461 42.1081 22.474 42.571 19.2345 42.2368C15.995 41.9027 12.8865 40.7818 10.1799 38.9717C12.398 39.8097 14.7921 40.0734 17.1395 39.7382C19.487 39.4031 21.7115 38.48 23.606 37.0549C26.157 35.138 28.2093 32.8186 28.075 29.3874C28.075 28.9274 28.2668 28.1798 27.3654 28.314C25.2363 28.6399 24.7952 27.4706 24.8719 25.7071C24.987 24.6528 25.1021 23.541 23.8746 22.9277Z" fill="#2B3270"/>
<path d="M170.646 10.3721H178.318C176.093 11.2539 176.726 12.749 177.244 14.2058L181.08 25.4386C182.058 22.5825 182.844 20.3589 183.612 18.1354C184.053 16.8511 184.436 15.5285 184.897 14.3017C185.357 13.0749 185.798 11.3306 183.439 10.6788C185.265 10.1229 187.192 9.98526 189.078 10.2763C189.826 10.2763 189.749 11.1197 189.078 11.3689C187.333 11.9823 187.16 13.5733 186.604 14.9726C184.801 20.0331 183.055 25.1319 181.253 30.1924C181.042 30.7866 181.118 31.7642 180.178 31.7259C179.239 31.6875 179.354 30.7483 179.143 30.154C177.838 26.5887 176.573 23.0042 175.307 19.458C175.192 19.113 175.307 18.4421 174.616 18.5379C173.926 18.6338 173.945 18.9213 173.791 19.4388C172.66 23.1 171.471 26.7421 170.262 30.3649C170.09 30.9016 170.109 31.7259 169.284 31.7067C168.459 31.6875 168.498 30.8825 168.306 30.3457C166.618 25.7261 165.007 21.1832 163.377 16.5827C162.571 14.3784 162.283 11.8673 159.541 10.698L159.79 10.1805C162.034 10.1805 164.278 10.1805 166.503 10.1805C167.309 10.1805 167.481 10.8705 166.848 11.158C164.604 12.1356 165.793 13.9375 166.1 14.9918C167.002 18.3271 168.862 21.3174 169.936 25.3619C171.295 22.1632 172.479 18.8934 173.485 15.5668C174.06 13.5158 172.679 11.5989 170.646 10.3721Z" fill="white"/>
<path d="M23.8765 22.9276C25.104 23.541 24.989 24.6528 24.9314 25.7071C24.9314 27.4706 25.2958 28.6399 27.4249 28.314C28.3263 28.1798 28.1345 28.9274 28.1345 29.3874C28.2688 32.8761 26.2165 35.138 23.6655 37.0548C21.771 38.48 19.5465 39.4031 17.199 39.7382C14.8516 40.0734 12.4575 39.8097 10.2394 38.9717C4.38941 35.7514 1.72336 30.4225 0.15058 24.3653C0.0354986 23.9052 -0.0795827 23.2918 0.553365 22.966C1.5891 23.5027 1.85762 24.5953 2.47139 25.4579C6.78694 31.7452 14.5166 33.777 20.3857 30.1158C21.69 29.4826 22.7434 28.4295 23.3765 27.1258C24.0097 25.8221 24.1858 24.3435 23.8765 22.9276Z" fill="#192246"/>
<path d="M63.7542 31.1508C65.9407 32.5501 67.5902 34.1986 70.2371 33.0676C70.5631 32.9143 70.9851 32.6076 71.2345 33.0676C71.4838 33.5277 71.081 33.8727 70.6974 34.1603C69.5433 34.9349 68.1845 35.3486 66.7942 35.3486C65.404 35.3486 64.0452 34.9349 62.8911 34.1603C60.4441 32.5178 57.8799 31.057 55.219 29.7898C53.1634 28.7627 51.5276 27.0552 50.5904 24.9582C49.6531 22.8611 49.4723 20.5041 50.0787 18.2887C50.6317 16.0114 51.9269 13.9825 53.7603 12.5216C55.5937 11.0606 57.8612 10.2505 60.2058 10.2188C62.2305 10.0185 64.2701 10.4034 66.0823 11.3276C67.8945 12.2519 69.4031 13.6766 70.4289 15.4326C71.4834 17.1305 72.0082 19.1037 71.9365 21.1007C71.8647 23.0978 71.1997 25.0283 70.0261 26.6462C68.393 28.699 66.2217 30.2584 63.7542 31.1508ZM60.6853 11.7139C59.1107 11.5674 57.5393 12.0245 56.2893 12.9926C55.0393 13.9607 54.2042 15.3674 53.9531 16.9278C53.4639 19.2408 53.4639 21.6304 53.9531 23.9434C54.2658 25.628 55.1656 27.1473 56.4929 28.2317C57.8202 29.316 59.4891 29.8952 61.2032 29.8665C64.7899 29.5981 66.9573 27.4513 67.7245 23.4259C68.1732 21.0302 67.9881 18.559 67.1874 16.2569C66.7572 14.8887 65.8861 13.7012 64.71 12.8795C63.5339 12.0578 62.1188 11.6479 60.6853 11.7139Z" fill="white"/>
<path d="M81.1124 10.4489C78.6957 11.2348 78.6957 13.2091 78.6957 15.0876C78.6957 17.5795 78.6957 20.0906 78.6957 22.5825C78.6831 23.7929 78.838 24.9991 79.156 26.167C79.3307 27.2145 79.8761 28.1643 80.6929 28.8434C81.5097 29.5225 82.5435 29.8856 83.6059 29.8666C84.7617 29.9045 85.8955 29.5443 86.8173 28.8463C87.7392 28.1484 88.393 27.1551 88.6694 26.0329C89.0131 24.629 89.1488 23.1823 89.0722 21.7391C89.0722 19.5347 89.0722 17.3495 89.0722 15.1451C89.0722 13.2283 89.475 11.3114 86.9049 10.353H94.5769C91.7383 11.944 92.4479 14.5701 92.4288 16.947C92.4096 19.3239 92.4288 21.4899 92.4288 23.771C92.2753 28.4864 89.0722 31.3234 84.0086 31.3425C78.9451 31.3617 75.5502 28.4673 75.4351 23.6751C75.4351 20.9532 75.4351 18.2121 75.4351 15.4902C75.4351 13.5733 75.6269 11.5223 73.2485 10.4105L81.1124 10.4489Z" fill="white"/>
<path d="M5.81147 16.2571C4.8141 15.9888 4.06607 17.829 3.20296 16.813C2.33985 15.7971 3.20296 14.762 3.72083 13.8611C5.14767 10.53 7.49895 7.67677 10.4968 5.63869C13.4946 3.60061 17.0135 2.46288 20.6378 2.35997C21.5584 2.35997 22.7092 2.35997 22.7092 3.83595C20.8913 5.77275 18.6161 7.22272 16.0921 8.05302C15.3861 8.20945 14.7696 8.63638 14.3751 9.24209C13.9806 9.84781 13.8396 10.584 13.9822 11.2925C14.174 12.7876 12.467 12.941 11.6231 13.6694C10.7791 14.3978 9.89686 14.4745 9.57079 13.7844C8.38162 11.4458 7.72949 13.516 7.24999 14.0336C6.69113 14.7204 6.20878 15.466 5.81147 16.2571Z" fill="#6D9DD3"/>
<path d="M151.044 29.7322C152.023 29.8299 153.011 29.7454 153.959 29.483C154.584 29.3689 155.158 29.0614 155.598 28.6039C156.039 28.1464 156.324 27.5621 156.414 26.9336C156.542 26.2942 156.453 25.6305 156.162 25.0473C155.87 24.4641 155.392 23.9947 154.803 23.7133C153.269 22.8891 151.715 22.084 150.219 21.2022C149.045 20.6245 148.103 19.6639 147.549 18.4791C146.994 17.2943 146.861 15.9559 147.17 14.6849C147.487 13.4631 148.187 12.3745 149.166 11.578C150.146 10.7815 151.355 10.3186 152.617 10.257C153.984 10.0911 155.368 10.1364 156.721 10.3912V12.308C155.428 11.8489 154.031 11.7691 152.694 12.078C152.111 12.2594 151.588 12.5962 151.183 13.0522C150.777 13.5082 150.504 14.066 150.392 14.6658C150.235 15.2632 150.287 15.896 150.538 16.4602C150.789 17.0245 151.224 17.4868 151.773 17.7711C153.015 18.7079 154.384 19.463 155.839 20.0138C157.093 20.3811 158.184 21.1638 158.934 22.2334C159.683 23.3029 160.046 24.5955 159.963 25.8985C159.79 28.5246 158.237 29.9814 155.302 30.8823C153.687 31.5096 151.904 31.557 150.258 31.0165C150.267 30.7529 150.345 30.4962 150.482 30.2713C150.62 30.0463 150.814 29.8606 151.044 29.7322Z" fill="white"/>
<path d="M135.583 24.0203L131.555 20.0715C131.555 23.081 131.555 25.8221 131.555 28.4099C131.549 28.7976 131.69 29.1734 131.949 29.4615C132.209 29.7496 132.569 29.9286 132.955 29.9625C133.415 30.0583 133.933 30.1925 133.876 30.7676C133.818 31.3426 133.224 31.2468 132.782 31.2468C130.864 31.2468 128.812 31.2468 126.837 31.2468C126.415 31.2468 125.82 31.381 125.724 30.7676C125.628 30.1542 126.05 30.1158 126.434 30.0392C128.007 29.6941 128.141 28.4482 128.16 27.2214C128.16 22.6785 128.16 18.1547 128.16 13.6118C128.16 11.9058 126.894 11.484 125.379 10.4298H134.336C129.675 12.7108 132.207 16.372 131.248 19.554C133.166 18.8831 133.78 17.1963 135.084 16.4679L136.005 17.4646C134.087 19.2856 136.638 19.9565 137.04 21.1833C135.257 21.3558 135.621 22.8126 135.583 24.0203Z" fill="white"/>
<path d="M36.8264 13.5157C36.9414 12.519 36.0975 12.289 35.5029 11.8864C32.7631 10.2202 29.729 9.09451 26.5649 8.57026C28.2894 6.91524 29.603 4.88039 30.401 2.62802C39.0896 7.03678 44.5944 18.3462 41.1995 25.6302C40.9994 23.5683 40.387 21.5676 39.3986 19.7467C38.4102 17.9258 37.0658 16.3219 35.4454 15.0301C36.6537 14.7809 37.747 15.7968 39.1663 15.2792C38.4183 14.4167 37.9005 13.6116 36.8264 13.5157Z" fill="#468AC8"/>
<path d="M104.474 31.055H96.1879C98.854 30.0199 98.3937 27.8155 98.3937 25.822C98.3937 22.1992 98.3937 18.5572 98.3937 14.9151C98.3937 12.1932 98.3937 12.1932 95.6509 10.5064H103.63C101.328 11.599 101.712 13.6692 101.712 15.5669C101.712 19.2089 101.712 22.8317 101.712 26.4738C101.712 29.2532 101.712 29.2915 104.474 31.055Z" fill="white"/>
<path d="M111.666 30.48C109.984 29.7056 108.535 28.5048 107.462 26.9971C106.389 25.4895 105.73 23.7274 105.549 21.8861C105.369 20.0448 105.674 18.1884 106.434 16.5014C107.194 14.8144 108.383 13.3556 109.882 12.2699C109.997 13.19 109.383 14.5127 111.186 14.436C109.669 17.1371 109.134 20.2795 109.671 23.3302C110.088 25.1625 110.966 26.8581 112.222 28.2565C112.231 29.0332 112.04 29.7992 111.666 30.48Z" fill="white"/>
<path d="M135.582 24.0203C135.582 22.8127 135.256 21.3559 137.174 21.1834C139.227 24.0587 142.065 26.2439 144.328 28.9466C144.539 29.2475 144.832 29.4815 145.172 29.6208C145.512 29.7602 145.885 29.7989 146.246 29.7325C146.879 29.5025 146.419 28.6591 146.553 28.1032C146.688 27.5473 146.208 26.7614 146.937 26.4931C147.666 26.2247 147.896 27.0489 148.203 27.509C148.921 28.4944 149.896 29.2636 151.022 29.7325C150.781 29.8535 150.576 30.0359 150.428 30.2614C150.28 30.4869 150.194 30.7475 150.178 31.0168L140.377 31.2469C139.841 31.2852 139.303 31.2852 138.766 31.2469C138.498 31.2469 138.133 31.2469 138.018 30.9593C137.903 30.6718 138.018 30.2309 138.421 30.0776C139.936 29.4833 139.399 28.6783 138.689 27.8157L135.582 24.0203Z" fill="white"/>
<path d="M35.0977 35.0228C35.6591 32.8253 35.732 30.5314 35.3112 28.3027C34.8903 26.0739 33.986 23.9644 32.6618 22.1224C31.3813 20.3323 29.7192 18.8484 27.7955 17.7778C25.8718 16.7071 23.7344 16.0764 21.5373 15.931C21.2688 15.7776 21.0003 15.6626 20.7509 15.5093C20.5016 15.3559 20.1371 15.0684 19.6001 14.685C21.3961 14.3106 23.2605 14.4366 24.9897 15.0492C27.948 15.7479 30.6057 17.3723 32.5756 19.6859C34.5456 21.9994 35.7249 24.8812 35.9416 27.9113C36.4927 30.308 36.1945 32.8215 35.0977 35.0228Z" fill="#272850"/>
<path d="M111.663 30.4799C112.037 29.799 112.229 29.033 112.22 28.2563C115.327 31.2083 120.352 30.3073 123.9 25.9178V31.6683C122.865 30.2115 121.752 30.5565 120.486 30.8824C117.598 31.8562 114.45 31.7125 111.663 30.4799Z" fill="white"/>
<path d="M136.236 17.4646L135.315 16.4679C136.063 15.6244 136.85 14.8002 137.578 13.9376C138.307 13.075 139.88 11.6374 136.735 10.3339H144.234L144.541 10.8515C140.628 11.8674 138.883 15.2219 136.236 17.4646Z" fill="white"/>
<path d="M30.4576 2.55147C29.6596 4.80384 28.346 6.83869 26.6215 8.49371C25.2562 9.44076 23.7814 10.2195 22.2292 10.8131C22.3026 10.1132 22.5618 9.44566 22.9799 8.87948C23.3981 8.3133 23.96 7.86908 24.6076 7.59279C25.3476 7.21165 26.0424 6.74871 26.6791 6.21266C27.3191 5.88622 27.828 5.35065 28.1211 4.69501C28.4142 4.03938 28.4739 3.30322 28.2902 2.60898C29.4027 2.12976 29.5369 0.864641 30.3233 0.0979004C30.5444 0.896537 30.5902 1.7335 30.4576 2.55147Z" fill="#343958"/>
<path d="M118.97 10.3723V11.7907C116.054 11.7907 113.216 11.8866 111.125 14.436C109.322 14.436 109.936 13.19 109.821 12.2699C111.142 11.3596 112.632 10.7227 114.203 10.3968C115.774 10.0709 117.395 10.0625 118.97 10.3723Z" fill="white"/>
<path d="M118.972 10.3723C120.721 10.7252 122.538 10.4822 124.132 9.68224V10.6215V12.7875L123.998 15.1836C123.556 14.5788 123.062 14.0143 122.521 13.4968C122.075 12.9883 121.53 12.5751 120.921 12.282C120.311 11.9888 119.648 11.8218 118.972 11.7908V10.3723Z" fill="white"/>
<path d="M22.5167 17.618C22.5167 18.3081 22.766 19.094 21.5385 18.7106C17.6741 17.5241 13.5542 17.4444 9.64673 18.4806C12.6479 16.8409 16.1231 16.2857 19.4862 16.9088L22.1714 17.1963C21.9988 17.503 22.344 17.503 22.5167 17.618Z" fill="#343958"/>
<path d="M36.8241 13.516C37.8982 13.6885 38.416 14.4936 39.1449 15.2795C37.7255 15.7971 36.6323 14.7812 35.4239 15.0303L32.3743 13.3243V13.056L36.8241 13.516Z" fill="#343958"/>
<path d="M156.663 12.3081V10.3913C159.252 9.68206 159.252 9.68206 158.85 14.0333C157.737 13.9183 157.334 12.9215 156.663 12.3081Z" fill="white"/>
<path d="M18.5075 11.0624C17.817 11.5799 16.7621 12.04 16.3593 11.2924C15.8031 10.219 17.1073 9.91228 17.817 9.50974C18.275 9.29312 18.7496 9.11364 19.2363 8.97302C19.2363 9.68226 18.2198 10.1615 18.5075 11.0624Z" fill="#427AB6"/>
<path d="M18.5064 11.0625C18.2187 10.1616 19.1969 9.72069 19.2736 8.97312L20.7889 8.09137C20.7871 8.76821 20.5627 9.4257 20.1503 9.96257C19.7378 10.4994 19.1602 10.8859 18.5064 11.0625Z" fill="#343958"/>
<path d="M34.5806 36.0006C34.5806 35.5405 34.5806 35.1188 35.1368 34.9463C35.1346 35.1536 35.083 35.3573 34.9863 35.5407C34.8896 35.724 34.7505 35.8817 34.5806 36.0006Z" fill="#272850"/>
<path d="M22.5158 17.6179C22.3432 17.5029 21.9979 17.5029 22.1514 17.1386C22.5542 17.0811 22.5542 17.3495 22.5158 17.6179Z" fill="#FAFAFC"/>
</svg>
